<svg width="72" height="30" viewBox="0 0 72 30" fill="none" xmlns="http://www.w3.org/2000/svg">
<path fill-rule="evenodd" clip-rule="evenodd" d="M0 0H65V30H0V0Z" fill="white"/>
<path fill-rule="evenodd" clip-rule="evenodd" d="M72 15L65 22V8L72 15Z" fill="white"/>
<path d="M20.1229 18.16H24.0589V20L16.2669 20.016V19.552L20.0429 15.456C20.5762 14.8693 20.9549 14.3787 21.1789 13.984C21.4135 13.5787 21.5309 13.184 21.5309 12.8C21.5309 12.3413 21.3975 11.968 21.1309 11.68C20.8642 11.392 20.5069 11.248 20.0589 11.248C19.6109 11.248 19.2482 11.3973 18.9709 11.696C18.7042 11.9947 18.5709 12.384 18.5709 12.864C18.5709 13.024 18.5975 13.28 18.6509 13.632H16.4749C16.4002 13.3653 16.3629 13.0667 16.3629 12.736C16.3629 11.7973 16.7095 10.9813 17.4029 10.288C18.1069 9.59467 19.0029 9.248 20.0909 9.248C21.1469 9.248 22.0215 9.57333 22.7149 10.224C23.4082 10.864 23.7549 11.664 23.7549 12.624C23.7549 13.3387 23.5629 14.0053 23.1789 14.624C22.7735 15.264 22.2082 15.9627 21.4829 16.72L20.1229 18.16ZM25.7866 14.64C25.7866 13.0187 26.144 11.7173 26.8586 10.736C27.5733 9.744 28.6133 9.248 29.9786 9.248C31.344 9.248 32.3786 9.744 33.0826 10.736C33.7973 11.7173 34.1546 13.0187 34.1546 14.64C34.1546 16.272 33.792 17.6053 33.0666 18.64C32.3413 19.6747 31.312 20.192 29.9786 20.192C28.6346 20.192 27.6 19.6747 26.8746 18.64C26.1493 17.6053 25.7866 16.272 25.7866 14.64ZM31.9306 14.656C31.9306 12.384 31.28 11.248 29.9786 11.248C28.6666 11.248 28.0106 12.384 28.0106 14.656C28.0106 17.0133 28.6666 18.192 29.9786 18.192C31.28 18.192 31.9306 17.0133 31.9306 14.656ZM39.2869 9.44H40.0069V20H37.8469V12L35.8469 12.64L35.3349 10.736L39.2869 9.44ZM49.8528 16.416C49.8528 17.4827 49.4688 18.3787 48.7008 19.104C47.9328 19.8293 47.0208 20.192 45.9648 20.192C44.9301 20.2133 44.0181 19.8507 43.2288 19.104C42.4501 18.3573 42.0714 17.456 42.0928 16.4C42.0928 16.0053 42.1514 15.6213 42.2688 15.248C42.4394 14.736 42.8608 14.016 43.5328 13.088L46.1727 9.44H48.7168L46.2848 12.832H46.3488C47.2554 12.8107 48.0714 13.1573 48.7968 13.872C49.5221 14.576 49.8741 15.424 49.8528 16.416ZM47.1968 17.696C47.5381 17.3547 47.7088 16.928 47.7088 16.416C47.7088 15.904 47.5381 15.4827 47.1968 15.152C46.8661 14.8107 46.4554 14.64 45.9648 14.64C45.4741 14.64 45.0581 14.8107 44.7168 15.152C44.3861 15.4933 44.2208 15.9147 44.2208 16.416C44.2208 16.9173 44.3861 17.344 44.7168 17.696C45.0581 18.0373 45.4741 18.208 45.9648 18.208C46.4554 18.208 46.8661 18.0373 47.1968 17.696Z" fill="#2F1634"/>
</svg>
