<svg width="72" height="30" viewBox="0 0 72 30" fill="none" xmlns="http://www.w3.org/2000/svg">
<path fill-rule="evenodd" clip-rule="evenodd" d="M0 0H65V30H0V0Z" fill="white"/>
<path fill-rule="evenodd" clip-rule="evenodd" d="M72 15L65 22V8L72 15Z" fill="white"/>
<path d="M20.0994 18.16H24.0354V20L16.2434 20.016V19.552L20.0194 15.456C20.5528 14.8693 20.9314 14.3787 21.1554 13.984C21.3901 13.5787 21.5074 13.184 21.5074 12.8C21.5074 12.3413 21.3741 11.968 21.1074 11.68C20.8408 11.392 20.4834 11.248 20.0354 11.248C19.5874 11.248 19.2248 11.3973 18.9474 11.696C18.6808 11.9947 18.5474 12.384 18.5474 12.864C18.5474 13.024 18.5741 13.28 18.6274 13.632H16.4514C16.3768 13.3653 16.3394 13.0667 16.3394 12.736C16.3394 11.7973 16.6861 10.9813 17.3794 10.288C18.0834 9.59467 18.9794 9.248 20.0674 9.248C21.1234 9.248 21.9981 9.57333 22.6914 10.224C23.3848 10.864 23.7314 11.664 23.7314 12.624C23.7314 13.3387 23.5394 14.0053 23.1554 14.624C22.7501 15.264 22.1848 15.9627 21.4594 16.72L20.0994 18.16ZM25.7632 14.64C25.7632 13.0187 26.1205 11.7173 26.8352 10.736C27.5499 9.744 28.5899 9.248 29.9552 9.248C31.3205 9.248 32.3552 9.744 33.0592 10.736C33.7739 11.7173 34.1312 13.0187 34.1312 14.64C34.1312 16.272 33.7685 17.6053 33.0432 18.64C32.3179 19.6747 31.2885 20.192 29.9552 20.192C28.6112 20.192 27.5765 19.6747 26.8512 18.64C26.1259 17.6053 25.7632 16.272 25.7632 14.64ZM31.9072 14.656C31.9072 12.384 31.2565 11.248 29.9552 11.248C28.6432 11.248 27.9872 12.384 27.9872 14.656C27.9872 17.0133 28.6432 18.192 29.9552 18.192C31.2565 18.192 31.9072 17.0133 31.9072 14.656ZM39.2634 9.44H39.9834V20H37.8234V12L35.8234 12.64L35.3114 10.736L39.2634 9.44ZM49.7493 16.528C49.7493 17.5947 49.36 18.4747 48.5813 19.168C47.8026 19.8507 46.8426 20.192 45.7013 20.192C44.8266 20.192 44.0426 19.9787 43.3493 19.552C42.6666 19.1253 42.144 18.5387 41.7813 17.792L43.2853 16.736C43.9146 17.7067 44.6986 18.192 45.6373 18.192C46.192 18.192 46.6453 18.048 46.9973 17.76C47.3493 17.4613 47.5253 17.0613 47.5253 16.56C47.5253 15.5467 46.8053 15.04 45.3653 15.04H42.9013V9.44H49.1413V11.392H44.9813V13.312C45.408 13.2267 45.808 13.184 46.1813 13.184C47.152 13.184 47.9893 13.488 48.6933 14.096C49.3973 14.6933 49.7493 15.504 49.7493 16.528Z" fill="#2F1634"/>
</svg>
