<svg width="72" height="30" viewBox="0 0 72 30" fill="none" xmlns="http://www.w3.org/2000/svg">
<path fill-rule="evenodd" clip-rule="evenodd" d="M0 0H65V30H0V0Z" fill="white"/>
<path fill-rule="evenodd" clip-rule="evenodd" d="M72 15L65 22V8L72 15Z" fill="white"/>
<path d="M19.9119 18.16H23.8479V20L16.0559 20.016V19.552L19.8319 15.456C20.3653 14.8693 20.7439 14.3787 20.9679 13.984C21.2026 13.5787 21.3199 13.184 21.3199 12.8C21.3199 12.3413 21.1866 11.968 20.9199 11.68C20.6533 11.392 20.2959 11.248 19.8479 11.248C19.3999 11.248 19.0373 11.3973 18.7599 11.696C18.4933 11.9947 18.3599 12.384 18.3599 12.864C18.3599 13.024 18.3866 13.28 18.4399 13.632H16.2639C16.1893 13.3653 16.1519 13.0667 16.1519 12.736C16.1519 11.7973 16.4986 10.9813 17.1919 10.288C17.8959 9.59467 18.7919 9.248 19.8799 9.248C20.9359 9.248 21.8106 9.57333 22.5039 10.224C23.1973 10.864 23.5439 11.664 23.5439 12.624C23.5439 13.3387 23.3519 14.0053 22.9679 14.624C22.5626 15.264 21.9973 15.9627 21.2719 16.72L19.9119 18.16ZM25.5757 14.64C25.5757 13.0187 25.933 11.7173 26.6477 10.736C27.3624 9.744 28.4024 9.248 29.7677 9.248C31.133 9.248 32.1677 9.744 32.8717 10.736C33.5864 11.7173 33.9437 13.0187 33.9437 14.64C33.9437 16.272 33.581 17.6053 32.8557 18.64C32.1304 19.6747 31.101 20.192 29.7677 20.192C28.4237 20.192 27.389 19.6747 26.6637 18.64C25.9384 17.6053 25.5757 16.272 25.5757 14.64ZM31.7197 14.656C31.7197 12.384 31.069 11.248 29.7677 11.248C28.4557 11.248 27.7997 12.384 27.7997 14.656C27.7997 17.0133 28.4557 18.192 29.7677 18.192C31.069 18.192 31.7197 17.0133 31.7197 14.656ZM39.0759 9.44H39.7959V20H37.6359V12L35.6359 12.64L35.1239 10.736L39.0759 9.44ZM49.9138 17.184C49.9138 18.0907 49.5458 18.8213 48.8098 19.376C48.0738 19.92 47.1245 20.192 45.9618 20.192C44.7885 20.192 43.8338 19.92 43.0978 19.376C42.3618 18.8213 41.9938 18.0907 41.9938 17.184C41.9938 15.968 42.6871 15.0827 44.0738 14.528C43.0071 13.9093 42.4738 13.0827 42.4738 12.048C42.4738 11.1733 42.7991 10.4907 43.4498 10C44.1111 9.49867 44.9485 9.248 45.9618 9.248C46.9645 9.248 47.7965 9.49867 48.4578 10C49.1191 10.5013 49.4498 11.184 49.4498 12.048C49.4498 13.0933 48.9218 13.92 47.8658 14.528C49.2311 15.0933 49.9138 15.9787 49.9138 17.184ZM44.4898 12.144C44.4898 12.4533 44.6018 12.7147 44.8258 12.928C45.0498 13.1413 45.4285 13.3707 45.9618 13.616C46.4951 13.3707 46.8738 13.1413 47.0978 12.928C47.3218 12.7147 47.4338 12.448 47.4338 12.128C47.4338 11.7867 47.2951 11.5147 47.0178 11.312C46.7405 11.0987 46.3885 10.992 45.9618 10.992C45.5245 10.992 45.1671 11.0987 44.8898 11.312C44.6231 11.5147 44.4898 11.792 44.4898 12.144ZM47.7698 17.104C47.7698 16.7093 47.6258 16.3893 47.3378 16.144C47.0605 15.8987 46.6018 15.664 45.9618 15.44C45.3218 15.6747 44.8578 15.92 44.5698 16.176C44.2925 16.4213 44.1538 16.7307 44.1538 17.104C44.1538 17.5093 44.3085 17.8347 44.6178 18.08C44.9378 18.3147 45.3858 18.432 45.9618 18.432C46.5378 18.432 46.9805 18.3147 47.2898 18.08C47.6098 17.8347 47.7698 17.5093 47.7698 17.104Z" fill="#2F1634"/>
</svg>
