<svg width="72" height="30" viewBox="0 0 72 30" fill="none" xmlns="http://www.w3.org/2000/svg">
<path fill-rule="evenodd" clip-rule="evenodd" d="M0 0H65V30H0V0Z" fill="white"/>
<path fill-rule="evenodd" clip-rule="evenodd" d="M72 15L65 22V8L72 15Z" fill="white"/>
<path d="M20.1229 18.16H24.0589V20L16.2669 20.016V19.552L20.0429 15.456C20.5762 14.8693 20.9549 14.3787 21.1789 13.984C21.4135 13.5787 21.5309 13.184 21.5309 12.8C21.5309 12.3413 21.3975 11.968 21.1309 11.68C20.8642 11.392 20.5069 11.248 20.0589 11.248C19.6109 11.248 19.2482 11.3973 18.9709 11.696C18.7042 11.9947 18.5709 12.384 18.5709 12.864C18.5709 13.024 18.5975 13.28 18.6509 13.632H16.4749C16.4002 13.3653 16.3629 13.0667 16.3629 12.736C16.3629 11.7973 16.7095 10.9813 17.4029 10.288C18.1069 9.59467 19.0029 9.248 20.0909 9.248C21.1469 9.248 22.0215 9.57333 22.7149 10.224C23.4082 10.864 23.7549 11.664 23.7549 12.624C23.7549 13.3387 23.5629 14.0053 23.1789 14.624C22.7735 15.264 22.2082 15.9627 21.4829 16.72L20.1229 18.16ZM25.7866 14.64C25.7866 13.0187 26.144 11.7173 26.8586 10.736C27.5733 9.744 28.6133 9.248 29.9786 9.248C31.344 9.248 32.3786 9.744 33.0826 10.736C33.7973 11.7173 34.1546 13.0187 34.1546 14.64C34.1546 16.272 33.792 17.6053 33.0666 18.64C32.3413 19.6747 31.312 20.192 29.9786 20.192C28.6346 20.192 27.6 19.6747 26.8746 18.64C26.1493 17.6053 25.7866 16.272 25.7866 14.64ZM31.9306 14.656C31.9306 12.384 31.28 11.248 29.9786 11.248C28.6666 11.248 28.0106 12.384 28.0106 14.656C28.0106 17.0133 28.6666 18.192 29.9786 18.192C31.28 18.192 31.9306 17.0133 31.9306 14.656ZM39.2869 9.44H40.0069V20H37.8469V12L35.8469 12.64L35.3349 10.736L39.2869 9.44ZM49.8528 13.04C49.8528 13.6267 49.7354 14.1493 49.5008 14.608C49.2874 15.056 48.9194 15.6373 48.3968 16.352L45.7728 20H43.2128L45.6608 16.608H45.5807C44.6848 16.6293 43.8741 16.288 43.1488 15.584C42.4234 14.8693 42.0714 14.016 42.0928 13.024C42.0714 11.9787 42.4501 11.0827 43.2288 10.336C44.0181 9.58933 44.9301 9.22667 45.9648 9.248C47.0208 9.248 47.9328 9.61067 48.7008 10.336C49.4688 11.0613 49.8528 11.9627 49.8528 13.04ZM47.1968 14.288C47.5381 13.9467 47.7088 13.5253 47.7088 13.024C47.7088 12.5227 47.5381 12.1013 47.1968 11.76C46.8661 11.408 46.4554 11.232 45.9648 11.232C45.4848 11.232 45.0741 11.4027 44.7328 11.744C44.3914 12.0853 44.2208 12.512 44.2208 13.024C44.2208 13.5253 44.3914 13.9467 44.7328 14.288C45.0741 14.6293 45.4848 14.8 45.9648 14.8C46.4554 14.8 46.8661 14.6293 47.1968 14.288Z" fill="#2F1634"/>
</svg>
