<svg width="72" height="30" viewBox="0 0 72 30" fill="none" xmlns="http://www.w3.org/2000/svg">
<path fill-rule="evenodd" clip-rule="evenodd" d="M0 0H65V30H0V0Z" fill="white"/>
<path fill-rule="evenodd" clip-rule="evenodd" d="M72 15L65 22V8L72 15Z" fill="white"/>
<path d="M19.9979 18.16H23.9339V20L16.1419 20.016V19.552L19.9179 15.456C20.4512 14.8693 20.8299 14.3787 21.0539 13.984C21.2885 13.5787 21.4059 13.184 21.4059 12.8C21.4059 12.3413 21.2725 11.968 21.0059 11.68C20.7392 11.392 20.3819 11.248 19.9339 11.248C19.4859 11.248 19.1232 11.3973 18.8459 11.696C18.5792 11.9947 18.4459 12.384 18.4459 12.864C18.4459 13.024 18.4725 13.28 18.5259 13.632H16.3499C16.2752 13.3653 16.2379 13.0667 16.2379 12.736C16.2379 11.7973 16.5845 10.9813 17.2779 10.288C17.9819 9.59467 18.8779 9.248 19.9659 9.248C21.0219 9.248 21.8965 9.57333 22.5899 10.224C23.2832 10.864 23.6299 11.664 23.6299 12.624C23.6299 13.3387 23.4379 14.0053 23.0539 14.624C22.6485 15.264 22.0832 15.9627 21.3579 16.72L19.9979 18.16ZM25.6616 14.64C25.6616 13.0187 26.019 11.7173 26.7336 10.736C27.4483 9.744 28.4883 9.248 29.8536 9.248C31.219 9.248 32.2536 9.744 32.9576 10.736C33.6723 11.7173 34.0296 13.0187 34.0296 14.64C34.0296 16.272 33.667 17.6053 32.9416 18.64C32.2163 19.6747 31.187 20.192 29.8536 20.192C28.5096 20.192 27.475 19.6747 26.7496 18.64C26.0243 17.6053 25.6616 16.272 25.6616 14.64ZM31.8056 14.656C31.8056 12.384 31.155 11.248 29.8536 11.248C28.5416 11.248 27.8856 12.384 27.8856 14.656C27.8856 17.0133 28.5416 18.192 29.8536 18.192C31.155 18.192 31.8056 17.0133 31.8056 14.656ZM39.1619 9.44H39.8819V20H37.7219V12L35.7219 12.64L35.2099 10.736L39.1619 9.44ZM50.3518 16.448V18.272H49.0078V20H46.8478V18.272H41.5998V17.696L44.8638 9.44H47.0878L44.2878 16.448H46.8478V13.488H49.0078V16.448H50.3518Z" fill="#2F1634"/>
</svg>
