<svg width="72" height="30" viewBox="0 0 72 30" fill="none" xmlns="http://www.w3.org/2000/svg">
<path fill-rule="evenodd" clip-rule="evenodd" d="M0 0H65V30H0V0Z" fill="white"/>
<path fill-rule="evenodd" clip-rule="evenodd" d="M72 15L65 22V8L72 15Z" fill="white"/>
<path d="M20.4119 18.16H24.3479V20L16.5559 20.016V19.552L20.3319 15.456C20.8653 14.8693 21.2439 14.3787 21.4679 13.984C21.7026 13.5787 21.8199 13.184 21.8199 12.8C21.8199 12.3413 21.6866 11.968 21.4199 11.68C21.1533 11.392 20.7959 11.248 20.3479 11.248C19.8999 11.248 19.5373 11.3973 19.2599 11.696C18.9933 11.9947 18.8599 12.384 18.8599 12.864C18.8599 13.024 18.8866 13.28 18.9399 13.632H16.7639C16.6893 13.3653 16.6519 13.0667 16.6519 12.736C16.6519 11.7973 16.9986 10.9813 17.6919 10.288C18.3959 9.59467 19.2919 9.248 20.3799 9.248C21.4359 9.248 22.3106 9.57333 23.0039 10.224C23.6973 10.864 24.0439 11.664 24.0439 12.624C24.0439 13.3387 23.8519 14.0053 23.4679 14.624C23.0626 15.264 22.4973 15.9627 21.7719 16.72L20.4119 18.16ZM26.0757 14.64C26.0757 13.0187 26.433 11.7173 27.1477 10.736C27.8624 9.744 28.9024 9.248 30.2677 9.248C31.633 9.248 32.6677 9.744 33.3717 10.736C34.0864 11.7173 34.4437 13.0187 34.4437 14.64C34.4437 16.272 34.081 17.6053 33.3557 18.64C32.6304 19.6747 31.601 20.192 30.2677 20.192C28.9237 20.192 27.889 19.6747 27.1637 18.64C26.4384 17.6053 26.0757 16.272 26.0757 14.64ZM32.2197 14.656C32.2197 12.384 31.569 11.248 30.2677 11.248C28.9557 11.248 28.2997 12.384 28.2997 14.656C28.2997 17.0133 28.9557 18.192 30.2677 18.192C31.569 18.192 32.2197 17.0133 32.2197 14.656ZM39.5759 9.44H40.2959V20H38.1359V12L36.1359 12.64L35.6239 10.736L39.5759 9.44ZM42.3658 9.44H49.7898V10.016L44.9578 20H42.6058L46.8938 11.392H42.3658V9.44Z" fill="#2F1634"/>
</svg>
