<svg width="100" height="100" viewBox="0 0 100 100" fill="none" xmlns="http://www.w3.org/2000/svg">
<g clip-path="url(#clip0_52_282)">
<path d="M100 48.3124C100 71.2784 83.0603 90.3621 61.0196 93.727C61.2055 92.7077 61.2577 91.6521 61.1325 90.5825C61.1325 90.5825 61.0008 89.457 60.8286 87.984C68.6539 86.6508 75.7189 83.0601 81.3188 77.8963C80.9827 77.6167 80.6479 77.2541 80.3178 76.7727C78.8306 74.6026 80.7753 72.4494 80.7753 70.5517C80.7753 68.6902 77.0225 68.8433 76.8851 67.6105C76.4109 63.3409 79.5052 63.2827 81.1549 61.633C82.8046 59.9833 79.5243 56.2329 77.4055 56.4749C75.2724 56.7026 69.268 55.4897 69.8167 50.8958C70.4851 45.3005 62.6881 45.7941 61.5716 43.1825C59.9439 39.3758 62.6497 34.7066 66.1787 33.6458C71.1774 32.1433 76.1018 28.0654 75.7171 23.5258C75.2814 18.3845 72.9542 13.7477 69.1214 10.9933C65.1328 9.37747 60.832 8.37829 56.3323 8.12616C52.3165 8.28499 48.7858 9.17747 48.9469 11.016C49.3418 15.5216 62.1541 16.6919 60.0041 20.9036C58.8832 23.0992 50.4707 26.1981 52.0418 29.4657C53.0637 31.5907 55.5786 29.7695 54.6397 33.849C54.2077 35.7262 52.5618 39.2531 50.0305 39.4807C47.4422 39.7224 45.2868 32.8652 38.2413 32.6404C34.9106 32.5338 30.2183 37.8371 34.2026 41.5995C36.6154 43.878 41.143 38.8611 42.4792 42.7801C43.4209 45.5417 42.3524 51.343 46.7474 53.7675C48.3495 54.6513 50.8055 55.4217 53.2346 56.6561C49.6292 57.3923 45.1992 58.7662 39.968 60.7812L35.5604 59.6183C37.4055 58.0824 40.4034 57.0012 39.6492 53.645C38.5412 48.7141 29.9796 50.5737 24.0771 44.6714C22.2663 42.861 18.4041 36.849 18.4199 29.6262C15.4778 35.2147 13.8033 41.5703 13.8033 48.3126C13.8033 50.3879 13.9616 52.4271 14.266 54.4188C14.1966 54.4177 14.1279 54.4056 14.0587 54.4056C12.1998 54.4056 10.3768 54.7961 8.68725 55.5345C8.31404 53.1807 8.11486 50.77 8.11486 48.3128C8.11486 22.9802 28.7248 2.36963 54.0572 2.36963C79.39 2.3693 100 22.9799 100 48.3124ZM65.5374 61.7033L54.3168 66.861L54.4908 64.416L61.7598 61.1347C60.723 61.0605 59.6488 61.0322 58.5763 61.0322C54.5601 61.0322 47.7747 63.0652 40.2698 66.0441L16.2 59.6953C13.9506 59.1018 11.5559 59.4673 9.58577 60.7051L8.40228 61.4485C7.24689 62.1744 7.23463 63.8541 8.37924 64.5969L22.848 73.9838C19.3917 75.7515 16.1124 77.5467 13.2216 79.2613L5.79705 75.3306C4.5843 74.6886 3.15048 74.6124 1.87679 75.1226L1.17401 75.4043C0.12597 75.8237 -0.313082 77.0701 0.24084 78.0539L4.33087 85.3206L4.33267 85.32C2.78953 86.6476 1.91012 87.7485 1.91012 88.5105C1.91012 90.7909 4.71633 91.3608 7.18986 91.3608C11.6016 91.3608 69.8642 78.0208 69.8642 65.9351C69.8639 63.5417 68.227 62.3446 65.5374 61.7033ZM40.9724 85.2995L53.7931 80.7832C54.3578 80.5842 54.9613 80.9606 55.0309 81.5554L56.1549 91.1657C56.4358 93.5672 55.1441 95.8781 52.9516 96.8974L51.7492 97.4562C50.9982 97.8052 50.1073 97.6181 49.5601 96.9967L40.5817 86.7974C40.1446 86.3007 40.3482 85.5195 40.9724 85.2995Z" fill="#F25C3A"/>
</g>
<defs>
<clipPath id="clip0_52_282">
<rect width="100" height="100" fill="white"/>
</clipPath>
</defs>
</svg>
