<svg width="100" height="100" viewBox="0 0 100 100" fill="none" xmlns="http://www.w3.org/2000/svg">
<path d="M39.5114 0C38.7414 0 38.0522 0.166437 37.4469 0.502673C34.8293 1.02048 33.1515 2.68148 31.9125 3.90706C31.0887 4.72244 30.3776 5.42685 29.7623 5.42685H29.7606C28.9704 5.37642 28.2458 5.34616 27.5784 5.34616C23.019 5.34616 20.6368 6.93487 18.4782 11.4186C18.4076 11.5632 18.3302 11.6556 18.2579 11.7683H19.5625C25.1256 11.7683 29.6496 16.2923 29.6496 21.8554C29.6496 22.785 28.8965 23.5365 27.9684 23.5365C27.0404 23.5365 26.2873 22.785 26.2873 21.8554C26.2873 18.1467 23.2712 15.1306 19.5625 15.1306H11.6257C7.54209 18.1534 5.02536 23.5887 5.35656 29.0626C5.51795 31.7323 4.79168 36.1151 3.49045 38.1376C0.284434 43.1273 0.284434 50.0975 3.49045 55.0873C3.98639 55.8572 4.71266 56.7533 5.55326 57.7923C7.05287 59.6449 9.56455 62.7434 9.47881 64.1623C9.09718 70.4432 12.9303 77.6806 18.0226 80.2949C18.9388 80.7656 19.0935 81.2414 19.4398 82.6822C19.4785 82.8385 19.5205 83.0083 19.5625 83.1798V81.0766C19.5625 74.589 24.8414 69.3084 31.3308 69.3084C32.2588 69.3084 33.012 70.0599 33.012 70.9895C33.012 71.9192 32.2588 72.6707 31.3308 72.6707C26.6958 72.6707 22.9249 76.4416 22.9249 81.0766V88.5713C23.8226 89.1917 24.7423 89.5447 25.5206 89.8406C27.0942 90.4374 27.7448 90.6863 27.9836 92.4112C28.6392 97.1622 31.4535 100 35.5119 100C41.4868 100 48.1426 93.6082 48.1426 84.439V22.2353C48.1426 23.165 47.3894 23.9165 46.4614 23.9165C40.8984 23.9165 36.3743 28.4405 36.3743 34.0036C36.3743 41.4193 30.3406 47.453 22.9249 47.453C21.9969 47.453 21.2437 46.7015 21.2437 45.7718C21.2437 44.8421 21.9969 44.0907 22.9249 44.0907C28.4879 44.0907 33.012 39.5666 33.012 34.0036C33.012 26.5879 39.0457 20.5541 46.4614 20.5541C47.3894 20.5541 48.1426 21.3056 48.1426 22.2353V7.10467C48.1443 3.74399 42.9982 0 39.5114 0ZM34.6948 55.4521C34.6948 52.2007 35.9625 49.1426 38.264 46.8427C38.9213 46.1854 39.9838 46.1854 40.6412 46.8427C41.2985 47.5001 41.2985 48.5626 40.6412 49.2199C38.9751 50.886 38.0572 53.1001 38.0572 55.4521C38.0572 57.804 38.9751 60.0182 40.6412 61.6842C41.2985 62.3416 41.2985 63.4041 40.6412 64.0614C38.9751 65.7274 38.0572 67.9416 38.0572 70.2935C38.0572 72.6455 38.9751 74.8596 40.6412 76.5257C41.2985 77.183 41.2985 78.2455 40.6412 78.9029C40.3134 79.2307 39.883 79.3955 39.4526 79.3955C39.0222 79.3955 38.5918 79.2307 38.264 78.9029C35.9625 76.603 34.6948 73.5433 34.6948 70.2935C34.6948 67.5734 35.5943 64.9945 37.2334 62.8728C35.5926 60.7545 34.6948 58.1739 34.6948 55.4521ZM22.666 59.65C22.666 59.6517 22.666 59.6517 22.666 59.65C22.012 61.427 22.9249 63.4057 24.7002 64.0597C25.5711 64.3825 26.0166 65.3492 25.6938 66.22C25.4433 66.8976 24.8011 67.3178 24.1169 67.3178C23.9235 67.3178 23.7268 67.2842 23.5335 67.2136C20.0198 65.9141 18.2159 62.0003 19.5104 58.4866C19.5104 58.4849 19.5104 58.4832 19.5104 58.4832C20.1661 56.7079 19.2532 54.7292 17.4762 54.0735C16.6053 53.7524 16.1598 52.784 16.4826 51.9132C16.8037 51.0423 17.7754 50.6002 18.6429 50.9179C22.16 52.2208 23.9639 56.1363 22.666 59.65ZM25.7291 33.8876C24.717 36.6296 22.1112 38.3309 19.3457 38.3309C18.5656 38.3309 17.7738 38.1947 17.0004 37.9106C15.22 37.2499 13.2463 38.1662 12.589 39.9432C12.3385 40.6207 11.6963 41.041 11.012 41.041C10.8187 41.041 10.622 41.0074 10.4304 40.9368C9.55951 40.6157 9.114 39.6473 9.4351 38.7764C10.7313 35.2628 14.6501 33.4639 18.1638 34.7534C19.9374 35.4107 21.9179 34.4995 22.5752 32.7208C22.8963 31.85 23.8664 31.4061 24.7355 31.7256C25.6064 32.0484 26.0519 33.0167 25.7291 33.8876Z" fill="#F25C3A"/>
<path d="M96.5096 37.7576C95.21 35.7369 94.4821 31.3507 94.6452 28.6826C94.9763 23.207 92.4596 17.7734 88.376 14.7507H80.4375C77.6568 14.7507 75.394 17.0136 75.394 19.7942C75.394 20.7239 74.6408 21.4754 73.7128 21.4754C72.7848 21.4754 72.0316 20.7239 72.0316 19.7942C72.0316 15.1592 75.8025 11.3883 80.4375 11.3883H81.7421C81.6698 11.2757 81.5925 11.1832 81.5235 11.0403C79.3666 6.55661 76.9844 4.96789 72.425 4.96789C71.7576 4.96789 71.033 4.99815 70.2058 5.05027C69.7334 5.05027 68.9987 4.26179 68.2859 3.5019C67.0402 2.1704 65.3758 0.388353 62.738 0.0857402L61.889 0C56.4521 0 51.8574 3.07992 51.8574 6.72472V84.0591C51.8574 93.2282 58.5132 99.6184 64.4881 99.6201C64.4881 99.6201 64.4881 99.6201 64.4898 99.6201C68.5465 99.6201 71.3591 96.7822 72.0165 92.0312C72.2552 90.3063 72.9058 90.0575 74.4794 89.4607C75.2578 89.1648 76.1774 88.8117 77.0751 88.1914V80.6967C77.0751 76.0617 73.3042 72.2908 68.6692 72.2908C67.7412 72.2908 66.988 71.5393 66.988 70.6096C66.988 69.6799 67.7412 68.9284 68.6692 68.9284C75.1586 68.9284 80.4375 74.209 80.4375 80.6967V82.8015C80.4812 82.63 80.5232 82.4603 80.5619 82.3022C80.9099 80.8631 81.0629 80.384 81.9791 79.9149C87.0698 77.3007 90.9028 70.0666 90.5229 63.7823C90.5078 63.5201 90.6036 63.1855 90.7431 62.8257L85.7248 57.0038C83.8806 53.9441 80.6476 52.1166 77.0751 52.1166C69.6594 52.1166 63.6257 46.0829 63.6257 38.6672C63.6257 37.7375 64.3789 36.986 65.3069 36.986C66.2349 36.986 66.988 37.7375 66.988 38.6672C66.988 44.2302 71.5121 48.7542 77.0751 48.7542C81.7875 48.7542 86.0577 51.1398 88.5273 55.1444L92.5605 59.8181C93.2061 58.9439 93.8953 58.0932 94.4468 57.4106C95.2874 56.3734 96.0136 55.4773 96.5096 54.7073C99.7156 49.7176 99.7156 42.7474 96.5096 37.7576ZM64.004 52.0813C68.4389 56.5179 68.4389 63.7369 64.004 68.1719C62.4892 69.6866 61.6537 71.7007 61.6537 73.8391C61.6537 75.9776 62.4892 77.9917 64.004 79.5064C64.6613 80.1637 64.6613 81.2263 64.004 81.8836C63.6761 82.2131 63.2457 82.3779 62.8154 82.3779C62.385 82.3779 61.9546 82.2131 61.6268 81.8853C59.4765 79.7351 58.2913 76.877 58.2913 73.8408C58.2913 70.8046 59.4765 67.9466 61.6268 65.7964C64.7504 62.6711 64.7504 57.5855 61.6268 54.4602C60.9694 53.8028 60.9694 52.7403 61.6268 52.083C62.2841 51.4256 63.3483 51.4256 64.004 52.0813ZM84.0705 39.4069C83.4081 39.5212 82.7491 39.58 82.0985 39.58C76.6784 39.58 71.8652 35.6847 70.8951 30.1671C70.5236 28.0572 69.3552 26.218 67.6034 24.9891C65.8499 23.7618 63.7249 23.2844 61.6133 23.6609C60.6971 23.8122 59.8262 23.2087 59.6665 22.2941C59.5051 21.3796 60.1171 20.507 61.0316 20.3473C64.0292 19.8245 67.0469 20.4936 69.5334 22.237C72.0198 23.9804 73.6791 26.5912 74.2054 29.5854C74.9686 33.938 79.1363 36.8633 83.4872 36.0933C84.4068 35.9336 85.2743 36.5455 85.434 37.4601C85.597 38.3746 84.9851 39.2472 84.0705 39.4069Z" fill="#F25C3A"/>
</svg>
