<svg width="100" height="100" viewBox="0 0 100 100" fill="none" xmlns="http://www.w3.org/2000/svg">
<g clip-path="url(#clip0_52_302)">
<path d="M73.922 70.7857C73.922 70.7857 73.8605 70.8505 73.7487 70.959C67.3288 68.3894 60.1641 70.2757 54.5603 65.2482C48.8965 60.169 44.6203 52.1996 39.9329 46.1699C34.7759 39.5314 29.4587 33.0192 24.054 26.5831C20.2085 22.0074 16.682 16.7111 11.7485 13.2429C11.0506 11.8731 10.4192 11.3048 9.2987 12.1128C8.78058 12.2293 8.38065 12.6438 8.21388 13.149C7.57755 13.8695 6.81979 14.8831 5.88069 16.2529C-0.505217 25.5873 -1.48804 33.6927 1.95103 43.0287C5.39009 52.3631 4.65338 85.2787 4.65338 85.2787C4.65338 85.2787 6.12842 87.2427 7.60184 86.2599C9.07688 85.2787 5.63782 54.081 8.34017 50.3958C8.34017 50.3958 19.8847 44.0083 29.7113 65.8716C39.5378 87.7333 44.2042 88.2239 51.0823 88.2239C57.9621 88.2239 78.1042 88.7161 92.8417 86.0122C107.578 83.3114 98.7338 77.9083 73.922 70.7857ZM51.5713 74.4693C42.7276 64.1521 21.3565 28.5341 15.9534 21.1654C15.8546 21.0326 15.7639 20.8982 15.6717 20.7655C18.5699 24.0167 21.1508 27.6906 23.7706 30.809C30.2893 38.5696 36.5716 46.5293 42.7259 54.5797C46.3739 59.3513 49.5182 64.6783 54.0162 68.7116C58.9627 73.1497 65.4328 71.4269 71.2326 73.1691C66.8382 76.6486 57.9799 81.9481 51.5713 74.4693Z" fill="#F25C3A"/>
</g>
<defs>
<clipPath id="clip0_52_302">
<rect width="100" height="100" fill="white"/>
</clipPath>
</defs>
</svg>
