<svg width="403" height="30" viewBox="0 0 403 30" fill="none" xmlns="http://www.w3.org/2000/svg">
<path fill-rule="evenodd" clip-rule="evenodd" d="M7 0H403V30H7V0Z" fill="#503655"/>
<path fill-rule="evenodd" clip-rule="evenodd" d="M0 15L7 8L7 22L0 15Z" fill="#503655"/>
<path d="M30.528 20.536C30.208 20.7813 29.8027 20.952 29.312 21.048C28.8213 21.144 28.2987 21.192 27.744 21.192C27.072 21.192 26.4427 21.08 25.856 20.856C25.2693 20.6213 24.7573 20.2693 24.32 19.8C23.8827 19.3307 23.536 18.7333 23.28 18.008C23.024 17.272 22.896 16.4027 22.896 15.4C22.896 14.3547 23.0347 13.4693 23.312 12.744C23.6 12.008 23.9733 11.4107 24.432 10.952C24.9013 10.4827 25.424 10.1413 26 9.928C26.576 9.71467 27.1627 9.608 27.76 9.608C28.4 9.608 28.9227 9.64533 29.328 9.72C29.7333 9.784 30.08 9.87467 30.368 9.992L30.048 11.16C29.536 10.9147 28.8053 10.792 27.856 10.792C27.4187 10.792 26.9867 10.872 26.56 11.032C26.1333 11.192 25.7493 11.4533 25.408 11.816C25.0773 12.1787 24.8107 12.6533 24.608 13.24C24.4053 13.8267 24.304 14.5467 24.304 15.4C24.304 16.168 24.4 16.84 24.592 17.416C24.784 17.992 25.0453 18.472 25.376 18.856C25.7173 19.24 26.112 19.528 26.56 19.72C27.0187 19.912 27.5147 20.008 28.048 20.008C28.528 20.008 28.944 19.96 29.296 19.864C29.6587 19.768 29.9627 19.6453 30.208 19.496L30.528 20.536ZM36.4936 19.816H38.7336V12.072L38.8936 11.128L38.2536 11.88L36.4936 13.144L35.8856 12.328L39.4056 9.608H39.9816V19.816H42.1736V21H36.4936V19.816ZM53.798 14.12H50.262V21H48.982V13H55.078V21H53.798V14.12ZM57.4165 13.592C57.8218 13.3467 58.2912 13.1653 58.8245 13.048C59.3685 12.9307 59.9338 12.872 60.5205 12.872C61.0752 12.872 61.5178 12.9467 61.8485 13.096C62.1898 13.2453 62.4458 13.4427 62.6165 13.688C62.7978 13.9227 62.9152 14.184 62.9685 14.472C63.0325 14.76 63.0645 15.048 63.0645 15.336C63.0645 15.976 63.0485 16.6 63.0165 17.208C62.9845 17.816 62.9685 18.392 62.9685 18.936C62.9685 19.3307 62.9845 19.704 63.0165 20.056C63.0485 20.408 63.1072 20.7333 63.1925 21.032H62.2485L61.9125 19.912H61.8325C61.7365 20.0613 61.6138 20.2107 61.4645 20.36C61.3258 20.4987 61.1552 20.6267 60.9525 20.744C60.7498 20.8507 60.5152 20.9413 60.2485 21.016C59.9818 21.0907 59.6778 21.128 59.3365 21.128C58.9952 21.128 58.6752 21.0747 58.3765 20.968C58.0885 20.8613 57.8378 20.712 57.6245 20.52C57.4112 20.3173 57.2405 20.0773 57.1125 19.8C56.9952 19.5227 56.9365 19.208 56.9365 18.856C56.9365 18.3867 57.0325 17.9973 57.2245 17.688C57.4165 17.368 57.6832 17.1173 58.0245 16.936C58.3765 16.744 58.7925 16.6107 59.2725 16.536C59.7632 16.4507 60.3018 16.408 60.8885 16.408C61.0378 16.408 61.1818 16.408 61.3205 16.408C61.4698 16.408 61.6192 16.4187 61.7685 16.44C61.8005 16.12 61.8165 15.832 61.8165 15.576C61.8165 14.9893 61.6992 14.5787 61.4645 14.344C61.2298 14.1093 60.8032 13.992 60.1845 13.992C60.0032 13.992 59.8058 14.008 59.5925 14.04C59.3898 14.0613 59.1765 14.0987 58.9525 14.152C58.7392 14.1947 58.5312 14.2533 58.3285 14.328C58.1365 14.392 57.9658 14.4667 57.8165 14.552L57.4165 13.592ZM59.6885 20.008C59.9872 20.008 60.2538 19.9707 60.4885 19.896C60.7232 19.8107 60.9258 19.7093 61.0965 19.592C61.2672 19.464 61.4058 19.3253 61.5125 19.176C61.6298 19.0267 61.7152 18.8827 61.7685 18.744V17.416C61.6192 17.4053 61.4645 17.4 61.3045 17.4C61.1552 17.3893 61.0058 17.384 60.8565 17.384C60.5258 17.384 60.2005 17.4053 59.8805 17.448C59.5712 17.48 59.2938 17.5493 59.0485 17.656C58.8138 17.752 58.6218 17.8907 58.4725 18.072C58.3338 18.2427 58.2645 18.4613 58.2645 18.728C58.2645 19.1013 58.3978 19.4107 58.6645 19.656C58.9312 19.8907 59.2725 20.008 59.6885 20.008ZM66.218 14.424C66.57 13.912 66.9593 13.5547 67.386 13.352C67.8127 13.1387 68.346 13.032 68.986 13.032C69.9673 13.032 70.7193 13.352 71.242 13.992C71.7753 14.632 72.042 15.576 72.042 16.824C72.042 18.264 71.7327 19.352 71.114 20.088C70.506 20.824 69.6527 21.192 68.554 21.192C67.3807 21.192 66.5007 20.7867 65.914 19.976C65.3273 19.1653 65.034 17.8907 65.034 16.152C65.034 15.2347 65.0767 14.4507 65.162 13.8C65.258 13.1493 65.3913 12.6 65.562 12.152C65.7433 11.704 65.9567 11.3467 66.202 11.08C66.458 10.8133 66.7407 10.6053 67.05 10.456C67.37 10.296 67.7167 10.184 68.09 10.12C68.4633 10.056 68.8633 10.0027 69.29 9.96C69.8447 9.90667 70.2767 9.848 70.586 9.784C70.906 9.70933 71.162 9.58133 71.354 9.4L71.498 10.552C71.3913 10.648 71.274 10.728 71.146 10.792C71.018 10.856 70.8633 10.9093 70.682 10.952C70.5007 10.9947 70.282 11.032 70.026 11.064C69.7807 11.096 69.4927 11.1227 69.162 11.144C68.7033 11.176 68.298 11.2347 67.946 11.32C67.6047 11.3947 67.306 11.5493 67.05 11.784C66.8047 12.008 66.6073 12.3333 66.458 12.76C66.3193 13.176 66.2233 13.7307 66.17 14.424H66.218ZM66.362 17.016C66.362 17.4213 66.4047 17.8107 66.49 18.184C66.5753 18.5573 66.7033 18.888 66.874 19.176C67.0553 19.4533 67.2847 19.672 67.562 19.832C67.8393 19.992 68.1647 20.072 68.538 20.072C69.274 20.072 69.818 19.8107 70.17 19.288C70.5327 18.7547 70.714 17.9707 70.714 16.936C70.714 16.5307 70.6767 16.1573 70.602 15.816C70.5273 15.4747 70.41 15.1813 70.25 14.936C70.09 14.68 69.8873 14.488 69.642 14.36C69.3967 14.2213 69.1033 14.152 68.762 14.152C67.93 14.1413 67.322 14.3867 66.938 14.888C66.554 15.3787 66.362 16.088 66.362 17.016ZM78.2704 14.12H75.9504C75.9184 14.568 75.8864 15.0533 75.8544 15.576C75.8224 16.088 75.7744 16.6053 75.7104 17.128C75.6464 17.64 75.561 18.136 75.4544 18.616C75.3477 19.0853 75.209 19.5013 75.0384 19.864C74.8784 20.2267 74.6757 20.52 74.4304 20.744C74.1957 20.9573 73.913 21.064 73.5824 21.064C73.3797 21.064 73.2037 21.0533 73.0544 21.032C72.905 21.0107 72.7717 20.9733 72.6544 20.92L72.8464 19.848C72.9744 19.8907 73.113 19.912 73.2624 19.912C73.4757 19.912 73.6677 19.8213 73.8384 19.64C74.009 19.4587 74.1584 19.1173 74.2864 18.616C74.4144 18.104 74.521 17.4 74.6064 16.504C74.6917 15.608 74.7504 14.44 74.7824 13H79.5504V21H78.2704V14.12ZM87.0053 16.264L87.0533 15.272H87.0053L86.3493 16.296L82.7493 21H82.0133V13H83.2933V17.88L83.2453 18.824H83.3093L83.9333 17.832L87.5333 13H88.2853V21H87.0053V16.264ZM92.7636 17.4H92.0276V21H90.7476V13H92.0276V16.616L92.7156 16.392L95.2756 13H96.6676L94.1876 16.216L93.5156 16.744L94.3476 17.384L97.0196 21H95.4356L92.7636 17.4ZM98.2603 13.592C98.6656 13.3467 99.1349 13.1653 99.6683 13.048C100.212 12.9307 100.778 12.872 101.364 12.872C101.919 12.872 102.362 12.9467 102.692 13.096C103.034 13.2453 103.29 13.4427 103.46 13.688C103.642 13.9227 103.759 14.184 103.812 14.472C103.876 14.76 103.908 15.048 103.908 15.336C103.908 15.976 103.892 16.6 103.86 17.208C103.828 17.816 103.812 18.392 103.812 18.936C103.812 19.3307 103.828 19.704 103.86 20.056C103.892 20.408 103.951 20.7333 104.036 21.032H103.092L102.756 19.912H102.676C102.58 20.0613 102.458 20.2107 102.308 20.36C102.17 20.4987 101.999 20.6267 101.796 20.744C101.594 20.8507 101.359 20.9413 101.092 21.016C100.826 21.0907 100.522 21.128 100.18 21.128C99.8389 21.128 99.5189 21.0747 99.2203 20.968C98.9323 20.8613 98.6816 20.712 98.4683 20.52C98.2549 20.3173 98.0843 20.0773 97.9563 19.8C97.8389 19.5227 97.7803 19.208 97.7803 18.856C97.7803 18.3867 97.8763 17.9973 98.0683 17.688C98.2603 17.368 98.5269 17.1173 98.8683 16.936C99.2203 16.744 99.6363 16.6107 100.116 16.536C100.607 16.4507 101.146 16.408 101.732 16.408C101.882 16.408 102.026 16.408 102.164 16.408C102.314 16.408 102.463 16.4187 102.612 16.44C102.644 16.12 102.66 15.832 102.66 15.576C102.66 14.9893 102.543 14.5787 102.308 14.344C102.074 14.1093 101.647 13.992 101.028 13.992C100.847 13.992 100.65 14.008 100.436 14.04C100.234 14.0613 100.02 14.0987 99.7963 14.152C99.5829 14.1947 99.3749 14.2533 99.1723 14.328C98.9803 14.392 98.8096 14.4667 98.6603 14.552L98.2603 13.592ZM100.532 20.008C100.831 20.008 101.098 19.9707 101.332 19.896C101.567 19.8107 101.77 19.7093 101.94 19.592C102.111 19.464 102.25 19.3253 102.356 19.176C102.474 19.0267 102.559 18.8827 102.612 18.744V17.416C102.463 17.4053 102.308 17.4 102.148 17.4C101.999 17.3893 101.85 17.384 101.7 17.384C101.37 17.384 101.044 17.4053 100.724 17.448C100.415 17.48 100.138 17.5493 99.8923 17.656C99.6576 17.752 99.4656 17.8907 99.3163 18.072C99.1776 18.2427 99.1083 18.4613 99.1083 18.728C99.1083 19.1013 99.2416 19.4107 99.5082 19.656C99.7749 19.8907 100.116 20.008 100.532 20.008ZM110.591 13.016C110.965 12.9947 111.354 12.968 111.759 12.936C112.175 12.904 112.687 12.888 113.295 12.888C114.351 12.888 115.109 13.0533 115.567 13.384C116.026 13.704 116.255 14.1947 116.255 14.856C116.255 15.2293 116.143 15.5973 115.919 15.96C115.706 16.312 115.349 16.5733 114.847 16.744V16.808C115.477 16.9253 115.919 17.144 116.175 17.464C116.431 17.784 116.559 18.2107 116.559 18.744C116.559 19.576 116.261 20.1787 115.663 20.552C115.066 20.9253 114.17 21.112 112.975 21.112C112.527 21.112 112.111 21.096 111.727 21.064C111.343 21.0427 110.965 21.016 110.591 20.984V13.016ZM111.871 19.928C112.074 19.9493 112.271 19.9653 112.463 19.976C112.666 19.9867 112.901 19.992 113.167 19.992C113.882 19.992 114.41 19.8907 114.751 19.688C115.103 19.4853 115.279 19.1387 115.279 18.648C115.279 18.264 115.13 17.9547 114.831 17.72C114.543 17.4747 114.026 17.352 113.279 17.352H111.871V19.928ZM113.439 16.376C113.631 16.376 113.818 16.344 113.999 16.28C114.181 16.216 114.341 16.1307 114.479 16.024C114.629 15.9067 114.746 15.7733 114.831 15.624C114.927 15.4747 114.975 15.3147 114.975 15.144C114.975 14.7173 114.847 14.424 114.591 14.264C114.335 14.0933 113.887 14.008 113.247 14.008C112.906 14.008 112.634 14.0133 112.431 14.024C112.239 14.0347 112.053 14.0453 111.871 14.056V16.376H113.439ZM119.856 19.88C120.25 19.944 120.629 19.976 120.992 19.976C121.664 19.976 122.133 19.848 122.4 19.592C122.666 19.3253 122.8 18.952 122.8 18.472C122.8 18.0453 122.666 17.6933 122.4 17.416C122.144 17.1387 121.69 17 121.04 17C120.858 17 120.661 17.0053 120.448 17.016C120.234 17.0267 120.037 17.0587 119.856 17.112V19.88ZM119.856 16.056C120.112 16.0133 120.357 15.9867 120.592 15.976C120.826 15.9547 121.05 15.944 121.264 15.944C121.808 15.944 122.261 16.008 122.624 16.136C122.997 16.2533 123.296 16.4187 123.52 16.632C123.744 16.8453 123.898 17.1013 123.984 17.4C124.08 17.688 124.128 17.9973 124.128 18.328C124.128 19.2987 123.856 20.0027 123.312 20.44C122.778 20.8773 121.909 21.096 120.704 21.096C120.021 21.096 119.312 21.064 118.576 21V13H119.856V16.056ZM125.392 13H126.672V21H125.392V13ZM129.138 13H130.018L130.258 13.96H130.322C130.568 13.5867 130.882 13.304 131.266 13.112C131.661 12.9093 132.109 12.808 132.61 12.808C133.677 12.808 134.472 13.1227 134.994 13.752C135.517 14.3813 135.778 15.4107 135.778 16.84C135.778 17.512 135.688 18.12 135.506 18.664C135.336 19.1973 135.09 19.6507 134.77 20.024C134.45 20.3973 134.061 20.6853 133.602 20.888C133.154 21.0907 132.653 21.192 132.098 21.192C131.704 21.192 131.389 21.1653 131.154 21.112C130.93 21.0693 130.685 20.9893 130.418 20.872V24.2H129.138V13ZM132.37 13.928C131.826 13.928 131.394 14.072 131.074 14.36C130.765 14.6373 130.546 15.064 130.418 15.64V19.608C130.61 19.7573 130.829 19.8747 131.074 19.96C131.32 20.0347 131.645 20.072 132.05 20.072C132.786 20.072 133.368 19.8 133.794 19.256C134.232 18.7013 134.45 17.8907 134.45 16.824C134.45 16.3867 134.413 15.992 134.338 15.64C134.264 15.2773 134.141 14.9733 133.97 14.728C133.81 14.472 133.597 14.2747 133.33 14.136C133.074 13.9973 132.754 13.928 132.37 13.928ZM137.347 17C137.347 15.6453 137.645 14.6107 138.243 13.896C138.851 13.1707 139.72 12.808 140.851 12.808C141.448 12.808 141.965 12.9093 142.403 13.112C142.851 13.304 143.219 13.5867 143.507 13.96C143.795 14.3227 144.008 14.7653 144.147 15.288C144.285 15.8 144.355 16.3707 144.355 17C144.355 18.3547 144.051 19.3947 143.443 20.12C142.845 20.8347 141.981 21.192 140.851 21.192C140.253 21.192 139.731 21.096 139.283 20.904C138.845 20.7013 138.483 20.4187 138.195 20.056C137.907 19.6827 137.693 19.24 137.555 18.728C137.416 18.2053 137.347 17.6293 137.347 17ZM138.674 17C138.674 17.4053 138.712 17.7947 138.787 18.168C138.872 18.5413 139 18.8667 139.171 19.144C139.341 19.4213 139.565 19.6453 139.843 19.816C140.12 19.9867 140.456 20.072 140.851 20.072C142.301 20.0827 143.027 19.0587 143.027 17C143.027 16.584 142.984 16.1893 142.899 15.816C142.824 15.4427 142.701 15.1173 142.531 14.84C142.36 14.5627 142.136 14.344 141.859 14.184C141.581 14.0133 141.245 13.928 140.851 13.928C139.4 13.9173 138.674 14.9413 138.674 17ZM151.829 20.472C151.509 20.7067 151.13 20.8827 150.693 21C150.255 21.128 149.797 21.192 149.317 21.192C148.698 21.192 148.175 21.096 147.749 20.904C147.322 20.7013 146.97 20.4187 146.693 20.056C146.426 19.6827 146.229 19.24 146.101 18.728C145.983 18.2053 145.925 17.6293 145.925 17C145.925 15.6453 146.223 14.6107 146.821 13.896C147.418 13.1707 148.277 12.808 149.397 12.808C149.909 12.808 150.341 12.8507 150.693 12.936C151.055 13.0107 151.381 13.1227 151.669 13.272L151.301 14.376C151.055 14.2373 150.783 14.1307 150.485 14.056C150.186 13.9707 149.866 13.928 149.525 13.928C148.01 13.928 147.253 14.952 147.253 17C147.253 17.4053 147.29 17.7947 147.365 18.168C147.45 18.5307 147.583 18.856 147.765 19.144C147.957 19.4213 148.202 19.6453 148.501 19.816C148.81 19.9867 149.189 20.072 149.637 20.072C150.021 20.072 150.362 20.0133 150.661 19.896C150.97 19.7787 151.221 19.6453 151.413 19.496L151.829 20.472ZM157.88 14.12H155.56C155.528 14.568 155.496 15.0533 155.464 15.576C155.432 16.088 155.384 16.6053 155.32 17.128C155.256 17.64 155.17 18.136 155.064 18.616C154.957 19.0853 154.818 19.5013 154.648 19.864C154.488 20.2267 154.285 20.52 154.04 20.744C153.805 20.9573 153.522 21.064 153.192 21.064C152.989 21.064 152.813 21.0533 152.664 21.032C152.514 21.0107 152.381 20.9733 152.264 20.92L152.456 19.848C152.584 19.8907 152.722 19.912 152.872 19.912C153.085 19.912 153.277 19.8213 153.448 19.64C153.618 19.4587 153.768 19.1173 153.896 18.616C154.024 18.104 154.13 17.4 154.216 16.504C154.301 15.608 154.36 14.44 154.392 13H159.16V21H157.88V14.12ZM166.615 16.264L166.663 15.272H166.615L165.959 16.296L162.359 21H161.623V13H162.903V17.88L162.855 18.824H162.919L163.543 17.832L167.143 13H167.895V21H166.615V16.264ZM181.695 23.032H180.831L180.591 21H174.575L174.335 23.032H173.471V19.88H174.415C174.5 19.7627 174.612 19.5547 174.751 19.256C174.889 18.9467 175.023 18.52 175.151 17.976C175.289 17.4213 175.407 16.7387 175.503 15.928C175.609 15.1067 175.673 14.1307 175.695 13H180.527V19.88H181.695V23.032ZM179.247 19.88V14.12H176.847C176.825 14.568 176.788 15.0587 176.735 15.592C176.681 16.1147 176.607 16.6427 176.511 17.176C176.425 17.6987 176.313 18.1947 176.175 18.664C176.036 19.1333 175.876 19.5387 175.695 19.88H179.247ZM182.831 17C182.831 15.6453 183.13 14.6107 183.727 13.896C184.335 13.1707 185.204 12.808 186.335 12.808C186.932 12.808 187.45 12.9093 187.887 13.112C188.335 13.304 188.703 13.5867 188.991 13.96C189.279 14.3227 189.492 14.7653 189.631 15.288C189.77 15.8 189.839 16.3707 189.839 17C189.839 18.3547 189.535 19.3947 188.927 20.12C188.33 20.8347 187.466 21.192 186.335 21.192C185.738 21.192 185.215 21.096 184.767 20.904C184.33 20.7013 183.967 20.4187 183.679 20.056C183.391 19.6827 183.178 19.24 183.039 18.728C182.9 18.2053 182.831 17.6293 182.831 17ZM184.159 17C184.159 17.4053 184.196 17.7947 184.271 18.168C184.356 18.5413 184.484 18.8667 184.655 19.144C184.826 19.4213 185.05 19.6453 185.327 19.816C185.604 19.9867 185.94 20.072 186.335 20.072C187.786 20.0827 188.511 19.0587 188.511 17C188.511 16.584 188.468 16.1893 188.383 15.816C188.308 15.4427 188.186 15.1173 188.015 14.84C187.844 14.5627 187.62 14.344 187.343 14.184C187.066 14.0133 186.73 13.928 186.335 13.928C184.884 13.9173 184.159 14.9413 184.159 17ZM201.579 20.472C201.259 20.7067 200.88 20.8827 200.443 21C200.005 21.128 199.547 21.192 199.067 21.192C198.448 21.192 197.925 21.096 197.499 20.904C197.072 20.7013 196.72 20.4187 196.443 20.056C196.176 19.6827 195.979 19.24 195.851 18.728C195.733 18.2053 195.675 17.6293 195.675 17C195.675 15.6453 195.973 14.6107 196.571 13.896C197.168 13.1707 198.027 12.808 199.147 12.808C199.659 12.808 200.091 12.8507 200.443 12.936C200.805 13.0107 201.131 13.1227 201.419 13.272L201.051 14.376C200.805 14.2373 200.533 14.1307 200.235 14.056C199.936 13.9707 199.616 13.928 199.275 13.928C197.76 13.928 197.003 14.952 197.003 17C197.003 17.4053 197.04 17.7947 197.115 18.168C197.2 18.5307 197.333 18.856 197.515 19.144C197.707 19.4213 197.952 19.6453 198.251 19.816C198.56 19.9867 198.939 20.072 199.387 20.072C199.771 20.072 200.112 20.0133 200.411 19.896C200.72 19.7787 200.971 19.6453 201.163 19.496L201.579 20.472ZM208.806 20.36C208.486 20.616 208.081 20.8187 207.59 20.968C207.11 21.1173 206.598 21.192 206.054 21.192C205.446 21.192 204.918 21.096 204.47 20.904C204.022 20.7013 203.654 20.4187 203.366 20.056C203.078 19.6827 202.865 19.24 202.726 18.728C202.588 18.216 202.518 17.64 202.518 17C202.518 15.6347 202.822 14.5947 203.43 13.88C204.038 13.1653 204.908 12.808 206.038 12.808C206.401 12.808 206.764 12.8507 207.126 12.936C207.489 13.0107 207.814 13.16 208.102 13.384C208.39 13.608 208.625 13.928 208.806 14.344C208.988 14.7493 209.078 15.288 209.078 15.96C209.078 16.312 209.046 16.7013 208.982 17.128H203.846C203.846 17.5973 203.894 18.0133 203.99 18.376C204.086 18.7387 204.236 19.048 204.438 19.304C204.641 19.5493 204.902 19.7413 205.222 19.88C205.553 20.008 205.953 20.072 206.422 20.072C206.785 20.072 207.148 20.008 207.51 19.88C207.873 19.752 208.145 19.6027 208.326 19.432L208.806 20.36ZM206.054 13.928C205.425 13.928 204.918 14.0933 204.534 14.424C204.161 14.7547 203.937 15.32 203.862 16.12H207.83C207.83 15.3093 207.676 14.744 207.366 14.424C207.057 14.0933 206.62 13.928 206.054 13.928ZM216.195 14.12H213.683V21H212.403V14.12H209.891V13H216.195V14.12ZM219.482 17.4H218.746V21H217.466V13H218.746V16.616L219.434 16.392L221.994 13H223.386L220.906 16.216L220.234 16.744L221.066 17.384L223.738 21H222.154L219.482 17.4ZM230.099 16.264L230.147 15.272H230.099L229.443 16.296L225.843 21H225.107V13H226.387V17.88L226.339 18.824H226.403L227.027 17.832L230.627 13H231.379V21H230.099V16.264ZM243.099 16.264L243.147 15.272H243.099L242.443 16.296L238.843 21H238.107V13H239.387V17.88L239.339 18.824H239.403L240.027 17.832L243.627 13H244.379V21H243.099V16.264ZM247.609 17.432V16.392H248.729C248.921 16.392 249.108 16.36 249.289 16.296C249.481 16.232 249.652 16.1467 249.801 16.04C249.951 15.9227 250.068 15.7893 250.153 15.64C250.249 15.48 250.297 15.3147 250.297 15.144C250.297 14.728 250.153 14.4347 249.865 14.264C249.577 14.0933 249.145 14.008 248.569 14.008C248.153 14.008 247.769 14.072 247.417 14.2C247.076 14.328 246.809 14.4507 246.617 14.568L246.249 13.576C246.569 13.3947 246.943 13.2347 247.369 13.096C247.807 12.9573 248.324 12.888 248.921 12.888C250.692 12.888 251.577 13.544 251.577 14.856C251.577 15.2293 251.455 15.5973 251.209 15.96C250.975 16.312 250.633 16.5627 250.185 16.712V16.776C250.815 16.8933 251.252 17.1173 251.497 17.448C251.753 17.7787 251.881 18.216 251.881 18.76C251.881 19.1013 251.812 19.416 251.673 19.704C251.535 19.992 251.327 20.2427 251.049 20.456C250.772 20.6693 250.42 20.84 249.993 20.968C249.577 21.0853 249.092 21.144 248.537 21.144C247.993 21.144 247.54 21.096 247.177 21C246.825 20.904 246.505 20.7867 246.217 20.648L246.585 19.592C246.831 19.7307 247.124 19.8373 247.465 19.912C247.817 19.9867 248.196 20.024 248.601 20.024C249.252 20.024 249.748 19.912 250.089 19.688C250.431 19.464 250.601 19.1227 250.601 18.664C250.601 18.28 250.441 17.9813 250.121 17.768C249.801 17.544 249.273 17.432 248.537 17.432H247.609ZM260.458 19.384C261.162 19.384 261.7 19.2133 262.074 18.872C262.447 18.5307 262.634 18.0613 262.634 17.464C262.634 16.824 262.415 16.3547 261.978 16.056C261.54 15.7573 260.916 15.608 260.106 15.608L258.842 15.656V9.8H264.346V11.752H260.634V13.912L261.29 13.848C261.812 13.8693 262.282 13.9653 262.698 14.136C263.124 14.3067 263.487 14.5467 263.786 14.856C264.084 15.1547 264.314 15.5227 264.474 15.96C264.634 16.3867 264.714 16.8667 264.714 17.4C264.714 18.0293 264.607 18.584 264.394 19.064C264.18 19.544 263.882 19.944 263.498 20.264C263.124 20.584 262.682 20.824 262.17 20.984C261.658 21.144 261.098 21.224 260.49 21.224C260.01 21.224 259.551 21.1813 259.114 21.096C258.687 21.0213 258.324 20.9147 258.026 20.776L258.586 19.048C258.831 19.1547 259.098 19.24 259.386 19.304C259.684 19.3573 260.042 19.384 260.458 19.384ZM266.656 15.384C266.656 13.4213 266.992 11.9653 267.664 11.016C268.336 10.056 269.301 9.576 270.56 9.576C271.904 9.576 272.89 10.0507 273.52 11C274.149 11.9387 274.464 13.4 274.464 15.384C274.464 17.3573 274.122 18.824 273.44 19.784C272.768 20.744 271.802 21.224 270.544 21.224C269.21 21.224 268.229 20.7227 267.6 19.72C266.97 18.7067 266.656 17.2613 266.656 15.384ZM268.736 15.384C268.736 16.6853 268.874 17.6933 269.152 18.408C269.44 19.112 269.909 19.464 270.56 19.464C271.189 19.464 271.648 19.1387 271.936 18.488C272.234 17.8373 272.384 16.8027 272.384 15.384C272.384 14.0933 272.245 13.096 271.968 12.392C271.69 11.688 271.216 11.336 270.544 11.336C269.904 11.336 269.44 11.6667 269.152 12.328C268.874 12.9893 268.736 14.008 268.736 15.384ZM285.717 20.504C285.397 20.7387 285.007 20.9147 284.549 21.032C284.101 21.16 283.637 21.224 283.157 21.224C282.517 21.224 281.973 21.1227 281.525 20.92C281.087 20.7173 280.73 20.4347 280.453 20.072C280.175 19.6987 279.973 19.2507 279.845 18.728C279.727 18.2053 279.669 17.6293 279.669 17C279.669 15.6453 279.973 14.6053 280.581 13.88C281.189 13.144 282.074 12.776 283.237 12.776C283.823 12.776 284.293 12.824 284.645 12.92C285.007 13.016 285.333 13.1387 285.621 13.288L285.125 14.984C284.879 14.8667 284.634 14.776 284.389 14.712C284.154 14.648 283.882 14.616 283.573 14.616C282.997 14.616 282.559 14.808 282.261 15.192C281.962 15.5653 281.813 16.168 281.813 17C281.813 17.3413 281.85 17.656 281.925 17.944C281.999 18.232 282.111 18.4827 282.261 18.696C282.41 18.9093 282.602 19.08 282.837 19.208C283.082 19.3253 283.365 19.384 283.685 19.384C284.037 19.384 284.335 19.3413 284.581 19.256C284.826 19.16 285.045 19.048 285.237 18.92L285.717 20.504ZM286.325 17C286.325 15.6453 286.656 14.6053 287.317 13.88C287.978 13.144 288.906 12.776 290.101 12.776C290.741 12.776 291.296 12.8773 291.765 13.08C292.234 13.2827 292.624 13.5707 292.933 13.944C293.242 14.3067 293.472 14.7493 293.621 15.272C293.781 15.7947 293.861 16.3707 293.861 17C293.861 18.3547 293.53 19.4 292.869 20.136C292.218 20.8613 291.296 21.224 290.101 21.224C289.461 21.224 288.906 21.1227 288.437 20.92C287.968 20.7173 287.573 20.4347 287.253 20.072C286.944 19.6987 286.709 19.2507 286.549 18.728C286.4 18.2053 286.325 17.6293 286.325 17ZM288.469 17C288.469 17.352 288.501 17.6773 288.565 17.976C288.629 18.2747 288.725 18.536 288.853 18.76C288.981 18.984 289.146 19.16 289.349 19.288C289.562 19.4053 289.813 19.464 290.101 19.464C290.645 19.464 291.05 19.2667 291.317 18.872C291.584 18.4773 291.717 17.8533 291.717 17C291.717 16.264 291.594 15.672 291.349 15.224C291.104 14.7653 290.688 14.536 290.101 14.536C289.589 14.536 289.189 14.728 288.901 15.112C288.613 15.496 288.469 16.1253 288.469 17ZM294.919 17C294.919 15.6453 295.249 14.6053 295.911 13.88C296.572 13.144 297.5 12.776 298.695 12.776C299.335 12.776 299.889 12.8773 300.359 13.08C300.828 13.2827 301.217 13.5707 301.527 13.944C301.836 14.3067 302.065 14.7493 302.215 15.272C302.375 15.7947 302.455 16.3707 302.455 17C302.455 18.3547 302.124 19.4 301.463 20.136C300.812 20.8613 299.889 21.224 298.695 21.224C298.055 21.224 297.5 21.1227 297.031 20.92C296.561 20.7173 296.167 20.4347 295.847 20.072C295.537 19.6987 295.303 19.2507 295.143 18.728C294.993 18.2053 294.919 17.6293 294.919 17ZM297.063 17C297.063 17.352 297.095 17.6773 297.159 17.976C297.223 18.2747 297.319 18.536 297.447 18.76C297.575 18.984 297.74 19.16 297.943 19.288C298.156 19.4053 298.407 19.464 298.695 19.464C299.239 19.464 299.644 19.2667 299.911 18.872C300.177 18.4773 300.311 17.8533 300.311 17C300.311 16.264 300.188 15.672 299.943 15.224C299.697 14.7653 299.281 14.536 298.695 14.536C298.183 14.536 297.783 14.728 297.495 15.112C297.207 15.496 297.063 16.1253 297.063 17ZM305.256 14.504C305.566 14.0347 305.928 13.6987 306.344 13.496C306.771 13.2827 307.283 13.176 307.88 13.176C308.851 13.176 309.619 13.4747 310.184 14.072C310.76 14.6587 311.048 15.576 311.048 16.824C311.048 18.264 310.723 19.3573 310.072 20.104C309.422 20.8507 308.504 21.224 307.32 21.224C306.083 21.224 305.139 20.8133 304.488 19.992C303.838 19.1707 303.512 17.8907 303.512 16.152C303.512 15.2347 303.566 14.4507 303.672 13.8C303.779 13.1493 303.928 12.6 304.12 12.152C304.323 11.704 304.558 11.3467 304.824 11.08C305.102 10.8133 305.406 10.6053 305.736 10.456C306.078 10.296 306.44 10.184 306.824 10.12C307.208 10.056 307.614 10.0027 308.04 9.96C308.595 9.90667 309.07 9.84267 309.464 9.768C309.859 9.68267 310.152 9.54933 310.344 9.368L310.424 11.224C310.211 11.4053 309.907 11.5333 309.512 11.608C309.118 11.672 308.584 11.7307 307.912 11.784C307.507 11.8053 307.15 11.8533 306.84 11.928C306.531 12.0027 306.264 12.136 306.04 12.328C305.816 12.52 305.635 12.792 305.496 13.144C305.368 13.4853 305.272 13.9387 305.208 14.504H305.256ZM305.656 17.096C305.656 17.7787 305.79 18.344 306.056 18.792C306.323 19.24 306.734 19.464 307.288 19.464C307.864 19.464 308.275 19.2613 308.52 18.856C308.776 18.4507 308.904 17.864 308.904 17.096C308.904 16.4027 308.787 15.8693 308.552 15.496C308.318 15.1227 307.928 14.936 307.384 14.936C306.798 14.936 306.36 15.128 306.072 15.512C305.795 15.896 305.656 16.424 305.656 17.096ZM323.882 22.824H322.378L322.138 21H312.49V13H314.57V19.16H316.57V13H318.65V19.16H320.65V13H322.73V19.16H323.882V22.824ZM331.421 20.312C331.101 20.568 330.664 20.7867 330.109 20.968C329.565 21.1387 328.984 21.224 328.365 21.224C327.075 21.224 326.131 20.8507 325.533 20.104C324.936 19.3467 324.637 18.312 324.637 17C324.637 15.592 324.973 14.536 325.645 13.832C326.317 13.128 327.261 12.776 328.477 12.776C328.883 12.776 329.277 12.8293 329.661 12.936C330.045 13.0427 330.387 13.2187 330.685 13.464C330.984 13.7093 331.224 14.04 331.405 14.456C331.587 14.872 331.677 15.3893 331.677 16.008C331.677 16.232 331.661 16.472 331.629 16.728C331.608 16.984 331.571 17.2507 331.517 17.528H326.717C326.749 18.2 326.92 18.7067 327.229 19.048C327.549 19.3893 328.061 19.56 328.765 19.56C329.203 19.56 329.592 19.496 329.933 19.368C330.285 19.2293 330.552 19.0907 330.733 18.952L331.421 20.312ZM328.445 14.44C327.901 14.44 327.496 14.6053 327.229 14.936C326.973 15.256 326.819 15.688 326.765 16.232H329.741C329.784 15.656 329.693 15.2133 329.469 14.904C329.256 14.5947 328.915 14.44 328.445 14.44ZM338.732 20.504C338.412 20.7387 338.023 20.9147 337.564 21.032C337.116 21.16 336.652 21.224 336.172 21.224C335.532 21.224 334.988 21.1227 334.54 20.92C334.103 20.7173 333.746 20.4347 333.468 20.072C333.191 19.6987 332.988 19.2507 332.86 18.728C332.743 18.2053 332.684 17.6293 332.684 17C332.684 15.6453 332.988 14.6053 333.596 13.88C334.204 13.144 335.09 12.776 336.252 12.776C336.839 12.776 337.308 12.824 337.66 12.92C338.023 13.016 338.348 13.1387 338.636 13.288L338.14 14.984C337.895 14.8667 337.65 14.776 337.404 14.712C337.17 14.648 336.898 14.616 336.588 14.616C336.012 14.616 335.575 14.808 335.276 15.192C334.978 15.5653 334.828 16.168 334.828 17C334.828 17.3413 334.866 17.656 334.94 17.944C335.015 18.232 335.127 18.4827 335.276 18.696C335.426 18.9093 335.618 19.08 335.852 19.208C336.098 19.3253 336.38 19.384 336.7 19.384C337.052 19.384 337.351 19.3413 337.596 19.256C337.842 19.16 338.06 19.048 338.252 18.92L338.732 20.504ZM345.672 14.84H343.416V21H341.272V14.84H339.016V13H345.672V14.84ZM346.6 13.016C346.973 12.984 347.421 12.952 347.944 12.92C348.477 12.888 349.048 12.872 349.656 12.872C350.829 12.872 351.661 13.0427 352.152 13.384C352.653 13.7147 352.904 14.216 352.904 14.888C352.904 15.2613 352.797 15.624 352.584 15.976C352.37 16.328 352.034 16.584 351.576 16.744V16.808C352.152 16.936 352.568 17.1653 352.824 17.496C353.08 17.816 353.208 18.232 353.208 18.744C353.208 19.544 352.898 20.1413 352.28 20.536C351.672 20.9307 350.69 21.128 349.336 21.128C348.888 21.128 348.413 21.112 347.912 21.08C347.41 21.0587 346.973 21.0267 346.6 20.984V13.016ZM348.632 19.4C348.781 19.4213 348.92 19.4373 349.048 19.448C349.176 19.4587 349.336 19.464 349.528 19.464C350.104 19.464 350.514 19.384 350.76 19.224C351.005 19.064 351.128 18.8187 351.128 18.488C351.128 18.2107 351.021 17.9867 350.808 17.816C350.605 17.6347 350.237 17.544 349.704 17.544H348.632V19.4ZM349.736 16.264C350.077 16.264 350.354 16.184 350.568 16.024C350.792 15.8533 350.904 15.64 350.904 15.384C350.904 15.1067 350.808 14.8987 350.616 14.76C350.434 14.6107 350.098 14.536 349.608 14.536C349.362 14.536 349.165 14.5413 349.016 14.552C348.877 14.5627 348.749 14.5733 348.632 14.584V16.264H349.736Z" fill="white"/>
</svg>
