<svg width="238" height="55" viewBox="0 0 238 55" fill="none" xmlns="http://www.w3.org/2000/svg">
<path fill-rule="evenodd" clip-rule="evenodd" d="M7 0H238V55H7V0Z" fill="#503655"/>
<path fill-rule="evenodd" clip-rule="evenodd" d="M0 15L7 8L7 22L0 15Z" fill="#503655"/>
<path d="M30.784 22L29.888 19.856H24.704L23.808 22H22.496L27.072 11.264H27.536L32.112 22H30.784ZM29.408 18.736L27.296 13.536L25.184 18.736H29.408ZM33.9694 22V14.208H39.2174V15.312H35.2014V22H33.9694ZM47.7705 15.2C48.5065 15.9787 48.8745 16.944 48.8745 18.096C48.8745 19.248 48.5012 20.2187 47.7545 21.008C47.0185 21.7867 46.1065 22.176 45.0185 22.176C43.7918 22.176 42.8372 21.744 42.1545 20.88V24.88H40.9225V14.208H42.0745V15.456C42.3732 15.008 42.7838 14.6613 43.3065 14.416C43.8292 14.16 44.3998 14.032 45.0185 14.032C46.1278 14.032 47.0452 14.4213 47.7705 15.2ZM46.8105 20.208C47.3438 19.6533 47.6105 18.9547 47.6105 18.112C47.6105 17.2693 47.3438 16.5707 46.8105 16.016C46.2878 15.4507 45.6318 15.168 44.8425 15.168C44.0958 15.168 43.4558 15.424 42.9225 15.936C42.3998 16.448 42.1385 17.168 42.1385 18.096C42.1385 19.0453 42.3945 19.776 42.9065 20.288C43.4292 20.7893 44.0745 21.04 44.8425 21.04C45.6318 21.04 46.2878 20.7627 46.8105 20.208ZM57.9119 18.48H51.7519C51.8265 19.248 52.1305 19.8667 52.6639 20.336C53.1972 20.8053 53.8479 21.04 54.6159 21.04C55.5012 21.04 56.2959 20.688 56.9999 19.984L57.7199 20.816C56.8452 21.7227 55.8052 22.176 54.5999 22.176C53.4372 22.176 52.4559 21.7867 51.6559 21.008C50.8665 20.2187 50.4719 19.2533 50.4719 18.112C50.4719 16.9813 50.8559 16.0213 51.6239 15.232C52.4025 14.432 53.3465 14.032 54.4559 14.032C55.4692 14.032 56.3119 14.3627 56.9839 15.024C57.6665 15.6853 58.0079 16.528 58.0079 17.552C58.0079 17.8507 57.9759 18.16 57.9119 18.48ZM51.7999 17.392H56.7439C56.7332 16.7093 56.5092 16.1653 56.0719 15.76C55.6345 15.3547 55.0852 15.152 54.4239 15.152C53.7732 15.152 53.2079 15.36 52.7279 15.776C52.2479 16.1813 51.9385 16.72 51.7999 17.392ZM60.1725 22V14.208H65.4205V15.312H61.4045V22H60.1725ZM72.8094 17.2V22H71.6574V20.992C71.06 21.7813 70.1854 22.176 69.0334 22.176C68.2227 22.176 67.5667 21.9787 67.0654 21.584C66.564 21.1787 66.3134 20.6453 66.3134 19.984C66.3134 19.3227 66.5694 18.7947 67.0814 18.4C67.5934 18.0053 68.2707 17.808 69.1134 17.808H71.5774V17.136C71.5774 16.5067 71.4067 16.0213 71.0654 15.68C70.7347 15.3387 70.276 15.168 69.6894 15.168C68.8147 15.168 68.0574 15.584 67.4174 16.416L66.6014 15.744C67.2947 14.6027 68.3507 14.032 69.7694 14.032C70.708 14.032 71.4494 14.3093 71.9934 14.864C72.5374 15.408 72.8094 16.1867 72.8094 17.2ZM71.5774 19.008V18.816H69.2574C68.1374 18.816 67.5774 19.184 67.5774 19.92C67.5774 20.304 67.7267 20.608 68.0254 20.832C68.3347 21.0453 68.724 21.152 69.1934 21.152C69.844 21.152 70.404 20.944 70.8734 20.528C71.3427 20.112 71.5774 19.6053 71.5774 19.008ZM81.6625 24.256V22H75.4225V14.208H76.6545V20.912H80.3985V14.208H81.6305V20.912H82.8945V24.256H81.6625ZM90.8128 14.032H91.2608V22H90.0288V16.496L85.2768 22.176H84.8288V14.208H86.0608V19.728L90.8128 14.032ZM96.5454 14.208H99.6494V22H98.4174V19.152H96.9454L94.8014 22H93.3614L95.6334 18.992C95.0574 18.8213 94.604 18.5387 94.2734 18.144C93.9534 17.7387 93.7934 17.2587 93.7934 16.704C93.7934 15.9467 94.044 15.344 94.5454 14.896C95.0467 14.4373 95.7134 14.208 96.5454 14.208ZM98.4174 18.064V15.312H96.6254C96.1347 15.312 95.7507 15.4347 95.4734 15.68C95.196 15.9253 95.0574 16.2613 95.0574 16.688C95.0574 17.104 95.196 17.44 95.4734 17.696C95.7614 17.9413 96.1507 18.064 96.6414 18.064H98.4174ZM106.3 18.096C106.279 16.9867 106.673 16.0267 107.484 15.216C108.295 14.4053 109.26 14.0107 110.38 14.032C111.052 14.032 111.665 14.1813 112.22 14.48C112.775 14.7787 113.233 15.1947 113.596 15.728L112.716 16.432C112.097 15.5893 111.324 15.168 110.396 15.168C109.596 15.168 108.924 15.456 108.38 16.032C107.836 16.5973 107.564 17.2853 107.564 18.096C107.564 18.9173 107.836 19.616 108.38 20.192C108.924 20.7573 109.596 21.04 110.396 21.04C111.313 21.04 112.081 20.624 112.7 19.792L113.58 20.48C112.812 21.6107 111.745 22.176 110.38 22.176C109.249 22.176 108.284 21.7813 107.484 20.992C106.695 20.192 106.3 19.2267 106.3 18.096ZM114.956 18.096C114.935 16.9867 115.33 16.0267 116.14 15.216C116.962 14.4053 117.927 14.0107 119.036 14.032C120.156 14.0107 121.122 14.4053 121.932 15.216C122.743 16.0267 123.138 16.9867 123.116 18.096C123.138 19.1947 122.738 20.1547 121.916 20.976C121.095 21.7867 120.13 22.1813 119.02 22.16C117.911 22.1813 116.951 21.7867 116.14 20.976C115.33 20.1547 114.935 19.1947 114.956 18.096ZM121.852 18.112C121.852 17.28 121.58 16.5813 121.036 16.016C120.503 15.4507 119.836 15.168 119.036 15.168C118.236 15.168 117.564 15.4507 117.02 16.016C116.487 16.5707 116.22 17.2693 116.22 18.112C116.22 18.9333 116.487 19.6267 117.02 20.192C117.564 20.7467 118.231 21.024 119.02 21.024C119.81 21.024 120.476 20.7413 121.02 20.176C121.575 19.6107 121.852 18.9227 121.852 18.112ZM124.722 18.096C124.701 16.9867 125.095 16.0267 125.906 15.216C126.727 14.4053 127.693 14.0107 128.802 14.032C129.922 14.0107 130.887 14.4053 131.698 15.216C132.509 16.0267 132.903 16.9867 132.882 18.096C132.903 19.1947 132.503 20.1547 131.682 20.976C130.861 21.7867 129.895 22.1813 128.786 22.16C127.677 22.1813 126.717 21.7867 125.906 20.976C125.095 20.1547 124.701 19.1947 124.722 18.096ZM131.618 18.112C131.618 17.28 131.346 16.5813 130.802 16.016C130.269 15.4507 129.602 15.168 128.802 15.168C128.002 15.168 127.33 15.4507 126.786 16.016C126.253 16.5707 125.986 17.2693 125.986 18.112C125.986 18.9333 126.253 19.6267 126.786 20.192C127.33 20.7467 127.997 21.024 128.786 21.024C129.575 21.024 130.242 20.7413 130.786 20.176C131.341 19.6107 131.618 18.9227 131.618 18.112ZM142.727 18.24C142.749 19.3067 142.354 20.2347 141.544 21.024C140.733 21.8027 139.773 22.1813 138.664 22.16C137.469 22.16 136.498 21.7547 135.752 20.944C135.016 20.1333 134.648 19.0773 134.648 17.776V16.416C134.648 15.2 134.765 14.2187 135 13.472C135.512 11.872 136.994 10.864 139.448 10.448C140.76 10.2133 141.634 10.0053 142.072 9.824V11.008C141.57 11.2213 140.744 11.4133 139.592 11.584C138.493 11.744 137.666 12.0267 137.112 12.432C136.557 12.8373 136.21 13.3067 136.072 13.84C135.922 14.384 135.848 15.0667 135.848 15.888C136.178 15.3973 136.605 15.0133 137.128 14.736C137.661 14.4587 138.232 14.32 138.84 14.32C139.885 14.2987 140.797 14.688 141.576 15.488C142.365 16.2773 142.749 17.1947 142.727 18.24ZM140.648 20.224C141.192 19.68 141.464 19.0187 141.464 18.24C141.464 17.4613 141.192 16.8053 140.648 16.272C140.114 15.728 139.458 15.456 138.68 15.456C137.912 15.456 137.256 15.728 136.712 16.272C136.168 16.816 135.896 17.472 135.896 18.24C135.896 18.9973 136.168 19.6533 136.712 20.208C137.266 20.752 137.922 21.024 138.68 21.024C139.458 21.024 140.114 20.7573 140.648 20.224ZM155.163 24.256V22H144.891V14.208H146.123V20.912H149.387V14.208H150.619V20.912H153.899V14.208H155.131V20.912H156.395V24.256H155.163ZM165.053 18.48H158.893C158.967 19.248 159.271 19.8667 159.805 20.336C160.338 20.8053 160.989 21.04 161.757 21.04C162.642 21.04 163.437 20.688 164.141 19.984L164.861 20.816C163.986 21.7227 162.946 22.176 161.741 22.176C160.578 22.176 159.597 21.7867 158.797 21.008C158.007 20.2187 157.613 19.2533 157.613 18.112C157.613 16.9813 157.997 16.0213 158.765 15.232C159.543 14.432 160.487 14.032 161.597 14.032C162.61 14.032 163.453 14.3627 164.125 15.024C164.807 15.6853 165.149 16.528 165.149 17.552C165.149 17.8507 165.117 18.16 165.053 18.48ZM158.941 17.392H163.885C163.874 16.7093 163.65 16.1653 163.213 15.76C162.775 15.3547 162.226 15.152 161.565 15.152C160.914 15.152 160.349 15.36 159.869 15.776C159.389 16.1813 159.079 16.72 158.941 17.392ZM166.753 18.096C166.732 16.9867 167.126 16.0267 167.937 15.216C168.748 14.4053 169.713 14.0107 170.833 14.032C171.505 14.032 172.118 14.1813 172.673 14.48C173.228 14.7787 173.686 15.1947 174.049 15.728L173.169 16.432C172.55 15.5893 171.777 15.168 170.849 15.168C170.049 15.168 169.377 15.456 168.833 16.032C168.289 16.5973 168.017 17.2853 168.017 18.096C168.017 18.9173 168.289 19.616 168.833 20.192C169.377 20.7573 170.049 21.04 170.849 21.04C171.766 21.04 172.534 20.624 173.153 19.792L174.033 20.48C173.265 21.6107 172.198 22.176 170.833 22.176C169.702 22.176 168.737 21.7813 167.937 20.992C167.148 20.192 166.753 19.2267 166.753 18.096ZM177.71 22V15.312H175.086V14.208H181.55V15.312H178.926V22H177.71ZM189.635 19.648C189.635 20.352 189.379 20.9227 188.867 21.36C188.365 21.7867 187.699 22 186.867 22H183.251V14.208H186.467C187.235 14.208 187.843 14.3947 188.291 14.768C188.749 15.1413 188.979 15.6427 188.979 16.272C188.979 16.9227 188.707 17.424 188.163 17.776C189.144 18.1173 189.635 18.7413 189.635 19.648ZM184.483 15.312V17.392H186.483C187.336 17.392 187.763 17.04 187.763 16.336C187.763 15.6533 187.336 15.312 186.483 15.312H184.483ZM188.403 19.648C188.403 19.2853 188.259 19.0027 187.971 18.8C187.693 18.5867 187.299 18.48 186.787 18.48H184.483V20.912H186.787C187.288 20.912 187.683 20.8 187.971 20.576C188.259 20.3413 188.403 20.032 188.403 19.648ZM196.438 22V14.208H202.662V22H201.414V15.312H197.67V22H196.438ZM204.8 18.096C204.779 16.9867 205.173 16.0267 205.984 15.216C206.805 14.4053 207.771 14.0107 208.88 14.032C210 14.0107 210.965 14.4053 211.776 15.216C212.587 16.0267 212.981 16.9867 212.96 18.096C212.981 19.1947 212.581 20.1547 211.76 20.976C210.939 21.7867 209.973 22.1813 208.864 22.16C207.755 22.1813 206.795 21.7867 205.984 20.976C205.173 20.1547 204.779 19.1947 204.8 18.096ZM211.696 18.112C211.696 17.28 211.424 16.5813 210.88 16.016C210.347 15.4507 209.68 15.168 208.88 15.168C208.08 15.168 207.408 15.4507 206.864 16.016C206.331 16.5707 206.064 17.2693 206.064 18.112C206.064 18.9333 206.331 19.6267 206.864 20.192C207.408 20.7467 208.075 21.024 208.864 21.024C209.653 21.024 210.32 20.7413 210.864 20.176C211.419 19.6107 211.696 18.9227 211.696 18.112ZM220.939 20.912H222.203V24.256H220.971V22H214.843V24.256H213.611V20.912H214.491C215.131 20.2507 215.473 18.7467 215.515 16.4L215.563 14.208H220.939V20.912ZM215.787 20.912H219.707V15.312H216.731L216.683 16.416C216.63 18.6453 216.331 20.144 215.787 20.912ZM28.896 35.208H30.208L26.368 44.088C25.792 45.4 24.912 46.056 23.728 46.056C23.312 46.056 22.912 46.0027 22.528 45.896V44.856C22.976 44.9093 23.2907 44.936 23.472 44.936C23.8987 44.936 24.2507 44.84 24.528 44.648C24.8053 44.4667 25.04 44.1467 25.232 43.688L25.648 42.76L22.416 35.208H23.744L26.32 41.416L28.896 35.208ZM31.985 43V35.208H38.209V43H36.961V36.312H33.217V43H31.985ZM47.7549 36.2C48.4909 36.9787 48.8589 37.944 48.8589 39.096C48.8589 40.248 48.4855 41.2187 47.7389 42.008C47.0029 42.7867 46.0909 43.176 45.0029 43.176C43.7762 43.176 42.8215 42.744 42.1389 41.88V45.88H40.9069V35.208H42.0589V36.456C42.3575 36.008 42.7682 35.6613 43.2909 35.416C43.8135 35.16 44.3842 35.032 45.0029 35.032C46.1122 35.032 47.0295 35.4213 47.7549 36.2ZM46.7949 41.208C47.3282 40.6533 47.5949 39.9547 47.5949 39.112C47.5949 38.2693 47.3282 37.5707 46.7949 37.016C46.2722 36.4507 45.6162 36.168 44.8269 36.168C44.0802 36.168 43.4402 36.424 42.9069 36.936C42.3842 37.448 42.1229 38.168 42.1229 39.096C42.1229 40.0453 42.3789 40.776 42.8909 41.288C43.4135 41.7893 44.0589 42.04 44.8269 42.04C45.6162 42.04 46.2722 41.7627 46.7949 41.208ZM56.8563 38.2V43H55.7043V41.992C55.1069 42.7813 54.2323 43.176 53.0803 43.176C52.2696 43.176 51.6136 42.9787 51.1123 42.584C50.6109 42.1787 50.3603 41.6453 50.3603 40.984C50.3603 40.3227 50.6163 39.7947 51.1283 39.4C51.6403 39.0053 52.3176 38.808 53.1603 38.808H55.6243V38.136C55.6243 37.5067 55.4536 37.0213 55.1123 36.68C54.7816 36.3387 54.3229 36.168 53.7363 36.168C52.8616 36.168 52.1043 36.584 51.4643 37.416L50.6483 36.744C51.3416 35.6027 52.3976 35.032 53.8163 35.032C54.7549 35.032 55.4963 35.3093 56.0403 35.864C56.5843 36.408 56.8563 37.1867 56.8563 38.2ZM55.6243 40.008V39.816H53.3043C52.1843 39.816 51.6243 40.184 51.6243 40.92C51.6243 41.304 51.7736 41.608 52.0723 41.832C52.3816 42.0453 52.7709 42.152 53.2403 42.152C53.8909 42.152 54.4509 41.944 54.9203 41.528C55.3896 41.112 55.6243 40.6053 55.6243 40.008ZM65.8534 40.648C65.8534 41.352 65.5974 41.9227 65.0854 42.36C64.584 42.7867 63.9174 43 63.0854 43H59.4694V35.208H62.6854C63.4534 35.208 64.0614 35.3947 64.5094 35.768C64.968 36.1413 65.1974 36.6427 65.1974 37.272C65.1974 37.9227 64.9254 38.424 64.3814 38.776C65.3627 39.1173 65.8534 39.7413 65.8534 40.648ZM60.7014 36.312V38.392H62.7014C63.5547 38.392 63.9814 38.04 63.9814 37.336C63.9814 36.6533 63.5547 36.312 62.7014 36.312H60.7014ZM64.6214 40.648C64.6214 40.2853 64.4774 40.0027 64.1894 39.8C63.912 39.5867 63.5174 39.48 63.0054 39.48H60.7014V41.912H63.0054C63.5067 41.912 63.9014 41.8 64.1894 41.576C64.4774 41.3413 64.6214 41.032 64.6214 40.648ZM68.7805 35.208H74.0605V43H72.8285V36.312H69.9325L69.9005 37.272C69.8258 39.3733 69.6125 40.856 69.2605 41.72C68.9085 42.584 68.2845 43.032 67.3885 43.064C67.2285 43.064 67.0898 43.0427 66.9725 43V41.96C67.1432 41.9813 67.2498 41.992 67.2925 41.992C67.7832 41.992 68.1352 41.6133 68.3485 40.856C68.5725 40.0987 68.7005 38.8933 68.7325 37.24L68.7805 35.208ZM83.6619 39.48H77.5019C77.5765 40.248 77.8805 40.8667 78.4139 41.336C78.9472 41.8053 79.5979 42.04 80.3659 42.04C81.2512 42.04 82.0459 41.688 82.7499 40.984L83.4699 41.816C82.5952 42.7227 81.5552 43.176 80.3499 43.176C79.1872 43.176 78.2059 42.7867 77.4059 42.008C76.6165 41.2187 76.2219 40.2533 76.2219 39.112C76.2219 37.9813 76.6059 37.0213 77.3739 36.232C78.1525 35.432 79.0965 35.032 80.2059 35.032C81.2192 35.032 82.0619 35.3627 82.7339 36.024C83.4165 36.6853 83.7579 37.528 83.7579 38.552C83.7579 38.8507 83.7259 39.16 83.6619 39.48ZM77.5499 38.392H82.4939C82.4832 37.7093 82.2592 37.1653 81.8219 36.76C81.3845 36.3547 80.8352 36.152 80.1739 36.152C79.5232 36.152 78.9579 36.36 78.4779 36.776C77.9979 37.1813 77.6885 37.72 77.5499 38.392ZM85.9225 43V35.208H87.1545V38.312H90.9785V35.208H92.2105V43H90.9785V39.4H87.1545V43H85.9225ZM100.891 35.032H101.339V43H100.107V37.496L95.3549 43.176H94.9069V35.208H96.1389V40.728L100.891 35.032ZM110.928 39.48H104.768C104.842 40.248 105.146 40.8667 105.68 41.336C106.213 41.8053 106.864 42.04 107.632 42.04C108.517 42.04 109.312 41.688 110.016 40.984L110.736 41.816C109.861 42.7227 108.821 43.176 107.616 43.176C106.453 43.176 105.472 42.7867 104.672 42.008C103.882 41.2187 103.488 40.2533 103.488 39.112C103.488 37.9813 103.872 37.0213 104.64 36.232C105.418 35.432 106.362 35.032 107.472 35.032C108.485 35.032 109.328 35.3627 110 36.024C110.682 36.6853 111.024 37.528 111.024 38.552C111.024 38.8507 110.992 39.16 110.928 39.48ZM104.816 38.392H109.76C109.749 37.7093 109.525 37.1653 109.088 36.76C108.65 36.3547 108.101 36.152 107.44 36.152C106.789 36.152 106.224 36.36 105.744 36.776C105.264 37.1813 104.954 37.72 104.816 38.392ZM130.073 32.44H132.472L128.249 43.192H127.545L124.601 36.568L121.641 43.192H120.937L116.713 32.44H119.113L121.465 38.68L124.233 32.248H124.953L127.721 38.648L130.073 32.44ZM132.546 39.032C132.525 37.9013 132.935 36.9253 133.778 36.104C134.621 35.2827 135.623 34.8827 136.786 34.904C137.949 34.8827 138.951 35.2827 139.794 36.104C140.647 36.9253 141.063 37.9013 141.042 39.032C141.063 40.1627 140.647 41.144 139.794 41.976C138.941 42.7973 137.933 43.1973 136.77 43.176C135.607 43.1973 134.605 42.7973 133.762 41.976C132.93 41.144 132.525 40.1627 132.546 39.032ZM138.242 40.584C138.637 40.1787 138.834 39.6667 138.834 39.048C138.834 38.4293 138.637 37.912 138.242 37.496C137.858 37.08 137.373 36.872 136.786 36.872C136.189 36.872 135.698 37.08 135.314 37.496C134.93 37.9013 134.738 38.4187 134.738 39.048C134.738 39.6667 134.93 40.1787 135.314 40.584C135.698 40.9893 136.189 41.192 136.786 41.192C137.373 41.192 137.858 40.9893 138.242 40.584ZM142.728 43V31H144.888V43H142.728ZM149.553 33.976V35.08H151.297V36.904H149.553V43H147.393V36.904H146.273V35.08H147.393V33.784C147.393 32.8027 147.66 32.0613 148.193 31.56C148.726 31.0587 149.478 30.808 150.449 30.808C150.854 30.808 151.249 30.8667 151.633 30.984V32.792C151.398 32.76 151.185 32.744 150.993 32.744C150.492 32.744 150.124 32.84 149.889 33.032C149.665 33.224 149.553 33.5387 149.553 33.976ZM162.27 32.248H162.974V43H160.814V37.368L158.158 40.696H157.454L154.798 37.368V43H152.638V32.248H153.342L157.806 37.96L162.27 32.248ZM172.461 39.768H166.909C167.037 40.2693 167.293 40.6587 167.677 40.936C168.072 41.2027 168.557 41.336 169.133 41.336C169.912 41.336 170.648 41.0693 171.341 40.536L172.237 42.008C171.288 42.7973 170.232 43.192 169.069 43.192C167.853 43.2133 166.819 42.8187 165.965 42.008C165.123 41.1867 164.712 40.2 164.733 39.048C164.712 37.9067 165.112 36.9253 165.933 36.104C166.755 35.2827 167.736 34.8827 168.877 34.904C169.965 34.904 170.856 35.256 171.549 35.96C172.253 36.664 172.605 37.5387 172.605 38.584C172.605 38.968 172.557 39.3627 172.461 39.768ZM166.909 38.248H170.509C170.499 37.768 170.328 37.384 169.997 37.096C169.677 36.7973 169.277 36.648 168.797 36.648C168.339 36.648 167.939 36.792 167.597 37.08C167.256 37.368 167.027 37.7573 166.909 38.248ZM180.051 31H182.211V43H180.227V42.024C179.683 42.8027 178.835 43.192 177.683 43.192C176.573 43.192 175.656 42.8027 174.931 42.024C174.205 41.2347 173.843 40.2427 173.843 39.048C173.843 37.8533 174.205 36.8667 174.931 36.088C175.656 35.2987 176.573 34.904 177.683 34.904C178.685 34.904 179.475 35.2187 180.051 35.848V31ZM179.507 40.648C179.891 40.264 180.083 39.7307 180.083 39.048C180.083 38.3653 179.891 37.832 179.507 37.448C179.123 37.0533 178.648 36.856 178.083 36.856C177.496 36.856 177.005 37.0587 176.611 37.464C176.227 37.8693 176.035 38.392 176.035 39.032C176.035 39.6827 176.227 40.2107 176.611 40.616C176.995 41.0213 177.485 41.224 178.083 41.224C178.659 41.224 179.133 41.032 179.507 40.648ZM184.353 43V35.08H186.513V43H184.353ZM184.049 32.2C184.049 31.816 184.183 31.496 184.449 31.24C184.716 30.984 185.041 30.856 185.425 30.856C185.809 30.856 186.135 30.984 186.401 31.24C186.679 31.496 186.817 31.816 186.817 32.2C186.817 32.5733 186.679 32.888 186.401 33.144C186.135 33.4 185.809 33.528 185.425 33.528C185.041 33.528 184.716 33.4 184.449 33.144C184.183 32.888 184.049 32.5733 184.049 32.2ZM195.29 38.296V43H193.306V42.232C192.687 42.872 191.882 43.192 190.89 43.192C190.058 43.192 189.391 42.9733 188.89 42.536C188.399 42.0987 188.154 41.528 188.154 40.824C188.154 40.1093 188.421 39.5493 188.954 39.144C189.498 38.728 190.229 38.52 191.146 38.52H193.13V38.168C193.13 37.72 193.002 37.3787 192.746 37.144C192.501 36.8987 192.138 36.776 191.658 36.776C191.263 36.776 190.906 36.8613 190.586 37.032C190.266 37.2027 189.925 37.48 189.562 37.864L188.442 36.536C189.359 35.448 190.511 34.904 191.898 34.904C192.943 34.904 193.77 35.2027 194.378 35.8C194.986 36.3867 195.29 37.2187 195.29 38.296ZM193.13 40.04V39.944H191.434C190.698 39.944 190.33 40.2107 190.33 40.744C190.33 41.0107 190.431 41.224 190.634 41.384C190.847 41.5333 191.125 41.608 191.466 41.608C191.946 41.608 192.341 41.464 192.65 41.176C192.97 40.8773 193.13 40.4987 193.13 40.04Z" fill="white"/>
</svg>
