<svg width="343" height="30" viewBox="0 0 343 30" fill="none" xmlns="http://www.w3.org/2000/svg">
<path fill-rule="evenodd" clip-rule="evenodd" d="M7 0H343V30H7V0Z" fill="#503655"/>
<path fill-rule="evenodd" clip-rule="evenodd" d="M0 15L7 8L7 22L0 15Z" fill="#503655"/>
<path d="M30.032 20L29.44 18.624H25.12L24.528 20H22.208L26.928 9.248H27.648L32.352 20H30.032ZM28.688 16.848L27.28 13.28L25.872 16.848H28.688ZM41.5381 20H38.9781L35.8421 15.808V20H33.6981V12.08H35.8421V15.776L38.8341 12.08H41.2821L38.2901 15.696L41.5381 20ZM44.3279 20V13.904H41.8959V12.08H48.9199V13.904H46.4719V20H44.3279ZM56.8366 11.904H57.5406V20H55.3806V15.712L50.9646 20.192H50.2606V12.08H52.4046V16.4L56.8366 11.904ZM66.8323 17.584C66.8323 18.288 66.5603 18.8693 66.0163 19.328C65.4829 19.776 64.8056 20 63.9843 20H59.7763V12.08H63.4563C64.2776 12.08 64.9443 12.2827 65.4563 12.688C65.9789 13.0933 66.2403 13.632 66.2403 14.304C66.2403 14.88 66.0269 15.3653 65.6003 15.76C66.4216 16.1227 66.8323 16.7307 66.8323 17.584ZM61.8243 13.696V15.168H63.3283C63.9683 15.168 64.2883 14.9227 64.2883 14.432C64.2883 13.9413 63.9683 13.696 63.3283 13.696H61.8243ZM64.5443 18.16C64.7469 18 64.8483 17.7867 64.8483 17.52C64.8483 17.2533 64.7469 17.0453 64.5443 16.896C64.3523 16.7467 64.0856 16.672 63.7443 16.672H61.8243V18.4H63.7443C64.0856 18.4 64.3523 18.32 64.5443 18.16ZM68.62 20V12.08H70.764V14.976H73.692V12.08H75.836V20H73.692V16.816H70.764V20H68.62ZM78.0731 20V12.08H80.2171V14.368H81.6571C82.6065 14.368 83.3958 14.6187 84.0251 15.12C84.6438 15.6107 84.9531 16.2933 84.9531 17.168C84.9531 18.064 84.6438 18.7573 84.0251 19.248C83.3958 19.7493 82.6065 20 81.6571 20H78.0731ZM85.8491 20V12.08H87.9931V20H85.8491ZM80.2171 18.176H81.5931C82.3718 18.176 82.7611 17.8507 82.7611 17.2C82.7611 16.88 82.6545 16.6347 82.4411 16.464C82.2385 16.2827 81.9558 16.192 81.5931 16.192H80.2171V18.176ZM96.8054 11.904H97.5094V20H95.3494V15.712L90.9334 20.192H90.2294V12.08H92.3734V16.4L96.8054 11.904ZM91.2854 8.08V7.632H93.0134V8.064C93.0134 8.46933 93.104 8.784 93.2854 9.008C93.4667 9.22133 93.7227 9.328 94.0534 9.328C94.384 9.328 94.64 9.22133 94.8214 9.008C95.0027 8.784 95.0934 8.46933 95.0934 8.064V7.632H96.8054V8.08C96.8054 8.90133 96.5494 9.57333 96.0374 10.096C95.5254 10.608 94.864 10.864 94.0534 10.864C93.232 10.864 92.5654 10.608 92.0534 10.096C91.5414 9.57333 91.2854 8.90133 91.2854 8.08ZM111.445 13.088C112.181 13.8667 112.549 14.848 112.549 16.032C112.549 17.216 112.181 18.208 111.445 19.008C110.72 19.7973 109.808 20.192 108.709 20.192C107.717 20.192 106.928 19.872 106.341 19.232V22.88H104.181V12.08H106.165V13.072C106.709 12.2933 107.557 11.904 108.709 11.904C109.808 11.904 110.72 12.2987 111.445 13.088ZM110.357 16.048C110.357 15.3973 110.165 14.8693 109.781 14.464C109.397 14.0587 108.907 13.856 108.309 13.856C107.733 13.856 107.253 14.048 106.869 14.432C106.496 14.816 106.309 15.3493 106.309 16.032C106.309 16.7147 106.496 17.2533 106.869 17.648C107.253 18.032 107.733 18.224 108.309 18.224C108.896 18.224 109.381 18.0213 109.765 17.616C110.16 17.2107 110.357 16.688 110.357 16.048ZM113.796 16.032C113.775 14.9013 114.185 13.9253 115.028 13.104C115.871 12.2827 116.873 11.8827 118.036 11.904C119.199 11.8827 120.201 12.2827 121.044 13.104C121.897 13.9253 122.313 14.9013 122.292 16.032C122.313 17.1627 121.897 18.144 121.044 18.976C120.191 19.7973 119.183 20.1973 118.02 20.176C116.857 20.1973 115.855 19.7973 115.012 18.976C114.18 18.144 113.775 17.1627 113.796 16.032ZM119.492 17.584C119.887 17.1787 120.084 16.6667 120.084 16.048C120.084 15.4293 119.887 14.912 119.492 14.496C119.108 14.08 118.623 13.872 118.036 13.872C117.439 13.872 116.948 14.08 116.564 14.496C116.18 14.9013 115.988 15.4187 115.988 16.048C115.988 16.6667 116.18 17.1787 116.564 17.584C116.948 17.9893 117.439 18.192 118.036 18.192C118.623 18.192 119.108 17.9893 119.492 17.584ZM123.53 16.032C123.53 14.88 123.941 13.904 124.762 13.104C125.584 12.304 126.586 11.904 127.77 11.904C129.328 11.904 130.474 12.5547 131.21 13.856L129.706 15.024C129.173 14.256 128.538 13.872 127.802 13.872C127.194 13.872 126.693 14.08 126.298 14.496C125.914 14.9013 125.722 15.4133 125.722 16.032C125.722 16.6613 125.914 17.184 126.298 17.6C126.693 18.0053 127.194 18.208 127.802 18.208C128.538 18.208 129.173 17.8293 129.706 17.072L131.21 18.224C130.858 18.8427 130.384 19.328 129.786 19.68C129.2 20.0213 128.528 20.192 127.77 20.192C126.608 20.2133 125.605 19.8133 124.762 18.992C123.92 18.16 123.509 17.1733 123.53 16.032ZM134.39 20V13.904H131.958V12.08H138.982V13.904H136.534V20H134.39ZM144.488 16.096C144.466 14.9867 144.861 14.0267 145.672 13.216C146.482 12.4053 147.448 12.0107 148.568 12.032C149.24 12.032 149.853 12.1813 150.408 12.48C150.962 12.7787 151.421 13.1947 151.784 13.728L150.904 14.432C150.285 13.5893 149.512 13.168 148.584 13.168C147.784 13.168 147.112 13.456 146.568 14.032C146.024 14.5973 145.752 15.2853 145.752 16.096C145.752 16.9173 146.024 17.616 146.568 18.192C147.112 18.7573 147.784 19.04 148.584 19.04C149.501 19.04 150.269 18.624 150.888 17.792L151.767 18.48C151 19.6107 149.933 20.176 148.568 20.176C147.437 20.176 146.472 19.7813 145.672 18.992C144.882 18.192 144.488 17.2267 144.488 16.096ZM153.144 16.096C153.122 14.9867 153.517 14.0267 154.328 13.216C155.149 12.4053 156.114 12.0107 157.224 12.032C158.344 12.0107 159.309 12.4053 160.12 13.216C160.93 14.0267 161.325 14.9867 161.304 16.096C161.325 17.1947 160.925 18.1547 160.104 18.976C159.282 19.7867 158.317 20.1813 157.208 20.16C156.098 20.1813 155.138 19.7867 154.328 18.976C153.517 18.1547 153.122 17.1947 153.144 16.096ZM160.04 16.112C160.04 15.28 159.768 14.5813 159.224 14.016C158.69 13.4507 158.024 13.168 157.224 13.168C156.424 13.168 155.752 13.4507 155.208 14.016C154.674 14.5707 154.408 15.2693 154.408 16.112C154.408 16.9333 154.674 17.6267 155.208 18.192C155.752 18.7467 156.418 19.024 157.208 19.024C157.997 19.024 158.664 18.7413 159.208 18.176C159.762 17.6107 160.04 16.9227 160.04 16.112ZM162.909 16.096C162.888 14.9867 163.283 14.0267 164.093 13.216C164.915 12.4053 165.88 12.0107 166.989 12.032C168.109 12.0107 169.075 12.4053 169.885 13.216C170.696 14.0267 171.091 14.9867 171.069 16.096C171.091 17.1947 170.691 18.1547 169.869 18.976C169.048 19.7867 168.083 20.1813 166.973 20.16C165.864 20.1813 164.904 19.7867 164.093 18.976C163.283 18.1547 162.888 17.1947 162.909 16.096ZM169.805 16.112C169.805 15.28 169.533 14.5813 168.989 14.016C168.456 13.4507 167.789 13.168 166.989 13.168C166.189 13.168 165.517 13.4507 164.973 14.016C164.44 14.5707 164.173 15.2693 164.173 16.112C164.173 16.9333 164.44 17.6267 164.973 18.192C165.517 18.7467 166.184 19.024 166.973 19.024C167.763 19.024 168.429 18.7413 168.973 18.176C169.528 17.6107 169.805 16.9227 169.805 16.112ZM180.915 16.24C180.936 17.3067 180.542 18.2347 179.731 19.024C178.92 19.8027 177.96 20.1813 176.851 20.16C175.656 20.16 174.686 19.7547 173.939 18.944C173.203 18.1333 172.835 17.0773 172.835 15.776V14.416C172.835 13.2 172.952 12.2187 173.187 11.472C173.699 9.872 175.182 8.864 177.635 8.448C178.947 8.21333 179.822 8.00533 180.259 7.824V9.008C179.758 9.22133 178.931 9.41333 177.779 9.584C176.68 9.744 175.854 10.0267 175.299 10.432C174.744 10.8373 174.398 11.3067 174.259 11.84C174.11 12.384 174.035 13.0667 174.035 13.888C174.366 13.3973 174.792 13.0133 175.315 12.736C175.848 12.4587 176.419 12.32 177.027 12.32C178.072 12.2987 178.984 12.688 179.763 13.488C180.552 14.2773 180.936 15.1947 180.915 16.24ZM178.835 18.224C179.379 17.68 179.651 17.0187 179.651 16.24C179.651 15.4613 179.379 14.8053 178.835 14.272C178.302 13.728 177.646 13.456 176.867 13.456C176.099 13.456 175.443 13.728 174.899 14.272C174.355 14.816 174.083 15.472 174.083 16.24C174.083 16.9973 174.355 17.6533 174.899 18.208C175.454 18.752 176.11 19.024 176.867 19.024C177.646 19.024 178.302 18.7573 178.835 18.224ZM193.351 22.256V20H183.079V12.208H184.311V18.912H187.575V12.208H188.807V18.912H192.087V12.208H193.319V18.912H194.583V22.256H193.351ZM203.24 16.48H197.08C197.155 17.248 197.459 17.8667 197.992 18.336C198.525 18.8053 199.176 19.04 199.944 19.04C200.829 19.04 201.624 18.688 202.328 17.984L203.048 18.816C202.173 19.7227 201.133 20.176 199.928 20.176C198.765 20.176 197.784 19.7867 196.984 19.008C196.195 18.2187 195.8 17.2533 195.8 16.112C195.8 14.9813 196.184 14.0213 196.952 13.232C197.731 12.432 198.675 12.032 199.784 12.032C200.797 12.032 201.64 12.3627 202.312 13.024C202.995 13.6853 203.336 14.528 203.336 15.552C203.336 15.8507 203.304 16.16 203.24 16.48ZM197.128 15.392H202.072C202.061 14.7093 201.837 14.1653 201.4 13.76C200.963 13.3547 200.413 13.152 199.752 13.152C199.101 13.152 198.536 13.36 198.056 13.776C197.576 14.1813 197.267 14.72 197.128 15.392ZM204.941 16.096C204.919 14.9867 205.314 14.0267 206.125 13.216C206.935 12.4053 207.901 12.0107 209.021 12.032C209.693 12.032 210.306 12.1813 210.861 12.48C211.415 12.7787 211.874 13.1947 212.237 13.728L211.357 14.432C210.738 13.5893 209.965 13.168 209.037 13.168C208.237 13.168 207.565 13.456 207.021 14.032C206.477 14.5973 206.205 15.2853 206.205 16.096C206.205 16.9173 206.477 17.616 207.021 18.192C207.565 18.7573 208.237 19.04 209.037 19.04C209.954 19.04 210.722 18.624 211.341 17.792L212.221 18.48C211.453 19.6107 210.386 20.176 209.021 20.176C207.89 20.176 206.925 19.7813 206.125 18.992C205.335 18.192 204.941 17.2267 204.941 16.096ZM215.897 20V13.312H213.273V12.208H219.737V13.312H217.113V20H215.897ZM227.822 17.648C227.822 18.352 227.566 18.9227 227.054 19.36C226.553 19.7867 225.886 20 225.054 20H221.438V12.208H224.654C225.422 12.208 226.03 12.3947 226.478 12.768C226.937 13.1413 227.166 13.6427 227.166 14.272C227.166 14.9227 226.894 15.424 226.35 15.776C227.331 16.1173 227.822 16.7413 227.822 17.648ZM222.67 13.312V15.392H224.67C225.523 15.392 225.95 15.04 225.95 14.336C225.95 13.6533 225.523 13.312 224.67 13.312H222.67ZM226.59 17.648C226.59 17.2853 226.446 17.0027 226.158 16.8C225.881 16.5867 225.486 16.48 224.974 16.48H222.67V18.912H224.974C225.475 18.912 225.87 18.8 226.158 18.576C226.446 18.3413 226.59 18.032 226.59 17.648ZM240.61 12.032H241.058V20H239.826V14.496L235.074 20.176H234.626V12.208H235.858V17.728L240.61 12.032ZM254.091 15.2V20H252.939V18.992C252.341 19.7813 251.467 20.176 250.315 20.176C249.504 20.176 248.848 19.9787 248.347 19.584C247.845 19.1787 247.595 18.6453 247.595 17.984C247.595 17.3227 247.851 16.7947 248.363 16.4C248.875 16.0053 249.552 15.808 250.395 15.808H252.859V15.136C252.859 14.5067 252.688 14.0213 252.347 13.68C252.016 13.3387 251.557 13.168 250.971 13.168C250.096 13.168 249.339 13.584 248.699 14.416L247.883 13.744C248.576 12.6027 249.632 12.032 251.051 12.032C251.989 12.032 252.731 12.3093 253.275 12.864C253.819 13.408 254.091 14.1867 254.091 15.2ZM252.859 17.008V16.816H250.539C249.419 16.816 248.859 17.184 248.859 17.92C248.859 18.304 249.008 18.608 249.307 18.832C249.616 19.0453 250.005 19.152 250.475 19.152C251.125 19.152 251.685 18.944 252.155 18.528C252.624 18.112 252.859 17.6053 252.859 17.008ZM262.24 12.208H263.552L259.712 21.088C259.136 22.4 258.256 23.056 257.072 23.056C256.656 23.056 256.256 23.0027 255.872 22.896V21.856C256.32 21.9093 256.634 21.936 256.816 21.936C257.242 21.936 257.594 21.84 257.872 21.648C258.149 21.4667 258.384 21.1467 258.576 20.688L258.992 19.76L255.76 12.208H257.088L259.664 18.416L262.24 12.208ZM270.611 18.912H271.875V22.256H270.643V20H264.515V22.256H263.283V18.912H264.163C264.803 18.2507 265.144 16.7467 265.187 14.4L265.235 12.208H270.611V18.912ZM265.459 18.912H269.379V13.312H266.403L266.355 14.416C266.302 16.6453 266.003 18.144 265.459 18.912ZM279.797 12.032H280.245V20H279.013V14.496L274.261 20.176H273.813V12.208H275.045V17.728L279.797 12.032ZM284.538 20V13.312H281.914V12.208H288.378V13.312H285.754V20H284.538ZM289.503 16.096C289.482 14.9867 289.876 14.0267 290.687 13.216C291.508 12.4053 292.474 12.0107 293.583 12.032C294.703 12.0107 295.668 12.4053 296.479 13.216C297.29 14.0267 297.684 14.9867 297.663 16.096C297.684 17.1947 297.284 18.1547 296.463 18.976C295.642 19.7867 294.676 20.1813 293.567 20.16C292.458 20.1813 291.498 19.7867 290.687 18.976C289.876 18.1547 289.482 17.1947 289.503 16.096ZM296.399 16.112C296.399 15.28 296.127 14.5813 295.583 14.016C295.05 13.4507 294.383 13.168 293.583 13.168C292.783 13.168 292.111 13.4507 291.567 14.016C291.034 14.5707 290.767 15.2693 290.767 16.112C290.767 16.9333 291.034 17.6267 291.567 18.192C292.111 18.7467 292.778 19.024 293.567 19.024C294.356 19.024 295.023 18.7413 295.567 18.176C296.122 17.6107 296.399 16.9227 296.399 16.112ZM306.677 13.2C307.413 13.9787 307.781 14.944 307.781 16.096C307.781 17.248 307.407 18.2187 306.661 19.008C305.925 19.7867 305.013 20.176 303.925 20.176C302.698 20.176 301.743 19.744 301.061 18.88V22.88H299.829V12.208H300.981V13.456C301.279 13.008 301.69 12.6613 302.213 12.416C302.735 12.16 303.306 12.032 303.925 12.032C305.034 12.032 305.951 12.4213 306.677 13.2ZM305.717 18.208C306.25 17.6533 306.517 16.9547 306.517 16.112C306.517 15.2693 306.25 14.5707 305.717 14.016C305.194 13.4507 304.538 13.168 303.749 13.168C303.002 13.168 302.362 13.424 301.829 13.936C301.306 14.448 301.045 15.168 301.045 16.096C301.045 17.0453 301.301 17.776 301.813 18.288C302.335 18.7893 302.981 19.04 303.749 19.04C304.538 19.04 305.194 18.7627 305.717 18.208ZM315.922 12.032H316.37V20H315.138V14.496L310.386 20.176H309.938V12.208H311.17V17.728L315.922 12.032ZM325.063 12.032H325.511V20H324.279V14.496L319.527 20.176H319.079V12.208H320.311V17.728L325.063 12.032Z" fill="white"/>
</svg>
