<svg width="352" height="74" viewBox="0 0 352 74" fill="none" xmlns="http://www.w3.org/2000/svg">
<path fill-rule="evenodd" clip-rule="evenodd" d="M7 0H352V74H7V0Z" fill="#503655"/>
<path fill-rule="evenodd" clip-rule="evenodd" d="M0 15L7 8L7 22L0 15Z" fill="#503655"/>
<path d="M22.768 15.72C22.736 14.216 23.264 12.9253 24.352 11.848C25.44 10.7707 26.736 10.2427 28.24 10.264C29.7333 10.2427 31.0293 10.7707 32.128 11.848C33.2267 12.9253 33.76 14.216 33.728 15.72C33.76 17.224 33.2267 18.5147 32.128 19.592C31.0293 20.6693 29.7333 21.1973 28.24 21.176C26.7467 21.208 25.4507 20.68 24.352 19.592C23.264 18.504 22.736 17.2133 22.768 15.72ZM32.432 15.704C32.4533 14.5093 32.0533 13.4907 31.232 12.648C30.4107 11.8053 29.4187 11.3947 28.256 11.416C27.0613 11.416 26.064 11.8267 25.264 12.648C24.464 13.4587 24.064 14.4773 24.064 15.704C24.064 16.9307 24.464 17.96 25.264 18.792C26.064 19.6133 27.0613 20.024 28.256 20.024C29.4187 20.0453 30.4107 19.6347 31.232 18.792C32.0533 17.9387 32.4533 16.9093 32.432 15.704ZM37.444 21V14.312H34.82V13.208H41.284V14.312H38.66V21H37.444ZM42.985 21V13.208H44.217V21H42.985ZM45.881 16.744L49.545 21H47.993L44.377 16.776L47.657 13.208H49.193L45.881 16.744ZM58.0674 14.2C58.8034 14.9787 59.1714 15.944 59.1714 17.096C59.1714 18.248 58.798 19.2187 58.0514 20.008C57.3154 20.7867 56.4034 21.176 55.3154 21.176C54.0887 21.176 53.134 20.744 52.4514 19.88V23.88H51.2194V13.208H52.3714V14.456C52.67 14.008 53.0807 13.6613 53.6034 13.416C54.126 13.16 54.6967 13.032 55.3154 13.032C56.4247 13.032 57.342 13.4213 58.0674 14.2ZM57.1074 19.208C57.6407 18.6533 57.9074 17.9547 57.9074 17.112C57.9074 16.2693 57.6407 15.5707 57.1074 15.016C56.5847 14.4507 55.9287 14.168 55.1394 14.168C54.3927 14.168 53.7527 14.424 53.2194 14.936C52.6967 15.448 52.4354 16.168 52.4354 17.096C52.4354 18.0453 52.6914 18.776 53.2034 19.288C53.726 19.7893 54.3714 20.04 55.1394 20.04C55.9287 20.04 56.5847 19.7627 57.1074 19.208ZM61.3288 21V13.208H62.5608V15.896H64.4168C65.2914 15.896 65.9954 16.1307 66.5288 16.6C67.0621 17.0587 67.3288 17.672 67.3288 18.44C67.3288 19.2187 67.0621 19.8427 66.5288 20.312C66.0061 20.7707 65.3021 21 64.4168 21H61.3288ZM68.4648 21V13.208H69.6968V21H68.4648ZM62.5608 19.912H64.3528C64.9074 19.912 65.3288 19.7893 65.6168 19.544C65.9154 19.288 66.0648 18.9253 66.0648 18.456C66.0648 17.9867 65.9154 17.624 65.6168 17.368C65.3181 17.112 64.8914 16.984 64.3368 16.984H62.5608V19.912ZM73.9909 21V14.312H71.3669V13.208H77.8309V14.312H75.2069V21H73.9909ZM85.5159 13.032H85.9639V21H84.7319V15.496L79.9799 21.176H79.5319V13.208H80.7639V18.728L85.5159 13.032ZM95.5525 17.48H89.3925C89.4672 18.248 89.7712 18.8667 90.3045 19.336C90.8378 19.8053 91.4885 20.04 92.2565 20.04C93.1418 20.04 93.9365 19.688 94.6405 18.984L95.3605 19.816C94.4858 20.7227 93.4458 21.176 92.2405 21.176C91.0778 21.176 90.0965 20.7867 89.2965 20.008C88.5072 19.2187 88.1125 18.2533 88.1125 17.112C88.1125 15.9813 88.4965 15.0213 89.2645 14.232C90.0432 13.432 90.9872 13.032 92.0965 13.032C93.1098 13.032 93.9525 13.3627 94.6245 14.024C95.3072 14.6853 95.6485 15.528 95.6485 16.552C95.6485 16.8507 95.6165 17.16 95.5525 17.48ZM89.4405 16.392H94.3845C94.3738 15.7093 94.1498 15.1653 93.7125 14.76C93.2752 14.3547 92.7258 14.152 92.0645 14.152C91.4138 14.152 90.8485 14.36 90.3685 14.776C89.8885 15.1813 89.5792 15.72 89.4405 16.392ZM101.738 17.096C101.716 15.9867 102.111 15.0267 102.922 14.216C103.732 13.4053 104.698 13.0107 105.818 13.032C106.49 13.032 107.103 13.1813 107.658 13.48C108.212 13.7787 108.671 14.1947 109.034 14.728L108.154 15.432C107.535 14.5893 106.762 14.168 105.834 14.168C105.034 14.168 104.362 14.456 103.818 15.032C103.274 15.5973 103.002 16.2853 103.002 17.096C103.002 17.9173 103.274 18.616 103.818 19.192C104.362 19.7573 105.034 20.04 105.834 20.04C106.751 20.04 107.519 19.624 108.138 18.792L109.017 19.48C108.25 20.6107 107.183 21.176 105.818 21.176C104.687 21.176 103.722 20.7813 102.922 19.992C102.132 19.192 101.738 18.2267 101.738 17.096ZM110.394 17.096C110.372 15.9867 110.767 15.0267 111.578 14.216C112.399 13.4053 113.364 13.0107 114.474 13.032C115.594 13.0107 116.559 13.4053 117.37 14.216C118.18 15.0267 118.575 15.9867 118.554 17.096C118.575 18.1947 118.175 19.1547 117.354 19.976C116.532 20.7867 115.567 21.1813 114.458 21.16C113.348 21.1813 112.388 20.7867 111.578 19.976C110.767 19.1547 110.372 18.1947 110.394 17.096ZM117.29 17.112C117.29 16.28 117.018 15.5813 116.474 15.016C115.94 14.4507 115.274 14.168 114.474 14.168C113.674 14.168 113.002 14.4507 112.458 15.016C111.924 15.5707 111.658 16.2693 111.658 17.112C111.658 17.9333 111.924 18.6267 112.458 19.192C113.002 19.7467 113.668 20.024 114.458 20.024C115.247 20.024 115.914 19.7413 116.458 19.176C117.012 18.6107 117.29 17.9227 117.29 17.112ZM128.399 17.24C128.421 18.3067 128.026 19.2347 127.215 20.024C126.405 20.8027 125.445 21.1813 124.335 21.16C123.141 21.16 122.17 20.7547 121.423 19.944C120.687 19.1333 120.319 18.0773 120.319 16.776V15.416C120.319 14.2 120.437 13.2187 120.671 12.472C121.183 10.872 122.666 9.864 125.119 9.448C126.431 9.21333 127.306 9.00533 127.743 8.824V10.008C127.242 10.2213 126.415 10.4133 125.263 10.584C124.165 10.744 123.338 11.0267 122.783 11.432C122.229 11.8373 121.882 12.3067 121.743 12.84C121.594 13.384 121.519 14.0667 121.519 14.888C121.85 14.3973 122.277 14.0133 122.799 13.736C123.333 13.4587 123.903 13.32 124.511 13.32C125.557 13.2987 126.469 13.688 127.247 14.488C128.037 15.2773 128.421 16.1947 128.399 17.24ZM126.319 19.224C126.863 18.68 127.135 18.0187 127.135 17.24C127.135 16.4613 126.863 15.8053 126.319 15.272C125.786 14.728 125.13 14.456 124.351 14.456C123.583 14.456 122.927 14.728 122.383 15.272C121.839 15.816 121.567 16.472 121.567 17.24C121.567 17.9973 121.839 18.6533 122.383 19.208C122.938 19.752 123.594 20.024 124.351 20.024C125.13 20.024 125.786 19.7573 126.319 19.224ZM130.003 17.096C129.982 15.9867 130.376 15.0267 131.187 14.216C131.998 13.4053 132.963 13.0107 134.083 13.032C134.755 13.032 135.368 13.1813 135.923 13.48C136.478 13.7787 136.936 14.1947 137.299 14.728L136.419 15.432C135.8 14.5893 135.027 14.168 134.099 14.168C133.299 14.168 132.627 14.456 132.083 15.032C131.539 15.5973 131.267 16.2853 131.267 17.096C131.267 17.9173 131.539 18.616 132.083 19.192C132.627 19.7573 133.299 20.04 134.099 20.04C135.016 20.04 135.784 19.624 136.403 18.792L137.283 19.48C136.515 20.6107 135.448 21.176 134.083 21.176C132.952 21.176 131.987 20.7813 131.187 19.992C130.398 19.192 130.003 18.2267 130.003 17.096ZM140.96 21V14.312H138.336V13.208H144.8V14.312H142.176V21H140.96ZM152.885 18.648C152.885 19.352 152.629 19.9227 152.117 20.36C151.615 20.7867 150.949 21 150.117 21H146.501V13.208H149.717C150.485 13.208 151.093 13.3947 151.541 13.768C151.999 14.1413 152.229 14.6427 152.229 15.272C152.229 15.9227 151.957 16.424 151.413 16.776C152.394 17.1173 152.885 17.7413 152.885 18.648ZM147.733 14.312V16.392H149.733C150.586 16.392 151.013 16.04 151.013 15.336C151.013 14.6533 150.586 14.312 149.733 14.312H147.733ZM151.653 18.648C151.653 18.2853 151.509 18.0027 151.221 17.8C150.943 17.5867 150.549 17.48 150.037 17.48H147.733V19.912H150.037C150.538 19.912 150.933 19.8 151.221 19.576C151.509 19.3413 151.653 19.032 151.653 18.648ZM162.084 17.48H155.924C155.998 18.248 156.302 18.8667 156.836 19.336C157.369 19.8053 158.02 20.04 158.788 20.04C159.673 20.04 160.468 19.688 161.172 18.984L161.892 19.816C161.017 20.7227 159.977 21.176 158.772 21.176C157.609 21.176 156.628 20.7867 155.828 20.008C155.038 19.2187 154.644 18.2533 154.644 17.112C154.644 15.9813 155.028 15.0213 155.796 14.232C156.574 13.432 157.518 13.032 158.628 13.032C159.641 13.032 160.484 13.3627 161.156 14.024C161.838 14.6853 162.18 15.528 162.18 16.552C162.18 16.8507 162.148 17.16 162.084 17.48ZM155.972 16.392H160.916C160.905 15.7093 160.681 15.1653 160.244 14.76C159.806 14.3547 159.257 14.152 158.596 14.152C157.945 14.152 157.38 14.36 156.9 14.776C156.42 15.1813 156.11 15.72 155.972 16.392ZM164.344 21V13.208H165.576V16.312H169.4V13.208H170.632V21H169.4V17.4H165.576V21H164.344ZM173.329 21V13.208H174.561V16.312H178.385V13.208H179.617V21H178.385V17.4H174.561V21H173.329ZM181.753 17.096C181.732 15.9867 182.126 15.0267 182.937 14.216C183.758 13.4053 184.724 13.0107 185.833 13.032C186.953 13.0107 187.918 13.4053 188.729 14.216C189.54 15.0267 189.934 15.9867 189.913 17.096C189.934 18.1947 189.534 19.1547 188.713 19.976C187.892 20.7867 186.926 21.1813 185.817 21.16C184.708 21.1813 183.748 20.7867 182.937 19.976C182.126 19.1547 181.732 18.1947 181.753 17.096ZM188.649 17.112C188.649 16.28 188.377 15.5813 187.833 15.016C187.3 14.4507 186.633 14.168 185.833 14.168C185.033 14.168 184.361 14.4507 183.817 15.016C183.284 15.5707 183.017 16.2693 183.017 17.112C183.017 17.9333 183.284 18.6267 183.817 19.192C184.361 19.7467 185.028 20.024 185.817 20.024C186.606 20.024 187.273 19.7413 187.817 19.176C188.372 18.6107 188.649 17.9227 188.649 17.112ZM192.079 21V13.208H197.327V14.312H193.311V21H192.079ZM198.113 17.096C198.091 15.9867 198.486 15.0267 199.297 14.216C200.118 13.4053 201.083 13.0107 202.193 13.032C203.313 13.0107 204.278 13.4053 205.089 14.216C205.899 15.0267 206.294 15.9867 206.273 17.096C206.294 18.1947 205.894 19.1547 205.073 19.976C204.251 20.7867 203.286 21.1813 202.177 21.16C201.067 21.1813 200.107 20.7867 199.297 19.976C198.486 19.1547 198.091 18.1947 198.113 17.096ZM205.009 17.112C205.009 16.28 204.737 15.5813 204.193 15.016C203.659 14.4507 202.993 14.168 202.193 14.168C201.393 14.168 200.721 14.4507 200.177 15.016C199.643 15.5707 199.377 16.2693 199.377 17.112C199.377 17.9333 199.643 18.6267 200.177 19.192C200.721 19.7467 201.387 20.024 202.177 20.024C202.966 20.024 203.633 19.7413 204.177 19.176C204.731 18.6107 205.009 17.9227 205.009 17.112ZM212.187 17.032C212.165 15.9013 212.576 14.9253 213.419 14.104C214.261 13.2827 215.264 12.8827 216.427 12.904C217.589 12.8827 218.592 13.2827 219.435 14.104C220.288 14.9253 220.704 15.9013 220.683 17.032C220.704 18.1627 220.288 19.144 219.435 19.976C218.581 20.7973 217.573 21.1973 216.411 21.176C215.248 21.1973 214.245 20.7973 213.403 19.976C212.571 19.144 212.165 18.1627 212.187 17.032ZM217.883 18.584C218.277 18.1787 218.475 17.6667 218.475 17.048C218.475 16.4293 218.277 15.912 217.883 15.496C217.499 15.08 217.013 14.872 216.427 14.872C215.829 14.872 215.339 15.08 214.955 15.496C214.571 15.9013 214.379 16.4187 214.379 17.048C214.379 17.6667 214.571 18.1787 214.955 18.584C215.339 18.9893 215.829 19.192 216.427 19.192C217.013 19.192 217.499 18.9893 217.883 18.584ZM228.561 21.144V23.88H226.417V21.144C225.084 21.0587 224.001 20.6587 223.169 19.944C222.337 19.2187 221.921 18.248 221.921 17.032C221.921 15.784 222.332 14.8027 223.153 14.088C223.985 13.3627 225.073 12.968 226.417 12.904V9H228.561V12.904C229.894 12.9893 230.977 13.4 231.809 14.136C232.641 14.8613 233.057 15.8267 233.057 17.032C233.057 18.2693 232.641 19.2507 231.809 19.976C230.988 20.6907 229.905 21.08 228.561 21.144ZM226.465 19.32V14.744C225.708 14.7867 225.116 15.0053 224.689 15.4C224.273 15.7947 224.065 16.344 224.065 17.048C224.065 17.72 224.278 18.2533 224.705 18.648C225.132 19.0427 225.718 19.2667 226.465 19.32ZM230.913 17C230.913 16.328 230.694 15.7893 230.257 15.384C229.83 14.9787 229.249 14.7653 228.513 14.744V19.32C229.27 19.2773 229.857 19.0587 230.273 18.664C230.7 18.2587 230.913 17.704 230.913 17ZM241.384 12.904H242.088V21H239.928V16.712L235.512 21.192H234.808V13.08H236.952V17.4L241.384 12.904ZM243.827 17.032C243.827 15.88 244.238 14.904 245.059 14.104C245.88 13.304 246.883 12.904 248.067 12.904C249.624 12.904 250.771 13.5547 251.507 14.856L250.003 16.024C249.47 15.256 248.835 14.872 248.099 14.872C247.491 14.872 246.99 15.08 246.595 15.496C246.211 15.9013 246.019 16.4133 246.019 17.032C246.019 17.6613 246.211 18.184 246.595 18.6C246.99 19.0053 247.491 19.208 248.099 19.208C248.835 19.208 249.47 18.8293 250.003 18.072L251.507 19.224C251.155 19.8427 250.68 20.328 250.083 20.68C249.496 21.0213 248.824 21.192 248.067 21.192C246.904 21.2133 245.902 20.8133 245.059 19.992C244.216 19.16 243.806 18.1733 243.827 17.032ZM259.743 16.296V21H257.759V20.232C257.141 20.872 256.335 21.192 255.343 21.192C254.511 21.192 253.845 20.9733 253.343 20.536C252.853 20.0987 252.607 19.528 252.607 18.824C252.607 18.1093 252.874 17.5493 253.407 17.144C253.951 16.728 254.682 16.52 255.599 16.52H257.583V16.168C257.583 15.72 257.455 15.3787 257.199 15.144C256.954 14.8987 256.591 14.776 256.111 14.776C255.717 14.776 255.359 14.8613 255.039 15.032C254.719 15.2027 254.378 15.48 254.015 15.864L252.895 14.536C253.813 13.448 254.965 12.904 256.351 12.904C257.397 12.904 258.223 13.2027 258.831 13.8C259.439 14.3867 259.743 15.2187 259.743 16.296ZM257.583 18.04V17.944H255.887C255.151 17.944 254.783 18.2107 254.783 18.744C254.783 19.0107 254.885 19.224 255.087 19.384C255.301 19.5333 255.578 19.608 255.919 19.608C256.399 19.608 256.794 19.464 257.103 19.176C257.423 18.8773 257.583 18.4987 257.583 18.04ZM262.19 23.864L262.398 19.56H263.854L263.198 23.864H262.19ZM271.079 21V13.208H277.303V21H276.055V14.312H272.311V21H271.079ZM286.881 17.48H280.721C280.795 18.248 281.099 18.8667 281.633 19.336C282.166 19.8053 282.817 20.04 283.585 20.04C284.47 20.04 285.265 19.688 285.969 18.984L286.689 19.816C285.814 20.7227 284.774 21.176 283.569 21.176C282.406 21.176 281.425 20.7867 280.625 20.008C279.835 19.2187 279.441 18.2533 279.441 17.112C279.441 15.9813 279.825 15.0213 280.593 14.232C281.371 13.432 282.315 13.032 283.425 13.032C284.438 13.032 285.281 13.3627 285.953 14.024C286.635 14.6853 286.977 15.528 286.977 16.552C286.977 16.8507 286.945 17.16 286.881 17.48ZM280.769 16.392H285.713C285.702 15.7093 285.478 15.1653 285.041 14.76C284.603 14.3547 284.054 14.152 283.393 14.152C282.742 14.152 282.177 14.36 281.697 14.776C281.217 15.1813 280.907 15.72 280.769 16.392ZM295.989 14.2C296.725 14.9787 297.093 15.944 297.093 17.096C297.093 18.248 296.72 19.2187 295.973 20.008C295.237 20.7867 294.325 21.176 293.237 21.176C292.011 21.176 291.056 20.744 290.373 19.88V23.88H289.141V13.208H290.293V14.456C290.592 14.008 291.003 13.6613 291.525 13.416C292.048 13.16 292.619 13.032 293.237 13.032C294.347 13.032 295.264 13.4213 295.989 14.2ZM295.029 19.208C295.563 18.6533 295.829 17.9547 295.829 17.112C295.829 16.2693 295.563 15.5707 295.029 15.016C294.507 14.4507 293.851 14.168 293.061 14.168C292.315 14.168 291.675 14.424 291.141 14.936C290.619 15.448 290.357 16.168 290.357 17.096C290.357 18.0453 290.613 18.776 291.125 19.288C291.648 19.7893 292.293 20.04 293.061 20.04C293.851 20.04 294.507 19.7627 295.029 19.208ZM306.131 17.48H299.971C300.045 18.248 300.349 18.8667 300.883 19.336C301.416 19.8053 302.067 20.04 302.835 20.04C303.72 20.04 304.515 19.688 305.219 18.984L305.939 19.816C305.064 20.7227 304.024 21.176 302.819 21.176C301.656 21.176 300.675 20.7867 299.875 20.008C299.085 19.2187 298.691 18.2533 298.691 17.112C298.691 15.9813 299.075 15.0213 299.843 14.232C300.621 13.432 301.565 13.032 302.675 13.032C303.688 13.032 304.531 13.3627 305.203 14.024C305.885 14.6853 306.227 15.528 306.227 16.552C306.227 16.8507 306.195 17.16 306.131 17.48ZM300.019 16.392H304.963C304.952 15.7093 304.728 15.1653 304.291 14.76C303.853 14.3547 303.304 14.152 302.643 14.152C301.992 14.152 301.427 14.36 300.947 14.776C300.467 15.1813 300.157 15.72 300.019 16.392ZM314.413 21H312.989L310.765 17.8L308.557 21H307.117L310.013 16.936L307.357 13.208H308.781L310.765 16.072L312.765 13.208H314.189L311.485 16.936L314.413 21ZM315.316 17.096C315.294 15.9867 315.689 15.0267 316.5 14.216C317.321 13.4053 318.286 13.0107 319.396 13.032C320.516 13.0107 321.481 13.4053 322.292 14.216C323.102 15.0267 323.497 15.9867 323.476 17.096C323.497 18.1947 323.097 19.1547 322.276 19.976C321.454 20.7867 320.489 21.1813 319.38 21.16C318.27 21.1813 317.31 20.7867 316.5 19.976C315.689 19.1547 315.294 18.1947 315.316 17.096ZM322.212 17.112C322.212 16.28 321.94 15.5813 321.396 15.016C320.862 14.4507 320.196 14.168 319.396 14.168C318.596 14.168 317.924 14.4507 317.38 15.016C316.846 15.5707 316.58 16.2693 316.58 17.112C316.58 17.9333 316.846 18.6267 317.38 19.192C317.924 19.7467 318.59 20.024 319.38 20.024C320.169 20.024 320.836 19.7413 321.38 19.176C321.934 18.6107 322.212 17.9227 322.212 17.112ZM331.455 19.912H332.719V23.256H331.487V21H325.359V23.256H324.127V19.912H325.007C325.647 19.2507 325.988 17.7467 326.031 15.4L326.079 13.208H331.455V19.912ZM326.303 19.912H330.223V14.312H327.247L327.199 15.416C327.146 17.6453 326.847 19.144 326.303 19.912ZM22.8 38.096C22.7787 36.9867 23.1733 36.0267 23.984 35.216C24.8053 34.4053 25.7707 34.0107 26.88 34.032C28 34.0107 28.9653 34.4053 29.776 35.216C30.5867 36.0267 30.9813 36.9867 30.96 38.096C30.9813 39.1947 30.5813 40.1547 29.76 40.976C28.9387 41.7867 27.9733 42.1813 26.864 42.16C25.7547 42.1813 24.7947 41.7867 23.984 40.976C23.1733 40.1547 22.7787 39.1947 22.8 38.096ZM29.696 38.112C29.696 37.28 29.424 36.5813 28.88 36.016C28.3467 35.4507 27.68 35.168 26.88 35.168C26.08 35.168 25.408 35.4507 24.864 36.016C24.3307 36.5707 24.064 37.2693 24.064 38.112C24.064 38.9333 24.3307 39.6267 24.864 40.192C25.408 40.7467 26.0747 41.024 26.864 41.024C27.6533 41.024 28.32 40.7413 28.864 40.176C29.4187 39.6107 29.696 38.9227 29.696 38.112ZM34.5846 42V35.312H31.9606V34.208H38.4246V35.312H35.8006V42H34.5846ZM50.994 39.648C50.994 40.352 50.738 40.9227 50.226 41.36C49.7247 41.7867 49.058 42 48.226 42H44.61V34.208H47.826C48.594 34.208 49.202 34.3947 49.65 34.768C50.1087 35.1413 50.338 35.6427 50.338 36.272C50.338 36.9227 50.066 37.424 49.522 37.776C50.5033 38.1173 50.994 38.7413 50.994 39.648ZM45.842 35.312V37.392H47.842C48.6953 37.392 49.122 37.04 49.122 36.336C49.122 35.6533 48.6953 35.312 47.842 35.312H45.842ZM49.762 39.648C49.762 39.2853 49.618 39.0027 49.33 38.8C49.0527 38.5867 48.658 38.48 48.146 38.48H45.842V40.912H48.146C48.6473 40.912 49.042 40.8 49.33 40.576C49.618 40.3413 49.762 40.032 49.762 39.648ZM59.2971 34.032H59.7451V42H58.5131V36.496L53.7611 42.176H53.3131V34.208H54.5451V39.728L59.2971 34.032ZM69.3018 35.2C70.0378 35.9787 70.4058 36.944 70.4058 38.096C70.4058 39.248 70.0324 40.2187 69.2858 41.008C68.5498 41.7867 67.6378 42.176 66.5498 42.176C65.3231 42.176 64.3684 41.744 63.6858 40.88V44.88H62.4538V34.208H63.6058V35.456C63.9044 35.008 64.3151 34.6613 64.8378 34.416C65.3604 34.16 65.9311 34.032 66.5498 34.032C67.6591 34.032 68.5764 34.4213 69.3018 35.2ZM68.3418 40.208C68.8751 39.6533 69.1418 38.9547 69.1418 38.112C69.1418 37.2693 68.8751 36.5707 68.3418 36.016C67.8191 35.4507 67.1631 35.168 66.3738 35.168C65.6271 35.168 64.9871 35.424 64.4538 35.936C63.9311 36.448 63.6698 37.168 63.6698 38.096C63.6698 39.0453 63.9258 39.776 64.4378 40.288C64.9604 40.7893 65.6058 41.04 66.3738 41.04C67.1631 41.04 67.8191 40.7627 68.3418 40.208ZM74.0221 42V35.312H71.3981V34.208H77.8621V35.312H75.2381V42H74.0221ZM85.1773 34.208H86.4893L82.6493 43.088C82.0733 44.4 81.1933 45.056 80.0093 45.056C79.5933 45.056 79.1933 45.0027 78.8092 44.896V43.856C79.2573 43.9093 79.5719 43.936 79.7533 43.936C80.1799 43.936 80.5319 43.84 80.8093 43.648C81.0866 43.4667 81.3213 43.1467 81.5133 42.688L81.9293 41.76L78.6973 34.208H80.0253L82.6013 40.416L85.1773 34.208ZM93.9031 37.2V42H92.7511V40.992C92.1538 41.7813 91.2791 42.176 90.1271 42.176C89.3165 42.176 88.6605 41.9787 88.1591 41.584C87.6578 41.1787 87.4071 40.6453 87.4071 39.984C87.4071 39.3227 87.6631 38.7947 88.1751 38.4C88.6871 38.0053 89.3645 37.808 90.2071 37.808H92.6711V37.136C92.6711 36.5067 92.5005 36.0213 92.1591 35.68C91.8285 35.3387 91.3698 35.168 90.7831 35.168C89.9085 35.168 89.1511 35.584 88.5111 36.416L87.6951 35.744C88.3885 34.6027 89.4445 34.032 90.8631 34.032C91.8018 34.032 92.5431 34.3093 93.0871 34.864C93.6311 35.408 93.9031 36.1867 93.9031 37.2ZM92.6711 39.008V38.816H90.3511C89.2311 38.816 88.6711 39.184 88.6711 39.92C88.6711 40.304 88.8205 40.608 89.1191 40.832C89.4285 41.0453 89.8178 41.152 90.2871 41.152C90.9378 41.152 91.4978 40.944 91.9671 40.528C92.4365 40.112 92.6711 39.6053 92.6711 39.008ZM97.1243 34.208H102.404V42H101.172V35.312H98.2763L98.2443 36.272C98.1696 38.3733 97.9563 39.856 97.6043 40.72C97.2523 41.584 96.6283 42.032 95.7323 42.064C95.5723 42.064 95.4336 42.0427 95.3163 42V40.96C95.4869 40.9813 95.5936 40.992 95.6363 40.992C96.1269 40.992 96.4789 40.6133 96.6923 39.856C96.9163 39.0987 97.0443 37.8933 97.0763 36.24L97.1243 34.208ZM105.126 42V34.208H106.358V36.896H108.214C109.099 36.896 109.803 37.1307 110.326 37.6C110.859 38.0587 111.126 38.672 111.126 39.44C111.126 40.208 110.859 40.8267 110.326 41.296C109.803 41.7653 109.099 42 108.214 42H105.126ZM106.358 40.912H108.15C108.683 40.912 109.099 40.784 109.398 40.528C109.707 40.2613 109.862 39.904 109.862 39.456C109.862 39.008 109.707 38.6507 109.398 38.384C109.088 38.1173 108.667 37.984 108.134 37.984H106.358V40.912ZM113.282 42V34.208H114.514V37.312H118.338V34.208H119.57V42H118.338V38.4H114.514V42H113.282ZM121.706 38.096C121.685 36.9867 122.08 36.0267 122.89 35.216C123.712 34.4053 124.677 34.0107 125.786 34.032C126.906 34.0107 127.872 34.4053 128.682 35.216C129.493 36.0267 129.888 36.9867 129.866 38.096C129.888 39.1947 129.488 40.1547 128.666 40.976C127.845 41.7867 126.88 42.1813 125.77 42.16C124.661 42.1813 123.701 41.7867 122.89 40.976C122.08 40.1547 121.685 39.1947 121.706 38.096ZM128.602 38.112C128.602 37.28 128.33 36.5813 127.786 36.016C127.253 35.4507 126.586 35.168 125.786 35.168C124.986 35.168 124.314 35.4507 123.77 36.016C123.237 36.5707 122.97 37.2693 122.97 38.112C122.97 38.9333 123.237 39.6267 123.77 40.192C124.314 40.7467 124.981 41.024 125.77 41.024C126.56 41.024 127.226 40.7413 127.77 40.176C128.325 39.6107 128.602 38.9227 128.602 38.112ZM138.016 34.032H138.464V42H137.232V36.496L132.48 42.176H132.032V34.208H133.264V39.728L138.016 34.032ZM133.008 30.304V29.808H134.048V30.272C134.048 30.7947 134.165 31.2 134.4 31.488C134.645 31.7653 134.987 31.904 135.424 31.904C135.872 31.904 136.213 31.7653 136.448 31.488C136.693 31.2 136.816 30.7947 136.816 30.272V29.808H137.856V30.304C137.856 31.0613 137.632 31.6747 137.184 32.144C136.747 32.6027 136.16 32.832 135.424 32.832C134.699 32.832 134.112 32.6027 133.664 32.144C133.227 31.6747 133.008 31.0613 133.008 30.304ZM145.657 42V34.208H146.889V42H145.657ZM148.553 37.744L152.217 42H150.665L147.049 37.776L150.329 34.208H151.865L148.553 37.744ZM153.097 38.096C153.076 36.9867 153.47 36.0267 154.281 35.216C155.102 34.4053 156.068 34.0107 157.177 34.032C158.297 34.0107 159.262 34.4053 160.073 35.216C160.884 36.0267 161.278 36.9867 161.257 38.096C161.278 39.1947 160.878 40.1547 160.057 40.976C159.236 41.7867 158.27 42.1813 157.161 42.16C156.052 42.1813 155.092 41.7867 154.281 40.976C153.47 40.1547 153.076 39.1947 153.097 38.096ZM159.993 38.112C159.993 37.28 159.721 36.5813 159.177 36.016C158.644 35.4507 157.977 35.168 157.177 35.168C156.377 35.168 155.705 35.4507 155.161 36.016C154.628 36.5707 154.361 37.2693 154.361 38.112C154.361 38.9333 154.628 39.6267 155.161 40.192C155.705 40.7467 156.372 41.024 157.161 41.024C157.95 41.024 158.617 40.7413 159.161 40.176C159.716 39.6107 159.993 38.9227 159.993 38.112ZM163.423 42V34.032H163.871L167.567 38.416L171.247 34.032H171.679V42H170.447V36.736L167.791 39.904H167.311L164.655 36.736V42H163.423ZM180.231 37.2V42H179.079V40.992C178.482 41.7813 177.607 42.176 176.455 42.176C175.645 42.176 174.989 41.9787 174.487 41.584C173.986 41.1787 173.735 40.6453 173.735 39.984C173.735 39.3227 173.991 38.7947 174.503 38.4C175.015 38.0053 175.693 37.808 176.535 37.808H178.999V37.136C178.999 36.5067 178.829 36.0213 178.487 35.68C178.157 35.3387 177.698 35.168 177.111 35.168C176.237 35.168 175.479 35.584 174.839 36.416L174.023 35.744C174.717 34.6027 175.773 34.032 177.191 34.032C178.13 34.032 178.871 34.3093 179.415 34.864C179.959 35.408 180.231 36.1867 180.231 37.2ZM178.999 39.008V38.816H176.679C175.559 38.816 174.999 39.184 174.999 39.92C174.999 40.304 175.149 40.608 175.447 40.832C175.757 41.0453 176.146 41.152 176.615 41.152C177.266 41.152 177.826 40.944 178.295 40.528C178.765 40.112 178.999 39.6053 178.999 39.008ZM182.844 42V34.208H184.076V37.312H187.9V34.208H189.132V42H187.9V38.4H184.076V42H182.844ZM197.877 40.912H199.141V44.256H197.909V42H191.781V44.256H190.549V40.912H191.429C192.069 40.2507 192.41 38.7467 192.453 36.4L192.501 34.208H197.877V40.912ZM192.725 40.912H196.645V35.312H193.669L193.621 36.416C193.567 38.6453 193.269 40.144 192.725 40.912ZM201.079 42V34.208H202.311V36.896H204.167C205.041 36.896 205.745 37.1307 206.279 37.6C206.812 38.0587 207.079 38.672 207.079 39.44C207.079 40.2187 206.812 40.8427 206.279 41.312C205.756 41.7707 205.052 42 204.167 42H201.079ZM208.215 42V34.208H209.447V42H208.215ZM202.311 40.912H204.103C204.657 40.912 205.079 40.7893 205.367 40.544C205.665 40.288 205.815 39.9253 205.815 39.456C205.815 38.9867 205.665 38.624 205.367 38.368C205.068 38.112 204.641 37.984 204.087 37.984H202.311V40.912ZM216.641 42V34.208H217.873V42H216.641ZM219.537 37.744L223.201 42H221.649L218.033 37.776L221.313 34.208H222.849L219.537 37.744ZM236.336 35.088C237.072 35.8667 237.44 36.848 237.44 38.032C237.44 39.216 237.072 40.208 236.336 41.008C235.611 41.7973 234.699 42.192 233.6 42.192C232.608 42.192 231.819 41.872 231.232 41.232V44.88H229.072V34.08H231.056V35.072C231.6 34.2933 232.448 33.904 233.6 33.904C234.699 33.904 235.611 34.2987 236.336 35.088ZM235.248 38.048C235.248 37.3973 235.056 36.8693 234.672 36.464C234.288 36.0587 233.797 35.856 233.2 35.856C232.624 35.856 232.144 36.048 231.76 36.432C231.387 36.816 231.2 37.3493 231.2 38.032C231.2 38.7147 231.387 39.2533 231.76 39.648C232.144 40.032 232.624 40.224 233.2 40.224C233.787 40.224 234.272 40.0213 234.656 39.616C235.051 39.2107 235.248 38.688 235.248 38.048ZM246.415 38.768H240.863C240.991 39.2693 241.247 39.6587 241.631 39.936C242.025 40.2027 242.511 40.336 243.087 40.336C243.865 40.336 244.601 40.0693 245.295 39.536L246.191 41.008C245.241 41.7973 244.185 42.192 243.023 42.192C241.807 42.2133 240.772 41.8187 239.919 41.008C239.076 40.1867 238.665 39.2 238.687 38.048C238.665 36.9067 239.065 35.9253 239.887 35.104C240.708 34.2827 241.689 33.8827 242.831 33.904C243.919 33.904 244.809 34.256 245.503 34.96C246.207 35.664 246.559 36.5387 246.559 37.584C246.559 37.968 246.511 38.3627 246.415 38.768ZM240.863 37.248H244.463C244.452 36.768 244.281 36.384 243.951 36.096C243.631 35.7973 243.231 35.648 242.751 35.648C242.292 35.648 241.892 35.792 241.551 36.08C241.209 36.368 240.98 36.7573 240.863 37.248ZM254.884 37.296V42H252.9V41.232C252.281 41.872 251.476 42.192 250.484 42.192C249.652 42.192 248.985 41.9733 248.484 41.536C247.993 41.0987 247.748 40.528 247.748 39.824C247.748 39.1093 248.015 38.5493 248.548 38.144C249.092 37.728 249.823 37.52 250.74 37.52H252.724V37.168C252.724 36.72 252.596 36.3787 252.34 36.144C252.095 35.8987 251.732 35.776 251.252 35.776C250.857 35.776 250.5 35.8613 250.18 36.032C249.86 36.2027 249.519 36.48 249.156 36.864L248.036 35.536C248.953 34.448 250.105 33.904 251.492 33.904C252.537 33.904 253.364 34.2027 253.972 34.8C254.58 35.3867 254.884 36.2187 254.884 37.296ZM252.724 39.04V38.944H251.028C250.292 38.944 249.924 39.2107 249.924 39.744C249.924 40.0107 250.025 40.224 250.228 40.384C250.441 40.5333 250.719 40.608 251.06 40.608C251.54 40.608 251.935 40.464 252.244 40.176C252.564 39.8773 252.724 39.4987 252.724 39.04ZM257.667 34.08H263.955V42H261.811V35.904H259.683L259.667 36.512C259.613 38.5707 259.384 40.0213 258.979 40.864C258.584 41.696 257.896 42.1227 256.915 42.144C256.616 42.144 256.344 42.096 256.099 42V40.224C256.205 40.2453 256.307 40.256 256.403 40.256C256.84 40.256 257.149 39.9307 257.331 39.28C257.523 38.6293 257.629 37.5253 257.651 35.968L257.667 34.08ZM266.198 42V34.08H268.342V36.368H269.782C270.742 36.368 271.531 36.6187 272.15 37.12C272.769 37.6107 273.078 38.2933 273.078 39.168C273.078 40.032 272.774 40.72 272.166 41.232C271.558 41.744 270.763 42 269.782 42H266.198ZM268.342 40.176H269.718C270.081 40.176 270.363 40.096 270.566 39.936C270.779 39.7653 270.886 39.52 270.886 39.2C270.886 38.8907 270.779 38.6453 270.566 38.464C270.353 38.2827 270.07 38.192 269.718 38.192H268.342V40.176ZM274.823 42V34.08H276.967V36.976H279.895V34.08H282.039V42H279.895V38.816H276.967V42H274.823ZM283.78 38.032C283.759 36.9013 284.17 35.9253 285.012 35.104C285.855 34.2827 286.858 33.8827 288.02 33.904C289.183 33.8827 290.186 34.2827 291.028 35.104C291.882 35.9253 292.298 36.9013 292.276 38.032C292.298 39.1627 291.882 40.144 291.028 40.976C290.175 41.7973 289.167 42.1973 288.004 42.176C286.842 42.1973 285.839 41.7973 284.996 40.976C284.164 40.144 283.759 39.1627 283.78 38.032ZM289.476 39.584C289.871 39.1787 290.068 38.6667 290.068 38.048C290.068 37.4293 289.871 36.912 289.476 36.496C289.092 36.08 288.607 35.872 288.02 35.872C287.423 35.872 286.932 36.08 286.548 36.496C286.164 36.9013 285.972 37.4187 285.972 38.048C285.972 38.6667 286.164 39.1787 286.548 39.584C286.932 39.9893 287.423 40.192 288.02 40.192C288.607 40.192 289.092 39.9893 289.476 39.584ZM300.587 33.904H301.291V42H299.131V37.712L294.715 42.192H294.011V34.08H296.155V38.4L300.587 33.904ZM295.067 30.08V29.632H296.795V30.064C296.795 30.4693 296.885 30.784 297.067 31.008C297.248 31.2213 297.504 31.328 297.835 31.328C298.165 31.328 298.421 31.2213 298.603 31.008C298.784 30.784 298.875 30.4693 298.875 30.064V29.632H300.587V30.08C300.587 30.9013 300.331 31.5733 299.819 32.096C299.307 32.608 298.645 32.864 297.835 32.864C297.013 32.864 296.347 32.608 295.835 32.096C295.323 31.5733 295.067 30.9013 295.067 30.08ZM303.846 44.864L304.054 40.56H305.51L304.854 44.864H303.846ZM28.656 60.76C28.656 61.496 28.384 62.0827 27.84 62.52C27.3067 62.9573 26.5973 63.176 25.712 63.176C24.4533 63.176 23.456 62.6747 22.72 61.672L23.552 60.936C24.1067 61.672 24.8213 62.04 25.696 62.04C26.2293 62.04 26.6453 61.9173 26.944 61.672C27.2427 61.4267 27.392 61.096 27.392 60.68C27.392 60.296 27.2427 59.992 26.944 59.768C26.6453 59.5333 26.2293 59.416 25.696 59.416H24.848V58.328H25.68C26.5867 58.328 27.04 57.9653 27.04 57.24C27.04 56.9093 26.9173 56.648 26.672 56.456C26.4373 56.264 26.096 56.168 25.648 56.168C24.8693 56.168 24.2187 56.488 23.696 57.128L22.864 56.392C23.5253 55.4853 24.4693 55.032 25.696 55.032C26.4747 55.032 27.0933 55.224 27.552 55.608C28.0213 55.9813 28.256 56.4987 28.256 57.16C28.256 57.896 27.9467 58.456 27.328 58.84C28.2133 59.192 28.656 59.832 28.656 60.76ZM36.6844 58.2V63H35.5324V61.992C34.935 62.7813 34.0604 63.176 32.9084 63.176C32.0977 63.176 31.4417 62.9787 30.9404 62.584C30.439 62.1787 30.1884 61.6453 30.1884 60.984C30.1884 60.3227 30.4444 59.7947 30.9564 59.4C31.4684 59.0053 32.1457 58.808 32.9884 58.808H35.4524V58.136C35.4524 57.5067 35.2817 57.0213 34.9404 56.68C34.6097 56.3387 34.151 56.168 33.5644 56.168C32.6897 56.168 31.9324 56.584 31.2924 57.416L30.4764 56.744C31.1697 55.6027 32.2257 55.032 33.6444 55.032C34.583 55.032 35.3244 55.3093 35.8684 55.864C36.4124 56.408 36.6844 57.1867 36.6844 58.2ZM35.4524 60.008V59.816H33.1324C32.0124 59.816 31.4524 60.184 31.4524 60.92C31.4524 61.304 31.6017 61.608 31.9004 61.832C32.2097 62.0453 32.599 62.152 33.0684 62.152C33.719 62.152 34.279 61.944 34.7484 61.528C35.2177 61.112 35.4524 60.6053 35.4524 60.008ZM39.2975 63V55.208H45.5215V63H44.2735V56.312H40.5295V63H39.2975ZM53.7554 55.208H55.0674L51.2274 64.088C50.6514 65.4 49.7714 66.056 48.5874 66.056C48.1714 66.056 47.7714 66.0027 47.3874 65.896V64.856C47.8354 64.9093 48.15 64.936 48.3314 64.936C48.758 64.936 49.11 64.84 49.3874 64.648C49.6647 64.4667 49.8994 64.1467 50.0914 63.688L50.5074 62.76L47.2754 55.208H48.6034L51.1794 61.416L53.7554 55.208ZM55.9719 59.096C55.9505 57.9867 56.3452 57.0267 57.1559 56.216C57.9665 55.4053 58.9319 55.0107 60.0519 55.032C60.7239 55.032 61.3372 55.1813 61.8919 55.48C62.4465 55.7787 62.9052 56.1947 63.2679 56.728L62.3879 57.432C61.7692 56.5893 60.9959 56.168 60.0679 56.168C59.2679 56.168 58.5959 56.456 58.0519 57.032C57.5079 57.5973 57.2359 58.2853 57.2359 59.096C57.2359 59.9173 57.5079 60.616 58.0519 61.192C58.5959 61.7573 59.2679 62.04 60.0679 62.04C60.9852 62.04 61.7532 61.624 62.3719 60.792L63.2519 61.48C62.4839 62.6107 61.4172 63.176 60.0519 63.176C58.9212 63.176 57.9559 62.7813 57.1559 61.992C56.3665 61.192 55.9719 60.2267 55.9719 59.096ZM65.3444 63V55.208H66.5764V63H65.3444ZM68.2404 58.744L71.9044 63H70.3524L66.7364 58.776L70.0164 55.208H71.5524L68.2404 58.744ZM84.8791 60.584C84.8791 61.288 84.6071 61.8693 84.0631 62.328C83.5298 62.776 82.8525 63 82.0311 63H77.8231V55.08H81.5031C82.3245 55.08 82.9911 55.2827 83.5031 55.688C84.0258 56.0933 84.2871 56.632 84.2871 57.304C84.2871 57.88 84.0738 58.3653 83.6471 58.76C84.4685 59.1227 84.8791 59.7307 84.8791 60.584ZM79.8711 56.696V58.168H81.3751C82.0151 58.168 82.3351 57.9227 82.3351 57.432C82.3351 56.9413 82.0151 56.696 81.3751 56.696H79.8711ZM82.5911 61.16C82.7938 61 82.8951 60.7867 82.8951 60.52C82.8951 60.2533 82.7938 60.0453 82.5911 59.896C82.3991 59.7467 82.1325 59.672 81.7911 59.672H79.8711V61.4H81.7911C82.1325 61.4 82.3991 61.32 82.5911 61.16ZM93.2429 54.904H93.9469V63H91.7869V58.712L87.3709 63.192H86.6669V55.08H88.8109V59.4L93.2429 54.904ZM103.415 61.176H104.727V65.256H102.663V63H97.2545V65.256H95.1905V61.176H96.0385C96.3585 60.8667 96.5878 60.392 96.7265 59.752C96.8758 59.112 96.9718 58.2107 97.0145 57.048L97.0785 55.08H103.415V61.176ZM98.2465 61.176H101.271V56.904H98.9985L98.9825 57.368C98.9292 59.0427 98.6838 60.312 98.2465 61.176ZM113.43 59.768H107.878C108.006 60.2693 108.262 60.6587 108.646 60.936C109.041 61.2027 109.526 61.336 110.102 61.336C110.881 61.336 111.617 61.0693 112.31 60.536L113.206 62.008C112.257 62.7973 111.201 63.192 110.038 63.192C108.822 63.2133 107.787 62.8187 106.934 62.008C106.091 61.1867 105.681 60.2 105.702 59.048C105.681 57.9067 106.081 56.9253 106.902 56.104C107.723 55.2827 108.705 54.8827 109.846 54.904C110.934 54.904 111.825 55.256 112.518 55.96C113.222 56.664 113.574 57.5387 113.574 58.584C113.574 58.968 113.526 59.3627 113.43 59.768ZM107.878 58.248H111.478C111.467 57.768 111.297 57.384 110.966 57.096C110.646 56.7973 110.246 56.648 109.766 56.648C109.307 56.648 108.907 56.792 108.566 57.08C108.225 57.368 107.995 57.7573 107.878 58.248ZM114.812 59.032C114.79 57.9013 115.201 56.9253 116.044 56.104C116.886 55.2827 117.889 54.8827 119.052 54.904C120.214 54.8827 121.217 55.2827 122.06 56.104C122.913 56.9253 123.329 57.9013 123.308 59.032C123.329 60.1627 122.913 61.144 122.06 61.976C121.206 62.7973 120.198 63.1973 119.036 63.176C117.873 63.1973 116.87 62.7973 116.028 61.976C115.196 61.144 114.79 60.1627 114.812 59.032ZM120.508 60.584C120.902 60.1787 121.1 59.6667 121.1 59.048C121.1 58.4293 120.902 57.912 120.508 57.496C120.124 57.08 119.638 56.872 119.052 56.872C118.454 56.872 117.964 57.08 117.58 57.496C117.196 57.9013 117.004 58.4187 117.004 59.048C117.004 59.6667 117.196 60.1787 117.58 60.584C117.964 60.9893 118.454 61.192 119.052 61.192C119.638 61.192 120.124 60.9893 120.508 60.584ZM124.642 58.776V56.968H128.674V58.776H124.642ZM130.511 63V55.08H137.631V63H135.471V56.904H132.655V63H130.511ZM147.086 56.088C147.822 56.8667 148.19 57.848 148.19 59.032C148.19 60.216 147.822 61.208 147.086 62.008C146.361 62.7973 145.449 63.192 144.35 63.192C143.358 63.192 142.569 62.872 141.982 62.232V65.88H139.822V55.08H141.806V56.072C142.35 55.2933 143.198 54.904 144.35 54.904C145.449 54.904 146.361 55.2987 147.086 56.088ZM145.998 59.048C145.998 58.3973 145.806 57.8693 145.422 57.464C145.038 57.0587 144.547 56.856 143.95 56.856C143.374 56.856 142.894 57.048 142.51 57.432C142.137 57.816 141.95 58.3493 141.95 59.032C141.95 59.7147 142.137 60.2533 142.51 60.648C142.894 61.032 143.374 61.224 143.95 61.224C144.537 61.224 145.022 61.0213 145.406 60.616C145.801 60.2107 145.998 59.688 145.998 59.048ZM149.437 59.032C149.415 57.9013 149.826 56.9253 150.669 56.104C151.511 55.2827 152.514 54.8827 153.677 54.904C154.839 54.8827 155.842 55.2827 156.685 56.104C157.538 56.9253 157.954 57.9013 157.933 59.032C157.954 60.1627 157.538 61.144 156.685 61.976C155.831 62.7973 154.823 63.1973 153.661 63.176C152.498 63.1973 151.495 62.7973 150.653 61.976C149.821 61.144 149.415 60.1627 149.437 59.032ZM155.133 60.584C155.527 60.1787 155.725 59.6667 155.725 59.048C155.725 58.4293 155.527 57.912 155.133 57.496C154.749 57.08 154.263 56.872 153.677 56.872C153.079 56.872 152.589 57.08 152.205 57.496C151.821 57.9013 151.629 58.4187 151.629 59.048C151.629 59.6667 151.821 60.1787 152.205 60.584C152.589 60.9893 153.079 61.192 153.677 61.192C154.263 61.192 154.749 60.9893 155.133 60.584ZM166.665 61.176H167.977V65.256H165.913V63H160.505V65.256H158.441V61.176H159.289C159.609 60.8667 159.838 60.392 159.977 59.752C160.126 59.112 160.222 58.2107 160.265 57.048L160.329 55.08H166.665V61.176ZM161.497 61.176H164.521V56.904H162.249L162.233 57.368C162.179 59.0427 161.934 60.312 161.497 61.176ZM176.196 58.296V63H174.212V62.232C173.594 62.872 172.788 63.192 171.796 63.192C170.964 63.192 170.298 62.9733 169.796 62.536C169.306 62.0987 169.06 61.528 169.06 60.824C169.06 60.1093 169.327 59.5493 169.86 59.144C170.404 58.728 171.135 58.52 172.052 58.52H174.036V58.168C174.036 57.72 173.908 57.3787 173.652 57.144C173.407 56.8987 173.044 56.776 172.564 56.776C172.17 56.776 171.812 56.8613 171.492 57.032C171.172 57.2027 170.831 57.48 170.468 57.864L169.348 56.536C170.266 55.448 171.418 54.904 172.804 54.904C173.85 54.904 174.676 55.2027 175.284 55.8C175.892 56.3867 176.196 57.2187 176.196 58.296ZM174.036 60.04V59.944H172.34C171.604 59.944 171.236 60.2107 171.236 60.744C171.236 61.0107 171.338 61.224 171.54 61.384C171.754 61.5333 172.031 61.608 172.372 61.608C172.852 61.608 173.247 61.464 173.556 61.176C173.876 60.8773 174.036 60.4987 174.036 60.04ZM186.163 63H183.603L180.467 58.808V63H178.323V55.08H180.467V58.776L183.459 55.08H185.907L182.915 58.696L186.163 63ZM187.417 63V55.08H189.561V61.176H192.105V55.08H194.249V61.176H196.793V55.08H198.937V63H187.417ZM208.399 59.768H202.847C202.975 60.2693 203.231 60.6587 203.615 60.936C204.01 61.2027 204.495 61.336 205.071 61.336C205.85 61.336 206.586 61.0693 207.279 60.536L208.175 62.008C207.226 62.7973 206.17 63.192 205.007 63.192C203.791 63.2133 202.756 62.8187 201.903 62.008C201.06 61.1867 200.65 60.2 200.671 59.048C200.65 57.9067 201.05 56.9253 201.871 56.104C202.692 55.2827 203.674 54.8827 204.815 54.904C205.903 54.904 206.794 55.256 207.487 55.96C208.191 56.664 208.543 57.5387 208.543 58.584C208.543 58.968 208.495 59.3627 208.399 59.768ZM202.847 58.248H206.447C206.436 57.768 206.266 57.384 205.935 57.096C205.615 56.7973 205.215 56.648 204.735 56.648C204.276 56.648 203.876 56.792 203.535 57.08C203.194 57.368 202.964 57.7573 202.847 58.248ZM210.276 63V55.08H212.42V57.976H215.348V55.08H217.492V63H215.348V59.816H212.42V63H210.276ZM226.321 58.296V63H224.337V62.232C223.719 62.872 222.913 63.192 221.921 63.192C221.089 63.192 220.423 62.9733 219.921 62.536C219.431 62.0987 219.185 61.528 219.185 60.824C219.185 60.1093 219.452 59.5493 219.985 59.144C220.529 58.728 221.26 58.52 222.177 58.52H224.161V58.168C224.161 57.72 224.033 57.3787 223.777 57.144C223.532 56.8987 223.169 56.776 222.689 56.776C222.295 56.776 221.937 56.8613 221.617 57.032C221.297 57.2027 220.956 57.48 220.593 57.864L219.473 56.536C220.391 55.448 221.543 54.904 222.929 54.904C223.975 54.904 224.801 55.2027 225.409 55.8C226.017 56.3867 226.321 57.2187 226.321 58.296ZM224.161 60.04V59.944H222.465C221.729 59.944 221.361 60.2107 221.361 60.744C221.361 61.0107 221.463 61.224 221.665 61.384C221.879 61.5333 222.156 61.608 222.497 61.608C222.977 61.608 223.372 61.464 223.681 61.176C224.001 60.8773 224.161 60.4987 224.161 60.04Z" fill="white"/>
</svg>
