<svg width="301" height="55" viewBox="0 0 301 55" fill="none" xmlns="http://www.w3.org/2000/svg">
<path fill-rule="evenodd" clip-rule="evenodd" d="M7 0H301V55H7V0Z" fill="#503655"/>
<path fill-rule="evenodd" clip-rule="evenodd" d="M0 15L7 8L7 22L0 15Z" fill="#503655"/>
<path d="M23.456 22V11.44H27.168C28.1813 11.44 28.9973 11.728 29.616 12.304C30.2347 12.8693 30.544 13.6 30.544 14.496C30.544 15.4027 30.2347 16.144 29.616 16.72C28.9973 17.296 28.1813 17.584 27.168 17.584H24.704V22H23.456ZM24.704 16.464H27.136C27.7973 16.464 28.3147 16.288 28.688 15.936C29.0613 15.584 29.248 15.1093 29.248 14.512C29.248 13.9253 29.0613 13.456 28.688 13.104C28.3147 12.7413 27.7973 12.56 27.136 12.56H24.704V16.464ZM38.2 17.2V22H37.048V20.992C36.4507 21.7813 35.576 22.176 34.424 22.176C33.6133 22.176 32.9573 21.9787 32.456 21.584C31.9547 21.1787 31.704 20.6453 31.704 19.984C31.704 19.3227 31.96 18.7947 32.472 18.4C32.984 18.0053 33.6613 17.808 34.504 17.808H36.968V17.136C36.968 16.5067 36.7973 16.0213 36.456 15.68C36.1253 15.3387 35.6667 15.168 35.08 15.168C34.2053 15.168 33.448 15.584 32.808 16.416L31.992 15.744C32.6853 14.6027 33.7413 14.032 35.16 14.032C36.0987 14.032 36.84 14.3093 37.384 14.864C37.928 15.408 38.2 16.1867 38.2 17.2ZM36.968 19.008V18.816H34.648C33.528 18.816 32.968 19.184 32.968 19.92C32.968 20.304 33.1173 20.608 33.416 20.832C33.7253 21.0453 34.1147 21.152 34.584 21.152C35.2347 21.152 35.7947 20.944 36.264 20.528C36.7333 20.112 36.968 19.6053 36.968 19.008ZM46.1091 19.76C46.1091 20.496 45.8371 21.0827 45.2931 21.52C44.7598 21.9573 44.0505 22.176 43.1651 22.176C41.9065 22.176 40.9091 21.6747 40.1731 20.672L41.0051 19.936C41.5598 20.672 42.2745 21.04 43.1491 21.04C43.6825 21.04 44.0985 20.9173 44.3971 20.672C44.6958 20.4267 44.8451 20.096 44.8451 19.68C44.8451 19.296 44.6958 18.992 44.3971 18.768C44.0985 18.5333 43.6825 18.416 43.1491 18.416H42.3011V17.328H43.1331C44.0398 17.328 44.4931 16.9653 44.4931 16.24C44.4931 15.9093 44.3705 15.648 44.1251 15.456C43.8905 15.264 43.5491 15.168 43.1011 15.168C42.3225 15.168 41.6718 15.488 41.1491 16.128L40.3171 15.392C40.9785 14.4853 41.9225 14.032 43.1491 14.032C43.9278 14.032 44.5465 14.224 45.0051 14.608C45.4745 14.9813 45.7091 15.4987 45.7091 16.16C45.7091 16.896 45.3998 17.456 44.7811 17.84C45.6665 18.192 46.1091 18.832 46.1091 19.76ZM55.1455 15.2C55.8815 15.9787 56.2495 16.944 56.2495 18.096C56.2495 19.248 55.8762 20.2187 55.1295 21.008C54.3935 21.7867 53.4815 22.176 52.3935 22.176C51.1668 22.176 50.2122 21.744 49.5295 20.88V24.88H48.2975V14.208H49.4495V15.456C49.7482 15.008 50.1588 14.6613 50.6815 14.416C51.2042 14.16 51.7748 14.032 52.3935 14.032C53.5028 14.032 54.4202 14.4213 55.1455 15.2ZM54.1855 20.208C54.7188 19.6533 54.9855 18.9547 54.9855 18.112C54.9855 17.2693 54.7188 16.5707 54.1855 16.016C53.6628 15.4507 53.0068 15.168 52.2175 15.168C51.4708 15.168 50.8308 15.424 50.2975 15.936C49.7748 16.448 49.5135 17.168 49.5135 18.096C49.5135 19.0453 49.7695 19.776 50.2815 20.288C50.8042 20.7893 51.4495 21.04 52.2175 21.04C53.0068 21.04 53.6628 20.7627 54.1855 20.208ZM64.2469 17.2V22H63.0949V20.992C62.4975 21.7813 61.6229 22.176 60.4709 22.176C59.6602 22.176 59.0042 21.9787 58.5029 21.584C58.0015 21.1787 57.7509 20.6453 57.7509 19.984C57.7509 19.3227 58.0069 18.7947 58.5189 18.4C59.0309 18.0053 59.7082 17.808 60.5509 17.808H63.0149V17.136C63.0149 16.5067 62.8442 16.0213 62.5029 15.68C62.1722 15.3387 61.7135 15.168 61.1269 15.168C60.2522 15.168 59.4949 15.584 58.8549 16.416L58.0389 15.744C58.7322 14.6027 59.7882 14.032 61.2069 14.032C62.1455 14.032 62.8869 14.3093 63.4309 14.864C63.9749 15.408 64.2469 16.1867 64.2469 17.2ZM63.0149 19.008V18.816H60.6949C59.5749 18.816 59.0149 19.184 59.0149 19.92C59.0149 20.304 59.1642 20.608 59.4629 20.832C59.7722 21.0453 60.1615 21.152 60.6309 21.152C61.2815 21.152 61.8415 20.944 62.3109 20.528C62.7802 20.112 63.0149 19.6053 63.0149 19.008ZM74.54 18.24C74.5613 19.3067 74.1667 20.2347 73.356 21.024C72.5453 21.8027 71.5853 22.1813 70.476 22.16C69.2813 22.16 68.3107 21.7547 67.564 20.944C66.828 20.1333 66.46 19.0773 66.46 17.776V16.416C66.46 15.2 66.5773 14.2187 66.812 13.472C67.324 11.872 68.8067 10.864 71.26 10.448C72.572 10.2133 73.4467 10.0053 73.884 9.824V11.008C73.3827 11.2213 72.556 11.4133 71.404 11.584C70.3053 11.744 69.4787 12.0267 68.924 12.432C68.3693 12.8373 68.0227 13.3067 67.884 13.84C67.7347 14.384 67.66 15.0667 67.66 15.888C67.9907 15.3973 68.4173 15.0133 68.94 14.736C69.4733 14.4587 70.044 14.32 70.652 14.32C71.6973 14.2987 72.6093 14.688 73.388 15.488C74.1773 16.2773 74.5613 17.1947 74.54 18.24ZM72.46 20.224C73.004 19.68 73.276 19.0187 73.276 18.24C73.276 17.4613 73.004 16.8053 72.46 16.272C71.9267 15.728 71.2707 15.456 70.492 15.456C69.724 15.456 69.068 15.728 68.524 16.272C67.98 16.816 67.708 17.472 67.708 18.24C67.708 18.9973 67.98 19.6533 68.524 20.208C69.0787 20.752 69.7347 21.024 70.492 21.024C71.2707 21.024 71.9267 20.7573 72.46 20.224ZM76.1438 18.096C76.1224 16.9867 76.5171 16.0267 77.3278 15.216C78.1491 14.4053 79.1144 14.0107 80.2238 14.032C81.3438 14.0107 82.3091 14.4053 83.1198 15.216C83.9304 16.0267 84.3251 16.9867 84.3038 18.096C84.3251 19.1947 83.9251 20.1547 83.1038 20.976C82.2824 21.7867 81.3171 22.1813 80.2078 22.16C79.0984 22.1813 78.1384 21.7867 77.3278 20.976C76.5171 20.1547 76.1224 19.1947 76.1438 18.096ZM83.0398 18.112C83.0398 17.28 82.7678 16.5813 82.2238 16.016C81.6904 15.4507 81.0238 15.168 80.2238 15.168C79.4238 15.168 78.7518 15.4507 78.2078 16.016C77.6744 16.5707 77.4078 17.2693 77.4078 18.112C77.4078 18.9333 77.6744 19.6267 78.2078 20.192C78.7518 20.7467 79.4184 21.024 80.2078 21.024C80.9971 21.024 81.6638 20.7413 82.2078 20.176C82.7624 19.6107 83.0398 18.9227 83.0398 18.112ZM87.9284 22V15.312H85.3044V14.208H91.7684V15.312H89.1444V22H87.9284ZM99.3094 17.2V22H98.1574V20.992C97.56 21.7813 96.6854 22.176 95.5334 22.176C94.7227 22.176 94.0667 21.9787 93.5654 21.584C93.064 21.1787 92.8134 20.6453 92.8134 19.984C92.8134 19.3227 93.0694 18.7947 93.5814 18.4C94.0934 18.0053 94.7707 17.808 95.6134 17.808H98.0774V17.136C98.0774 16.5067 97.9067 16.0213 97.5654 15.68C97.2347 15.3387 96.776 15.168 96.1894 15.168C95.3147 15.168 94.5574 15.584 93.9174 16.416L93.1014 15.744C93.7947 14.6027 94.8507 14.032 96.2694 14.032C97.208 14.032 97.9494 14.3093 98.4934 14.864C99.0374 15.408 99.3094 16.1867 99.3094 17.2ZM98.0774 19.008V18.816H95.7574C94.6374 18.816 94.0774 19.184 94.0774 19.92C94.0774 20.304 94.2267 20.608 94.5254 20.832C94.8347 21.0453 95.224 21.152 95.6934 21.152C96.344 21.152 96.904 20.944 97.3734 20.528C97.8427 20.112 98.0774 19.6053 98.0774 19.008ZM101.923 22V14.208H103.155V17.312H106.979V14.208H108.211V22H106.979V18.4H103.155V22H101.923ZM114.655 18.032C114.655 16.88 115.066 15.904 115.887 15.104C116.709 14.304 117.711 13.904 118.895 13.904C120.453 13.904 121.599 14.5547 122.335 15.856L120.831 17.024C120.298 16.256 119.663 15.872 118.927 15.872C118.319 15.872 117.818 16.08 117.423 16.496C117.039 16.9013 116.847 17.4133 116.847 18.032C116.847 18.6613 117.039 19.184 117.423 19.6C117.818 20.0053 118.319 20.208 118.927 20.208C119.663 20.208 120.298 19.8293 120.831 19.072L122.335 20.224C121.983 20.8427 121.509 21.328 120.911 21.68C120.325 22.0213 119.653 22.192 118.895 22.192C117.733 22.2133 116.73 21.8133 115.887 20.992C115.045 20.16 114.634 19.1733 114.655 18.032ZM123.327 18.032C123.306 16.9013 123.716 15.9253 124.559 15.104C125.402 14.2827 126.404 13.8827 127.567 13.904C128.73 13.8827 129.732 14.2827 130.575 15.104C131.428 15.9253 131.844 16.9013 131.823 18.032C131.844 19.1627 131.428 20.144 130.575 20.976C129.722 21.7973 128.714 22.1973 127.551 22.176C126.388 22.1973 125.386 21.7973 124.543 20.976C123.711 20.144 123.306 19.1627 123.327 18.032ZM129.023 19.584C129.418 19.1787 129.615 18.6667 129.615 18.048C129.615 17.4293 129.418 16.912 129.023 16.496C128.639 16.08 128.154 15.872 127.567 15.872C126.97 15.872 126.479 16.08 126.095 16.496C125.711 16.9013 125.519 17.4187 125.519 18.048C125.519 18.6667 125.711 19.1787 126.095 19.584C126.479 19.9893 126.97 20.192 127.567 20.192C128.154 20.192 128.639 19.9893 129.023 19.584ZM141.702 18.176C141.702 19.328 141.302 20.2827 140.502 21.04C139.712 21.7973 138.71 22.176 137.494 22.176C136.214 22.176 135.184 21.744 134.406 20.88C133.627 20.016 133.238 18.8747 133.238 17.456V16.256C133.248 15.3067 133.328 14.512 133.478 13.872C133.627 13.232 133.899 12.656 134.294 12.144C134.688 11.632 135.232 11.2267 135.926 10.928C136.63 10.6293 137.526 10.4107 138.614 10.272C139.766 10.1227 140.56 9.97333 140.998 9.824V11.792C140.614 11.9413 139.824 12.0747 138.63 12.192C137.926 12.2773 137.355 12.3947 136.918 12.544C136.491 12.6933 136.15 12.912 135.894 13.2C135.648 13.4773 135.478 13.792 135.382 14.144C135.286 14.496 135.227 14.9653 135.206 15.552C135.846 14.6453 136.774 14.192 137.99 14.192C139.035 14.192 139.915 14.576 140.63 15.344C141.344 16.1013 141.702 17.0453 141.702 18.176ZM138.902 19.616C139.296 19.2213 139.494 18.7413 139.494 18.176C139.494 17.6107 139.296 17.136 138.902 16.752C138.518 16.3573 138.038 16.16 137.462 16.16C136.896 16.16 136.416 16.3573 136.022 16.752C135.638 17.136 135.446 17.6107 135.446 18.176C135.446 18.7413 135.638 19.2213 136.022 19.616C136.416 20.0107 136.896 20.208 137.462 20.208C138.038 20.208 138.518 20.0107 138.902 19.616ZM142.937 18.032C142.937 16.88 143.347 15.904 144.169 15.104C144.99 14.304 145.993 13.904 147.177 13.904C148.734 13.904 149.881 14.5547 150.617 15.856L149.113 17.024C148.579 16.256 147.945 15.872 147.209 15.872C146.601 15.872 146.099 16.08 145.705 16.496C145.321 16.9013 145.129 17.4133 145.129 18.032C145.129 18.6613 145.321 19.184 145.705 19.6C146.099 20.0053 146.601 20.208 147.209 20.208C147.945 20.208 148.579 19.8293 149.113 19.072L150.617 20.224C150.265 20.8427 149.79 21.328 149.193 21.68C148.606 22.0213 147.934 22.192 147.177 22.192C146.014 22.2133 145.011 21.8133 144.169 20.992C143.326 20.16 142.915 19.1733 142.937 18.032ZM153.797 22V15.904H151.365V14.08H158.389V15.904H155.941V22H153.797ZM166.785 19.584C166.785 20.288 166.513 20.8693 165.969 21.328C165.436 21.776 164.759 22 163.937 22H159.729V14.08H163.409C164.231 14.08 164.897 14.2827 165.409 14.688C165.932 15.0933 166.193 15.632 166.193 16.304C166.193 16.88 165.98 17.3653 165.553 17.76C166.375 18.1227 166.785 18.7307 166.785 19.584ZM161.777 15.696V17.168H163.281C163.921 17.168 164.241 16.9227 164.241 16.432C164.241 15.9413 163.921 15.696 163.281 15.696H161.777ZM164.497 20.16C164.7 20 164.801 19.7867 164.801 19.52C164.801 19.2533 164.7 19.0453 164.497 18.896C164.305 18.7467 164.039 18.672 163.697 18.672H161.777V20.4H163.697C164.039 20.4 164.305 20.32 164.497 20.16ZM175.805 18.768H170.253C170.381 19.2693 170.637 19.6587 171.021 19.936C171.416 20.2027 171.901 20.336 172.477 20.336C173.256 20.336 173.992 20.0693 174.685 19.536L175.581 21.008C174.632 21.7973 173.576 22.192 172.413 22.192C171.197 22.2133 170.162 21.8187 169.309 21.008C168.466 20.1867 168.056 19.2 168.077 18.048C168.056 16.9067 168.456 15.9253 169.277 15.104C170.098 14.2827 171.08 13.8827 172.221 13.904C173.309 13.904 174.2 14.256 174.893 14.96C175.597 15.664 175.949 16.5387 175.949 17.584C175.949 17.968 175.901 18.3627 175.805 18.768ZM170.253 17.248H173.853C173.842 16.768 173.672 16.384 173.341 16.096C173.021 15.7973 172.621 15.648 172.141 15.648C171.682 15.648 171.282 15.792 170.941 16.08C170.6 16.368 170.37 16.7573 170.253 17.248ZM177.683 22V14.08H179.827V16.976H182.755V14.08H184.899V22H182.755V18.816H179.827V22H177.683ZM187.136 22V14.08H189.28V16.976H192.208V14.08H194.352V22H192.208V18.816H189.28V22H187.136ZM196.589 22V14.08H198.733V16.368H200.173C201.122 16.368 201.911 16.6187 202.541 17.12C203.159 17.6107 203.469 18.2933 203.469 19.168C203.469 20.064 203.159 20.7573 202.541 21.248C201.911 21.7493 201.122 22 200.173 22H196.589ZM204.365 22V14.08H206.509V22H204.365ZM198.733 20.176H200.109C200.887 20.176 201.277 19.8507 201.277 19.2C201.277 18.88 201.17 18.6347 200.957 18.464C200.754 18.2827 200.471 18.192 200.109 18.192H198.733V20.176ZM215.321 13.904H216.025V22H213.865V17.712L209.449 22.192H208.745V14.08H210.889V18.4L215.321 13.904ZM209.801 10.08V9.632H211.529V10.064C211.529 10.4693 211.62 10.784 211.801 11.008C211.982 11.2213 212.238 11.328 212.569 11.328C212.9 11.328 213.156 11.2213 213.337 11.008C213.518 10.784 213.609 10.4693 213.609 10.064V9.632H215.321V10.08C215.321 10.9013 215.065 11.5733 214.553 12.096C214.041 12.608 213.38 12.864 212.569 12.864C211.748 12.864 211.081 12.608 210.569 12.096C210.057 11.5733 209.801 10.9013 209.801 10.08ZM222.249 18.032C222.249 16.88 222.66 15.904 223.481 15.104C224.302 14.304 225.305 13.904 226.489 13.904C228.046 13.904 229.193 14.5547 229.929 15.856L228.425 17.024C227.892 16.256 227.257 15.872 226.521 15.872C225.913 15.872 225.412 16.08 225.017 16.496C224.633 16.9013 224.441 17.4133 224.441 18.032C224.441 18.6613 224.633 19.184 225.017 19.6C225.412 20.0053 225.913 20.208 226.521 20.208C227.257 20.208 227.892 19.8293 228.425 19.072L229.929 20.224C229.577 20.8427 229.102 21.328 228.505 21.68C227.918 22.0213 227.246 22.192 226.489 22.192C225.326 22.2133 224.324 21.8133 223.481 20.992C222.638 20.16 222.228 19.1733 222.249 18.032ZM230.921 18.032C230.9 16.9013 231.31 15.9253 232.153 15.104C232.996 14.2827 233.998 13.8827 235.161 13.904C236.324 13.8827 237.326 14.2827 238.169 15.104C239.022 15.9253 239.438 16.9013 239.417 18.032C239.438 19.1627 239.022 20.144 238.169 20.976C237.316 21.7973 236.308 22.1973 235.145 22.176C233.982 22.1973 232.98 21.7973 232.137 20.976C231.305 20.144 230.9 19.1627 230.921 18.032ZM236.617 19.584C237.012 19.1787 237.209 18.6667 237.209 18.048C237.209 17.4293 237.012 16.912 236.617 16.496C236.233 16.08 235.748 15.872 235.161 15.872C234.564 15.872 234.073 16.08 233.689 16.496C233.305 16.9013 233.113 17.4187 233.113 18.048C233.113 18.6667 233.305 19.1787 233.689 19.584C234.073 19.9893 234.564 20.192 235.161 20.192C235.748 20.192 236.233 19.9893 236.617 19.584ZM247.295 22.144V24.88H245.151V22.144C243.818 22.0587 242.735 21.6587 241.903 20.944C241.071 20.2187 240.655 19.248 240.655 18.032C240.655 16.784 241.066 15.8027 241.887 15.088C242.719 14.3627 243.807 13.968 245.151 13.904V10H247.295V13.904C248.629 13.9893 249.711 14.4 250.543 15.136C251.375 15.8613 251.791 16.8267 251.791 18.032C251.791 19.2693 251.375 20.2507 250.543 20.976C249.722 21.6907 248.639 22.08 247.295 22.144ZM245.199 20.32V15.744C244.442 15.7867 243.85 16.0053 243.423 16.4C243.007 16.7947 242.799 17.344 242.799 18.048C242.799 18.72 243.013 19.2533 243.439 19.648C243.866 20.0427 244.453 20.2667 245.199 20.32ZM249.647 18C249.647 17.328 249.429 16.7893 248.991 16.384C248.565 15.9787 247.983 15.7653 247.247 15.744V20.32C248.005 20.2773 248.591 20.0587 249.007 19.664C249.434 19.2587 249.647 18.704 249.647 18ZM254.937 22V15.904H252.505V14.08H259.529V15.904H257.081V22H254.937ZM265.594 22V14.208H271.818V22H270.57V15.312H266.826V22H265.594ZM273.956 18.096C273.935 16.9867 274.33 16.0267 275.14 15.216C275.962 14.4053 276.927 14.0107 278.036 14.032C279.156 14.0107 280.122 14.4053 280.932 15.216C281.743 16.0267 282.138 16.9867 282.116 18.096C282.138 19.1947 281.738 20.1547 280.916 20.976C280.095 21.7867 279.13 22.1813 278.02 22.16C276.911 22.1813 275.951 21.7867 275.14 20.976C274.33 20.1547 273.935 19.1947 273.956 18.096ZM280.852 18.112C280.852 17.28 280.58 16.5813 280.036 16.016C279.503 15.4507 278.836 15.168 278.036 15.168C277.236 15.168 276.564 15.4507 276.02 16.016C275.487 16.5707 275.22 17.2693 275.22 18.112C275.22 18.9333 275.487 19.6267 276.02 20.192C276.564 20.7467 277.231 21.024 278.02 21.024C278.81 21.024 279.476 20.7413 280.02 20.176C280.575 19.6107 280.852 18.9227 280.852 18.112ZM22.8 39.096C22.7787 37.9867 23.1733 37.0267 23.984 36.216C24.7947 35.4053 25.76 35.0107 26.88 35.032C27.552 35.032 28.1653 35.1813 28.72 35.48C29.2747 35.7787 29.7333 36.1947 30.096 36.728L29.216 37.432C28.5973 36.5893 27.824 36.168 26.896 36.168C26.096 36.168 25.424 36.456 24.88 37.032C24.336 37.5973 24.064 38.2853 24.064 39.096C24.064 39.9173 24.336 40.616 24.88 41.192C25.424 41.7573 26.096 42.04 26.896 42.04C27.8133 42.04 28.5813 41.624 29.2 40.792L30.08 41.48C29.312 42.6107 28.2453 43.176 26.88 43.176C25.7493 43.176 24.784 42.7813 23.984 41.992C23.1947 41.192 22.8 40.2267 22.8 39.096ZM39.8525 39.24C39.8738 40.3067 39.4792 41.2347 38.6685 42.024C37.8578 42.8027 36.8978 43.1813 35.7885 43.16C34.5938 43.16 33.6232 42.7547 32.8765 41.944C32.1405 41.1333 31.7725 40.0773 31.7725 38.776V37.416C31.7725 36.2 31.8898 35.2187 32.1245 34.472C32.6365 32.872 34.1192 31.864 36.5725 31.448C37.8845 31.2133 38.7592 31.0053 39.1965 30.824V32.008C38.6952 32.2213 37.8685 32.4133 36.7165 32.584C35.6178 32.744 34.7912 33.0267 34.2365 33.432C33.6818 33.8373 33.3352 34.3067 33.1965 34.84C33.0472 35.384 32.9725 36.0667 32.9725 36.888C33.3032 36.3973 33.7298 36.0133 34.2525 35.736C34.7858 35.4587 35.3565 35.32 35.9645 35.32C37.0098 35.2987 37.9218 35.688 38.7005 36.488C39.4898 37.2773 39.8738 38.1947 39.8525 39.24ZM37.7725 41.224C38.3165 40.68 38.5885 40.0187 38.5885 39.24C38.5885 38.4613 38.3165 37.8053 37.7725 37.272C37.2392 36.728 36.5832 36.456 35.8045 36.456C35.0365 36.456 34.3805 36.728 33.8365 37.272C33.2925 37.816 33.0205 38.472 33.0205 39.24C33.0205 39.9973 33.2925 40.6533 33.8365 41.208C34.3912 41.752 35.0472 42.024 35.8045 42.024C36.5832 42.024 37.2392 41.7573 37.7725 41.224ZM41.4563 39.096C41.4349 37.9867 41.8296 37.0267 42.6403 36.216C43.4616 35.4053 44.4269 35.0107 45.5363 35.032C46.6563 35.0107 47.6216 35.4053 48.4323 36.216C49.2429 37.0267 49.6376 37.9867 49.6163 39.096C49.6376 40.1947 49.2376 41.1547 48.4163 41.976C47.5949 42.7867 46.6296 43.1813 45.5203 43.16C44.4109 43.1813 43.4509 42.7867 42.6403 41.976C41.8296 41.1547 41.4349 40.1947 41.4563 39.096ZM48.3523 39.112C48.3523 38.28 48.0803 37.5813 47.5363 37.016C47.0029 36.4507 46.3363 36.168 45.5363 36.168C44.7363 36.168 44.0643 36.4507 43.5203 37.016C42.9869 37.5707 42.7203 38.2693 42.7203 39.112C42.7203 39.9333 42.9869 40.6267 43.5203 41.192C44.0643 41.7467 44.7309 42.024 45.5203 42.024C46.3096 42.024 46.9763 41.7413 47.5203 41.176C48.0749 40.6107 48.3523 39.9227 48.3523 39.112ZM58.6299 36.2C59.3659 36.9787 59.7339 37.944 59.7339 39.096C59.7339 40.248 59.3605 41.2187 58.6139 42.008C57.8779 42.7867 56.9659 43.176 55.8779 43.176C54.6512 43.176 53.6965 42.744 53.0139 41.88V45.88H51.7819V35.208H52.9339V36.456C53.2325 36.008 53.6432 35.6613 54.1659 35.416C54.6885 35.16 55.2592 35.032 55.8779 35.032C56.9872 35.032 57.9045 35.4213 58.6299 36.2ZM57.6699 41.208C58.2032 40.6533 58.4699 39.9547 58.4699 39.112C58.4699 38.2693 58.2032 37.5707 57.6699 37.016C57.1472 36.4507 56.4912 36.168 55.7019 36.168C54.9552 36.168 54.3152 36.424 53.7819 36.936C53.2592 37.448 52.9979 38.168 52.9979 39.096C52.9979 40.0453 53.2539 40.776 53.7659 41.288C54.2885 41.7893 54.9339 42.04 55.7019 42.04C56.4912 42.04 57.1472 41.7627 57.6699 41.208ZM67.0835 35.208H68.3955L64.5555 44.088C63.9795 45.4 63.0995 46.056 61.9155 46.056C61.4995 46.056 61.0995 46.0027 60.7155 45.896V44.856C61.1635 44.9093 61.4782 44.936 61.6595 44.936C62.0862 44.936 62.4382 44.84 62.7155 44.648C62.9928 44.4667 63.2275 44.1467 63.4195 43.688L63.8355 42.76L60.6035 35.208H61.9315L64.5075 41.416L67.0835 35.208ZM80.7049 41.912H81.9689V45.256H80.7369V43H74.6089V45.256H73.3769V41.912H74.2569C74.8969 41.2507 75.2382 39.7467 75.2809 37.4L75.3289 35.208H80.7049V41.912ZM75.5529 41.912H79.4729V36.312H76.4969L76.4489 37.416C76.3955 39.6453 76.0969 41.144 75.5529 41.912ZM90.6306 39.48H84.4706C84.5453 40.248 84.8493 40.8667 85.3826 41.336C85.916 41.8053 86.5666 42.04 87.3346 42.04C88.22 42.04 89.0146 41.688 89.7186 40.984L90.4386 41.816C89.564 42.7227 88.524 43.176 87.3186 43.176C86.156 43.176 85.1746 42.7867 84.3746 42.008C83.5853 41.2187 83.1906 40.2533 83.1906 39.112C83.1906 37.9813 83.5746 37.0213 84.3426 36.232C85.1213 35.432 86.0653 35.032 87.1746 35.032C88.188 35.032 89.0306 35.3627 89.7026 36.024C90.3853 36.6853 90.7266 37.528 90.7266 38.552C90.7266 38.8507 90.6946 39.16 90.6306 39.48ZM84.5186 38.392H89.4626C89.452 37.7093 89.228 37.1653 88.7906 36.76C88.3533 36.3547 87.804 36.152 87.1426 36.152C86.492 36.152 85.9266 36.36 85.4466 36.776C84.9666 37.1813 84.6573 37.72 84.5186 38.392ZM94.3503 43V36.312H91.7263V35.208H98.1903V36.312H95.5663V43H94.3503ZM105.731 38.2V43H104.579V41.992C103.982 42.7813 103.107 43.176 101.955 43.176C101.145 43.176 100.489 42.9787 99.9873 42.584C99.4859 42.1787 99.2353 41.6453 99.2353 40.984C99.2353 40.3227 99.4913 39.7947 100.003 39.4C100.515 39.0053 101.193 38.808 102.035 38.808H104.499V38.136C104.499 37.5067 104.329 37.0213 103.987 36.68C103.657 36.3387 103.198 36.168 102.611 36.168C101.737 36.168 100.979 36.584 100.339 37.416L99.5233 36.744C100.217 35.6027 101.273 35.032 102.691 35.032C103.63 35.032 104.371 35.3093 104.915 35.864C105.459 36.408 105.731 37.1867 105.731 38.2ZM104.499 40.008V39.816H102.179C101.059 39.816 100.499 40.184 100.499 40.92C100.499 41.304 100.649 41.608 100.947 41.832C101.257 42.0453 101.646 42.152 102.115 42.152C102.766 42.152 103.326 41.944 103.795 41.528C104.265 41.112 104.499 40.6053 104.499 40.008ZM108.952 35.208H114.232V43H113V36.312H110.104L110.072 37.272C109.998 39.3733 109.784 40.856 109.432 41.72C109.08 42.584 108.456 43.032 107.56 43.064C107.4 43.064 107.262 43.0427 107.144 43V41.96C107.315 41.9813 107.422 41.992 107.464 41.992C107.955 41.992 108.307 41.6133 108.52 40.856C108.744 40.0987 108.872 38.8933 108.904 37.24L108.952 35.208ZM116.954 43V35.208H118.186V37.896H120.042C120.927 37.896 121.631 38.1307 122.154 38.6C122.687 39.0587 122.954 39.672 122.954 40.44C122.954 41.208 122.687 41.8267 122.154 42.296C121.631 42.7653 120.927 43 120.042 43H116.954ZM118.186 41.912H119.978C120.511 41.912 120.927 41.784 121.226 41.528C121.535 41.2613 121.69 40.904 121.69 40.456C121.69 40.008 121.535 39.6507 121.226 39.384C120.916 39.1173 120.495 38.984 119.962 38.984H118.186V41.912ZM125.11 43V35.208H126.342V38.312H130.166V35.208H131.398V43H130.166V39.4H126.342V43H125.11ZM133.534 39.096C133.513 37.9867 133.908 37.0267 134.718 36.216C135.54 35.4053 136.505 35.0107 137.614 35.032C138.734 35.0107 139.7 35.4053 140.51 36.216C141.321 37.0267 141.716 37.9867 141.694 39.096C141.716 40.1947 141.316 41.1547 140.494 41.976C139.673 42.7867 138.708 43.1813 137.598 43.16C136.489 43.1813 135.529 42.7867 134.718 41.976C133.908 41.1547 133.513 40.1947 133.534 39.096ZM140.43 39.112C140.43 38.28 140.158 37.5813 139.614 37.016C139.081 36.4507 138.414 36.168 137.614 36.168C136.814 36.168 136.142 36.4507 135.598 37.016C135.065 37.5707 134.798 38.2693 134.798 39.112C134.798 39.9333 135.065 40.6267 135.598 41.192C136.142 41.7467 136.809 42.024 137.598 42.024C138.388 42.024 139.054 41.7413 139.598 41.176C140.153 40.6107 140.43 39.9227 140.43 39.112ZM149.844 35.032H150.292V43H149.06V37.496L144.308 43.176H143.86V35.208H145.092V40.728L149.844 35.032ZM144.836 31.304V30.808H145.876V31.272C145.876 31.7947 145.993 32.2 146.228 32.488C146.473 32.7653 146.815 32.904 147.252 32.904C147.7 32.904 148.041 32.7653 148.276 32.488C148.521 32.2 148.644 31.7947 148.644 31.272V30.808H149.684V31.304C149.684 32.0613 149.46 32.6747 149.012 33.144C148.575 33.6027 147.988 33.832 147.252 33.832C146.527 33.832 145.94 33.6027 145.492 33.144C145.055 32.6747 144.836 32.0613 144.836 31.304ZM156.925 39.096C156.904 37.9867 157.298 37.0267 158.109 36.216C158.92 35.4053 159.885 35.0107 161.005 35.032C161.677 35.032 162.29 35.1813 162.845 35.48C163.4 35.7787 163.858 36.1947 164.221 36.728L163.341 37.432C162.722 36.5893 161.949 36.168 161.021 36.168C160.221 36.168 159.549 36.456 159.005 37.032C158.461 37.5973 158.189 38.2853 158.189 39.096C158.189 39.9173 158.461 40.616 159.005 41.192C159.549 41.7573 160.221 42.04 161.021 42.04C161.938 42.04 162.706 41.624 163.325 40.792L164.205 41.48C163.437 42.6107 162.37 43.176 161.005 43.176C159.874 43.176 158.909 42.7813 158.109 41.992C157.32 41.192 156.925 40.2267 156.925 39.096ZM167.882 43V36.312H165.258V35.208H171.722V36.312H169.098V43H167.882ZM179.263 38.2V43H178.111V41.992C177.513 42.7813 176.639 43.176 175.487 43.176C174.676 43.176 174.02 42.9787 173.519 42.584C173.017 42.1787 172.767 41.6453 172.767 40.984C172.767 40.3227 173.023 39.7947 173.535 39.4C174.047 39.0053 174.724 38.808 175.567 38.808H178.031V38.136C178.031 37.5067 177.86 37.0213 177.519 36.68C177.188 36.3387 176.729 36.168 176.143 36.168C175.268 36.168 174.511 36.584 173.871 37.416L173.055 36.744C173.748 35.6027 174.804 35.032 176.223 35.032C177.161 35.032 177.903 35.3093 178.447 35.864C178.991 36.408 179.263 37.1867 179.263 38.2ZM178.031 40.008V39.816H175.711C174.591 39.816 174.031 40.184 174.031 40.92C174.031 41.304 174.18 41.608 174.479 41.832C174.788 42.0453 175.177 42.152 175.647 42.152C176.297 42.152 176.857 41.944 177.327 41.528C177.796 41.112 178.031 40.6053 178.031 40.008ZM183.288 43V36.312H180.664V35.208H187.128V36.312H184.504V43H183.288ZM194.813 35.032H195.261V43H194.029V37.496L189.277 43.176H188.829V35.208H190.061V40.728L194.813 35.032ZM197.409 39.096C197.388 37.9867 197.783 37.0267 198.593 36.216C199.404 35.4053 200.369 35.0107 201.489 35.032C202.161 35.032 202.775 35.1813 203.329 35.48C203.884 35.7787 204.343 36.1947 204.705 36.728L203.825 37.432C203.207 36.5893 202.433 36.168 201.505 36.168C200.705 36.168 200.033 36.456 199.489 37.032C198.945 37.5973 198.673 38.2853 198.673 39.096C198.673 39.9173 198.945 40.616 199.489 41.192C200.033 41.7573 200.705 42.04 201.505 42.04C202.423 42.04 203.191 41.624 203.809 40.792L204.689 41.48C203.921 42.6107 202.855 43.176 201.489 43.176C200.359 43.176 199.393 42.7813 198.593 41.992C197.804 41.192 197.409 40.2267 197.409 39.096ZM208.366 43V36.312H205.742V35.208H212.206V36.312H209.582V43H208.366ZM219.891 35.032H220.339V43H219.107V37.496L214.355 43.176H213.907V35.208H215.139V40.728L219.891 35.032ZM223.048 43V35.208H224.28V43H223.048ZM225.944 38.744L229.608 43H228.056L224.44 38.776L227.72 35.208H229.256L225.944 38.744ZM237.266 35.032H237.714V43H236.482V37.496L231.73 43.176H231.282V35.208H232.514V40.728L237.266 35.032Z" fill="white"/>
</svg>
