<svg width="273" height="30" viewBox="0 0 273 30" fill="none" xmlns="http://www.w3.org/2000/svg">
<path fill-rule="evenodd" clip-rule="evenodd" d="M7 0H273V30H7V0Z" fill="#503655"/>
<path fill-rule="evenodd" clip-rule="evenodd" d="M0 15L7 8L7 22L0 15Z" fill="#503655"/>
<path d="M23.456 20V9.44H31.712V20H30.464V10.56H24.704V20H23.456ZM41.3338 16.48H35.1738C35.2484 17.248 35.5524 17.8667 36.0858 18.336C36.6191 18.8053 37.2698 19.04 38.0378 19.04C38.9231 19.04 39.7178 18.688 40.4218 17.984L41.1418 18.816C40.2671 19.7227 39.2271 20.176 38.0218 20.176C36.8591 20.176 35.8778 19.7867 35.0778 19.008C34.2884 18.2187 33.8938 17.2533 33.8938 16.112C33.8938 14.9813 34.2778 14.0213 35.0458 13.232C35.8244 12.432 36.7684 12.032 37.8778 12.032C38.8911 12.032 39.7338 12.3627 40.4058 13.024C41.0884 13.6853 41.4298 14.528 41.4298 15.552C41.4298 15.8507 41.3978 16.16 41.3338 16.48ZM35.2218 15.392H40.1658C40.1551 14.7093 39.9311 14.1653 39.4938 13.76C39.0564 13.3547 38.5071 13.152 37.8458 13.152C37.1951 13.152 36.6298 13.36 36.1498 13.776C35.6698 14.1813 35.3604 14.72 35.2218 15.392ZM50.4424 13.2C51.1784 13.9787 51.5464 14.944 51.5464 16.096C51.5464 17.248 51.173 18.2187 50.4264 19.008C49.6904 19.7867 48.7784 20.176 47.6904 20.176C46.4637 20.176 45.509 19.744 44.8264 18.88V22.88H43.5944V12.208H44.7464V13.456C45.045 13.008 45.4557 12.6613 45.9784 12.416C46.501 12.16 47.0717 12.032 47.6904 12.032C48.7997 12.032 49.717 12.4213 50.4424 13.2ZM49.4824 18.208C50.0157 17.6533 50.2824 16.9547 50.2824 16.112C50.2824 15.2693 50.0157 14.5707 49.4824 14.016C48.9597 13.4507 48.3037 13.168 47.5144 13.168C46.7677 13.168 46.1277 13.424 45.5944 13.936C45.0717 14.448 44.8104 15.168 44.8104 16.096C44.8104 17.0453 45.0664 17.776 45.5784 18.288C46.101 18.7893 46.7464 19.04 47.5144 19.04C48.3037 19.04 48.9597 18.7627 49.4824 18.208ZM60.0878 17.648C60.0878 18.352 59.8318 18.9227 59.3198 19.36C58.8184 19.7867 58.1518 20 57.3198 20H53.7038V12.208H56.9198C57.6878 12.208 58.2958 12.3947 58.7438 12.768C59.2024 13.1413 59.4318 13.6427 59.4318 14.272C59.4318 14.9227 59.1598 15.424 58.6158 15.776C59.5971 16.1173 60.0878 16.7413 60.0878 17.648ZM54.9358 13.312V15.392H56.9358C57.7891 15.392 58.2158 15.04 58.2158 14.336C58.2158 13.6533 57.7891 13.312 56.9358 13.312H54.9358ZM58.8558 17.648C58.8558 17.2853 58.7118 17.0027 58.4238 16.8C58.1464 16.5867 57.7518 16.48 57.2398 16.48H54.9358V18.912H57.2398C57.7411 18.912 58.1358 18.8 58.4238 18.576C58.7118 18.3413 58.8558 18.032 58.8558 17.648ZM62.4069 20V12.208H63.6389V14.896H65.4949C66.3695 14.896 67.0735 15.1307 67.6069 15.6C68.1402 16.0587 68.4069 16.672 68.4069 17.44C68.4069 18.2187 68.1402 18.8427 67.6069 19.312C67.0842 19.7707 66.3802 20 65.4949 20H62.4069ZM69.5429 20V12.208H70.7749V20H69.5429ZM63.6389 18.912H65.4309C65.9855 18.912 66.4069 18.7893 66.6949 18.544C66.9935 18.288 67.1429 17.9253 67.1429 17.456C67.1429 16.9867 66.9935 16.624 66.6949 16.368C66.3962 16.112 65.9695 15.984 65.4149 15.984H63.6389V18.912ZM79.469 12.032H79.917V20H78.685V14.496L73.933 20.176H73.485V12.208H74.717V17.728L79.469 12.032ZM74.461 8.304V7.808H75.501V8.272C75.501 8.79467 75.6183 9.2 75.853 9.488C76.0983 9.76533 76.4397 9.904 76.877 9.904C77.325 9.904 77.6663 9.76533 77.901 9.488C78.1463 9.2 78.269 8.79467 78.269 8.272V7.808H79.309V8.304C79.309 9.06133 79.085 9.67467 78.637 10.144C78.1997 10.6027 77.613 10.832 76.877 10.832C76.1517 10.832 75.565 10.6027 75.117 10.144C74.6797 9.67467 74.461 9.06133 74.461 8.304ZM86.87 20V11.904H87.574L91.286 16.048L95.03 11.904H95.718V20H93.558V16.192L91.638 18.352H90.918L89.014 16.208V20H86.87ZM104.54 11.904H105.244V20H103.084V15.712L98.6678 20.192H97.9638V12.08H100.108V16.4L104.54 11.904ZM108.135 12.08H114.423V20H112.279V13.904H110.151L110.135 14.512C110.082 16.5707 109.853 18.0213 109.447 18.864C109.053 19.696 108.365 20.1227 107.383 20.144C107.085 20.144 106.813 20.096 106.567 20V18.224C106.674 18.2453 106.775 18.256 106.871 18.256C107.309 18.256 107.618 17.9307 107.799 17.28C107.991 16.6293 108.098 15.5253 108.119 13.968L108.135 12.08ZM117.323 12.08H123.611V20H121.467V13.904H119.339L119.323 14.512C119.27 16.5707 119.04 18.0213 118.635 18.864C118.24 19.696 117.552 20.1227 116.571 20.144C116.272 20.144 116 20.096 115.755 20V18.224C115.862 18.2453 115.963 18.256 116.059 18.256C116.496 18.256 116.806 17.9307 116.987 17.28C117.179 16.6293 117.286 15.5253 117.307 13.968L117.323 12.08ZM132.43 11.904H133.134V20H130.974V15.712L126.558 20.192H125.854V12.08H127.998V16.4L132.43 11.904ZM134.874 16.032C134.853 14.9013 135.263 13.9253 136.106 13.104C136.949 12.2827 137.951 11.8827 139.114 11.904C140.277 11.8827 141.279 12.2827 142.122 13.104C142.975 13.9253 143.391 14.9013 143.37 16.032C143.391 17.1627 142.975 18.144 142.122 18.976C141.269 19.7973 140.261 20.1973 139.098 20.176C137.935 20.1973 136.933 19.7973 136.09 18.976C135.258 18.144 134.853 17.1627 134.874 16.032ZM140.57 17.584C140.965 17.1787 141.162 16.6667 141.162 16.048C141.162 15.4293 140.965 14.912 140.57 14.496C140.186 14.08 139.701 13.872 139.114 13.872C138.517 13.872 138.026 14.08 137.642 14.496C137.258 14.9013 137.066 15.4187 137.066 16.048C137.066 16.6667 137.258 17.1787 137.642 17.584C138.026 17.9893 138.517 18.192 139.114 18.192C139.701 18.192 140.186 17.9893 140.57 17.584ZM145.104 20V12.08H147.248V14.976H150.176V12.08H152.32V20H150.176V16.816H147.248V20H145.104ZM159.282 20V12.208H165.506V20H164.258V13.312H160.514V20H159.282ZM167.644 16.096C167.622 14.9867 168.017 14.0267 168.828 13.216C169.649 12.4053 170.614 12.0107 171.724 12.032C172.844 12.0107 173.809 12.4053 174.62 13.216C175.43 14.0267 175.825 14.9867 175.804 16.096C175.825 17.1947 175.425 18.1547 174.604 18.976C173.782 19.7867 172.817 20.1813 171.708 20.16C170.598 20.1813 169.638 19.7867 168.828 18.976C168.017 18.1547 167.622 17.1947 167.644 16.096ZM174.54 16.112C174.54 15.28 174.268 14.5813 173.724 14.016C173.19 13.4507 172.524 13.168 171.724 13.168C170.924 13.168 170.252 13.4507 169.708 14.016C169.174 14.5707 168.908 15.2693 168.908 16.112C168.908 16.9333 169.174 17.6267 169.708 18.192C170.252 18.7467 170.918 19.024 171.708 19.024C172.497 19.024 173.164 18.7413 173.708 18.176C174.262 17.6107 174.54 16.9227 174.54 16.112ZM183.783 18.912H185.047V22.256H183.815V20H177.687V22.256H176.455V18.912H177.335C177.975 18.2507 178.316 16.7467 178.359 14.4L178.407 12.208H183.783V18.912ZM178.631 18.912H182.551V13.312H179.575L179.527 14.416C179.474 16.6453 179.175 18.144 178.631 18.912ZM186.985 20V12.208H193.209V20H191.961V13.312H188.217V20H186.985ZM201.891 12.032H202.339V20H201.107V14.496L196.355 20.176H195.907V12.208H197.139V17.728L201.891 12.032ZM204.488 16.096C204.466 14.9867 204.861 14.0267 205.672 13.216C206.482 12.4053 207.448 12.0107 208.568 12.032C209.24 12.032 209.853 12.1813 210.408 12.48C210.962 12.7787 211.421 13.1947 211.784 13.728L210.904 14.432C210.285 13.5893 209.512 13.168 208.584 13.168C207.784 13.168 207.112 13.456 206.568 14.032C206.024 14.5973 205.752 15.2853 205.752 16.096C205.752 16.9173 206.024 17.616 206.568 18.192C207.112 18.7573 207.784 19.04 208.584 19.04C209.501 19.04 210.269 18.624 210.888 17.792L211.767 18.48C211 19.6107 209.933 20.176 208.568 20.176C207.437 20.176 206.472 19.7813 205.672 18.992C204.882 18.192 204.488 17.2267 204.488 16.096ZM218.356 12.208H219.588V20H218.356V16.928C217.876 17.1627 217.22 17.28 216.388 17.28C215.439 17.28 214.687 17.0187 214.132 16.496C213.577 15.9627 213.3 15.2107 213.3 14.24V12.208H214.532V14.176C214.532 15.5093 215.231 16.176 216.628 16.176C217.279 16.176 217.855 16.064 218.356 15.84V12.208ZM228.297 12.032H228.745V20H227.513V14.496L222.761 20.176H222.313V12.208H223.545V17.728L228.297 12.032ZM231.454 20V12.208H232.686V20H231.454ZM234.35 15.744L238.014 20H236.462L232.846 15.776L236.126 12.208H237.662L234.35 15.744ZM238.894 16.096C238.872 14.9867 239.267 14.0267 240.078 13.216C240.899 12.4053 241.864 12.0107 242.974 12.032C244.094 12.0107 245.059 12.4053 245.87 13.216C246.68 14.0267 247.075 14.9867 247.054 16.096C247.075 17.1947 246.675 18.1547 245.854 18.976C245.032 19.7867 244.067 20.1813 242.958 20.16C241.848 20.1813 240.888 19.7867 240.078 18.976C239.267 18.1547 238.872 17.1947 238.894 16.096ZM245.79 16.112C245.79 15.28 245.518 14.5813 244.974 14.016C244.44 13.4507 243.774 13.168 242.974 13.168C242.174 13.168 241.502 13.4507 240.958 14.016C240.424 14.5707 240.158 15.2693 240.158 16.112C240.158 16.9333 240.424 17.6267 240.958 18.192C241.502 18.7467 242.168 19.024 242.958 19.024C243.747 19.024 244.414 18.7413 244.958 18.176C245.512 17.6107 245.79 16.9227 245.79 16.112ZM255.603 17.648C255.603 18.352 255.347 18.9227 254.835 19.36C254.334 19.7867 253.667 20 252.835 20H249.219V12.208H252.435C253.203 12.208 253.811 12.3947 254.259 12.768C254.718 13.1413 254.947 13.6427 254.947 14.272C254.947 14.9227 254.675 15.424 254.131 15.776C255.113 16.1173 255.603 16.7413 255.603 17.648ZM250.451 13.312V15.392H252.451C253.305 15.392 253.731 15.04 253.731 14.336C253.731 13.6533 253.305 13.312 252.451 13.312H250.451ZM254.371 17.648C254.371 17.2853 254.227 17.0027 253.939 16.8C253.662 16.5867 253.267 16.48 252.755 16.48H250.451V18.912H252.755C253.257 18.912 253.651 18.8 253.939 18.576C254.227 18.3413 254.371 18.032 254.371 17.648Z" fill="white"/>
</svg>
