<svg width="98" height="100" viewBox="0 0 98 100" fill="none" xmlns="http://www.w3.org/2000/svg">
<path d="M13.1872 99.6535C13.7552 100.07 14.4936 100.108 15.0995 99.786L33.9005 89.9027L52.7015 99.786C52.9666 99.9185 53.2506 99.9945 53.5536 99.9945C53.9322 99.9945 54.292 99.8807 54.614 99.6535C55.1629 99.2559 55.4469 98.5553 55.3335 97.8739L51.7361 76.9332L66.9587 62.1082C67.451 61.6349 67.6214 60.9154 67.4129 60.2527C67.2047 59.5901 66.6366 59.1167 65.955 59.0221L44.9388 55.9738L35.5288 36.9264C34.9229 35.6957 32.8971 35.6957 32.2912 36.9264L22.8623 55.9738L1.84604 59.0221C1.16443 59.1167 0.596425 59.609 0.388156 60.2527C0.179887 60.9154 0.350289 61.6349 0.842561 62.1082L16.0651 76.9332L12.4678 97.8739C12.3352 98.5744 12.6192 99.2559 13.1872 99.6535Z" fill="#F25C3A"/>
<path d="M97.6118 75.5126C97.4036 74.85 96.8356 74.3766 96.154 74.282L87.5962 73.0323L83.7716 65.2696C83.4685 64.6448 82.8439 64.2661 82.1431 64.2661C81.4428 64.2661 80.8178 64.6637 80.5148 65.2696L76.6903 73.0323L68.1323 74.282C67.4507 74.3766 66.8827 74.8691 66.6746 75.5126C66.4662 76.1753 66.6368 76.895 67.1288 77.3683L73.3201 83.4079L71.8622 91.928C71.7486 92.6098 72.0326 93.2912 72.5817 93.7078C73.1308 94.1054 73.8881 94.162 74.4942 93.8403L82.1431 89.8073L89.7923 93.8403C90.0574 93.9727 90.3414 94.0486 90.6443 94.0486C91.023 94.0486 91.3827 93.935 91.7046 93.7078C92.2536 93.31 92.5376 92.6096 92.424 91.928L90.9663 83.4079L97.1574 77.3683C97.6497 76.895 97.8201 76.1753 97.6118 75.5126Z" fill="#F25C3A"/>
<path d="M60.8809 28.2926C60.275 27.062 58.2493 27.062 57.6432 28.2926L54.8787 33.897L48.7064 34.7868C48.0248 34.8815 47.4568 35.3738 47.2485 36.0175C47.0402 36.6802 47.2106 37.3997 47.7029 37.873L52.1712 42.2277L51.111 48.3811C50.9972 49.0627 51.2812 49.7443 51.8304 50.1611C52.1523 50.3881 52.512 50.5019 52.8907 50.5019C53.1747 50.5019 53.4778 50.4261 53.7238 50.2747L59.2524 47.3589L64.781 50.2368C65.0459 50.3693 65.3299 50.3883 65.6139 50.3883C65.633 50.3883 65.6517 50.3883 65.6517 50.3883C66.6552 50.3883 67.4694 49.6309 67.4694 48.6275C67.4694 48.4003 67.4317 48.2299 67.3558 48.0216L66.3523 42.2279L70.8206 37.8732C71.3131 37.3999 71.4833 36.6804 71.275 36.0177C71.0666 35.355 70.4985 34.8817 69.8171 34.787L63.6448 33.8972L60.8809 28.2926Z" fill="#F25C3A"/>
<path d="M19.4544 5.32635C18.6213 3.62234 15.8381 3.62234 14.9861 5.32635L11.1993 13.0134L2.71711 14.2441C1.77044 14.3766 0.994161 15.0393 0.710157 15.9291C0.426154 16.8379 0.653357 17.8225 1.33496 18.4852L7.46943 24.4682L6.03048 32.9125C5.87902 33.8403 6.25769 34.787 7.01503 35.336C7.4505 35.6579 7.96171 35.8094 8.47291 35.8094C8.87052 35.8094 9.26812 35.6958 9.62786 35.5064L17.2202 31.4925L24.8126 35.4496C25.1723 35.639 25.5699 35.6579 25.9675 35.6579C25.9864 35.6579 26.0054 35.6579 26.0243 35.6579C27.4065 35.6579 28.5046 34.6166 28.5046 33.2344C28.5046 32.9125 28.4478 32.6853 28.3342 32.4013L26.971 24.4303L33.1055 18.4473C33.7871 17.7846 34.0332 16.8001 33.7303 15.8913C33.4273 14.9825 32.6511 14.3387 31.7233 14.2062L23.2411 12.9755L19.4544 5.32635Z" fill="#F25C3A"/>
<path d="M92.7649 47.8886C92.6511 47.5668 92.3671 47.3206 92.0265 47.2638L89.1675 46.8473L87.899 44.2723C87.596 43.6475 86.5736 43.6475 86.2707 44.2723L85.0021 46.8473L82.143 47.2638C81.8022 47.3206 81.5182 47.5478 81.4047 47.8886C81.291 48.2105 81.3856 48.5702 81.6319 48.8164L83.6955 50.8235L83.2032 53.6635C83.1464 54.0043 83.2788 54.3451 83.5628 54.5534C83.8468 54.7617 84.2065 54.7804 84.5095 54.629L87.0655 53.2847L89.6215 54.629C89.7541 54.7047 89.9055 54.7428 90.0381 54.7428C90.2274 54.7428 90.4167 54.6858 90.5682 54.5724C90.8522 54.3641 90.9847 54.0233 90.9279 53.6825L90.4357 50.8424L92.4992 48.8355C92.7838 48.5892 92.8785 48.2294 92.7649 47.8886Z" fill="#F25C3A"/>
<path d="M86.5923 22.6696C86.4221 22.3666 86.0813 22.2152 85.7403 22.2341L82.8626 22.4802L81.0448 20.2461C80.6093 19.716 79.6248 19.9432 79.4733 20.6058L78.8106 23.408L76.1221 24.4493C75.8002 24.5819 75.5732 24.8659 75.5541 25.2067C75.5162 25.5475 75.6866 25.8883 75.9895 26.0587L78.4509 27.5544L78.6213 30.4323C78.6402 30.7731 78.8485 31.0761 79.1704 31.2086C79.492 31.3412 79.852 31.2844 80.117 31.0572L82.2944 29.1827L85.0774 29.9211C85.2291 29.959 85.3615 29.959 85.5131 29.9211C85.7024 29.8833 85.8727 29.7886 85.9864 29.6371C86.2135 29.3721 86.2704 29.0123 86.1379 28.6905L85.0208 26.0398L86.5734 23.6163C86.7629 23.3323 86.7817 22.9725 86.5923 22.6696Z" fill="#F25C3A"/>
<path d="M61.2785 6.15929C61.0134 5.70488 60.502 5.45874 59.9908 5.49661L55.6361 5.85635L52.8718 2.46724C52.2091 1.6531 50.7134 2.01284 50.4673 3.01632L49.4638 7.27636L45.3931 8.86678C44.9008 9.05612 44.56 9.51052 44.5221 10.0217C44.4843 10.5519 44.7304 11.0441 45.1848 11.3092L48.9147 13.5812L49.1608 17.9549C49.1987 18.485 49.5206 18.9394 49.9939 19.1477C50.4673 19.356 51.0353 19.2613 51.4331 18.9205L54.7464 16.0615L58.9686 17.1786C59.1958 17.2354 59.4041 17.2354 59.6313 17.1975C59.9153 17.1407 60.1614 16.9893 60.3507 16.7621C60.6916 16.3645 60.7862 15.8154 60.5779 15.3231L58.8739 11.2903L61.2406 7.61717C61.5436 7.1817 61.5436 6.61369 61.2785 6.15929Z" fill="#F25C3A"/>
<path d="M80.0226 2.14536C79.8901 1.91816 79.6248 1.78563 79.36 1.80456L77.1069 1.99389L75.6679 0.233074C75.3269 -0.183464 74.5509 -0.013062 74.4181 0.517077L73.9069 2.71337L71.8053 3.54645C71.5592 3.64111 71.3698 3.88725 71.3509 4.15232C71.332 4.41739 71.4647 4.68246 71.6919 4.81499L73.6229 5.98887L73.7555 8.2609C73.7746 8.52597 73.9448 8.7721 74.1909 8.86677C74.4373 8.98037 74.7213 8.92357 74.9293 8.75317L76.6523 7.27635L78.8488 7.84436C78.9624 7.88223 79.076 7.88223 79.1896 7.84436C79.341 7.80649 79.4736 7.73076 79.5682 7.61716C79.7386 7.40889 79.7954 7.12489 79.6818 6.87875L78.8109 4.79606L80.0416 2.88377C80.1741 2.6755 80.1741 2.37257 80.0226 2.14536Z" fill="#F25C3A"/>
</svg>
